DINishCondensed-Italic.ufo
<glyph name="exclam" format="2">
  <advance width="208"/>
  <unicode hex="0021"/>
  <outline>
    <contour>
      <point x="62" y="201" type="line"/>
      <point x="120" y="201" type="line"/>
      <point x="240" y="707" type="line"/>
      <point x="152" y="707" type="line"/>
    </contour>
    <contour>
      <point x="10" y="0" type="line"/>
      <point x="89" y="0" type="line"/>
      <point x="110" y="99" type="line"/>
      <point x="31" y="99" type="line"/>
    </contour>
  </outline>
</glyph>
<glyph name="quotedbl" format="2">
  <advance width="286"/>
  <unicode hex="0022"/>
  <outline>
    <contour>
      <point x="85" y="469" type="line"/>
      <point x="155" y="469" type="line"/>
      <point x="204" y="707" type="line"/>
      <point x="134" y="707" type="line"/>
    </contour>
    <contour>
      <point x="218" y="469" type="line"/>
      <point x="288" y="469" type="line"/>
      <point x="337" y="707" type="line"/>
      <point x="267" y="707" type="line"/>
    </contour>
  </outline>
</glyph>
<glyph name="numbersign" format="2">
  <advance width="473"/>
  <unicode hex="0023"/>
  <outline>
    <contour>
      <point x="12" y="0" type="line"/>
      <point x="78" y="0" type="line"/>
      <point x="151" y="228" type="line"/>
      <point x="272" y="228" type="line"/>
      <point x="199" y="0" type="line"/>
      <point x="266" y="0" type="line"/>
      <point x="338" y="228" type="line"/>
      <point x="424" y="228" type="line"/>
      <point x="437" y="290" type="line"/>
      <point x="358" y="290" type="line"/>
      <point x="406" y="436" type="line"/>
      <point x="489" y="436" type="line"/>
      <point x="502" y="498" type="line"/>
      <point x="425" y="498" type="line"/>
      <point x="491" y="707" type="line"/>
      <point x="424" y="707" type="line"/>
      <point x="358" y="498" type="line"/>
      <point x="237" y="498" type="line"/>
      <point x="304" y="707" type="line"/>
      <point x="236" y="707" type="line"/>
      <point x="171" y="498" type="line"/>
      <point x="91" y="498" type="line"/>
      <point x="78" y="436" type="line"/>
      <point x="151" y="436" type="line"/>
      <point x="103" y="290" type="line"/>
      <point x="25" y="290" type="line"/>
      <point x="12" y="228" type="line"/>
      <point x="84" y="228" type="line"/>
    </contour>
    <contour>
      <point x="171" y="290" type="line"/>
      <point x="218" y="436" type="line"/>
      <point x="338" y="436" type="line"/>
      <point x="291" y="290" type="line"/>
    </contour>
  </outline>
</glyph>
<glyph name="dollar" format="2">
  <advance width="380"/>
  <unicode hex="0024"/>
  <outline>
    <contour>
      <point x="93" y="-74" type="line"/>
      <point x="147" y="-74" type="line"/>
      <point x="168" y="28" type="line"/>
      <point x="211" y="34"/>
      <point x="247" y="52"/>
      <point x="274" y="82" type="curve" smooth="yes"/>
      <point x="301" y="111"/>
      <point x="320" y="151"/>
      <point x="331" y="202" type="curve" smooth="yes"/>
      <point x="340" y="248"/>
      <point x="338" y="286"/>
      <point x="324" y="315" type="curve" smooth="yes"/>
      <point x="309" y="344"/>
      <point x="282" y="367"/>
      <point x="242" y="386" type="curve"/>
      <point x="288" y="608" type="line"/>
      <point x="321" y="597"/>
      <point x="333" y="561"/>
      <point x="322" y="502" type="curve"/>
      <point x="386" y="502" type="line"/>
      <point x="402" y="605"/>
      <point x="374" y="663"/>
      <point x="302" y="674" type="curve"/>
      <point x="322" y="771" type="line"/>
      <point x="268" y="771" type="line"/>
      <point x="248" y="675" type="line"/>
      <point x="206" y="670"/>
      <point x="170" y="653"/>
      <point x="140" y="624" type="curve" smooth="yes"/>
      <point x="110" y="595"/>
      <point x="89" y="554"/>
      <point x="78" y="502" type="curve" smooth="yes"/>
      <point x="69" y="459"/>
      <point x="72" y="425"/>
      <point x="85" y="400" type="curve" smooth="yes"/>
      <point x="98" y="374"/>
      <point x="125" y="351"/>
      <point x="166" y="332" type="curve" smooth="yes"/>
      <point x="176" y="327" type="line"/>
      <point x="126" y="88" type="line"/>
      <point x="88" y="99"/>
      <point x="74" y="137"/>
      <point x="84" y="200" type="curve"/>
      <point x="14" y="200" type="line"/>
      <point x="3" y="133"/>
      <point x="11" y="86"/>
      <point x="38" y="58" type="curve" smooth="yes"/>
      <point x="56" y="40"/>
      <point x="81" y="30"/>
      <point x="114" y="27" type="curve"/>
    </contour>
    <contour>
      <point x="193" y="408" type="line"/>
      <point x="172" y="419"/>
      <point x="158" y="432"/>
      <point x="151" y="448" type="curve" smooth="yes"/>
      <point x="144" y="464"/>
      <point x="143" y="485"/>
      <point x="148" y="512" type="curve" smooth="yes"/>
      <point x="154" y="539"/>
      <point x="165" y="562"/>
      <point x="180" y="579" type="curve" smooth="yes"/>
      <point x="195" y="596"/>
      <point x="213" y="606"/>
      <point x="235" y="611" type="curve"/>
    </contour>
    <contour>
      <point x="181" y="89" type="curve"/>
      <point x="225" y="301" type="line"/>
      <point x="243" y="290"/>
      <point x="255" y="276"/>
      <point x="261" y="260" type="curve" smooth="yes"/>
      <point x="266" y="243"/>
      <point x="266" y="221"/>
      <point x="260" y="193" type="curve" smooth="yes"/>
      <point x="248" y="136"/>
      <point x="222" y="101"/>
    </contour>
  </outline>
</glyph>
<glyph name="parenleft" format="2">
  <advance width="265"/>
  <unicode hex="0028"/>
  <outline>
    <contour>
      <point x="81" y="-86" type="curve"/>
      <point x="141" y="-86" type="line"/>
      <point x="125" y="-19"/>
      <point x="117" y="50"/>
      <point x="116" y="123" type="curve" smooth="yes"/>
      <point x="115" y="195"/>
      <point x="122" y="266"/>
      <point x="137" y="336" type="curve" smooth="yes"/>
      <point x="152" y="406"/>
      <point x="174" y="477"/>
      <point x="205" y="549" type="curve" smooth="yes"/>
      <point x="236" y="621"/>
      <point x="273" y="691"/>
      <point x="317" y="758" type="curve"/>
      <point x="257" y="758" type="line"/>
      <point x="209" y="692"/>
      <point x="169" y="623"/>
      <point x="137" y="552" type="curve" smooth="yes"/>
      <point x="105" y="481"/>
      <point x="81" y="409"/>
      <point x="66" y="336" type="curve" smooth="yes"/>
      <point x="51" y="264"/>
      <point x="44" y="192"/>
      <point x="47" y="121" type="curve" smooth="yes"/>
      <point x="50" y="49"/>
      <point x="61" y="-20"/>
    </contour>
  </outline>
</glyph>
<glyph name="parenright" format="2">
  <advance width="265"/>
  <unicode hex="0029"/>
  <outline>
    <contour>
      <point x="158" y="336" type="curve" smooth="yes"/>
      <point x="173" y="406"/>
      <point x="180" y="477"/>
      <point x="179" y="549" type="curve" smooth="yes"/>
      <point x="178" y="620"/>
      <point x="169" y="690"/>
      <point x="154" y="758" type="curve"/>
      <point x="215" y="758" type="line"/>
      <point x="234" y="693"/>
      <point x="245" y="624"/>
      <point x="248" y="552" type="curve" smooth="yes"/>
      <point x="250" y="480"/>
      <point x="244" y="408"/>
      <point x="229" y="336" type="curve" smooth="yes"/>
      <point x="214" y="264"/>
      <point x="190" y="192"/>
      <point x="158" y="121" type="curve" smooth="yes"/>
      <point x="126" y="49"/>
      <point x="86" y="-20"/>
      <point x="39" y="-86" type="curve"/>
      <point x="-22" y="-86" type="line"/>
      <point x="22" y="-19"/>
      <point x="59" y="50"/>
      <point x="90" y="122" type="curve" smooth="yes"/>
      <point x="121" y="194"/>
      <point x="143" y="265"/>
    </contour>
  </outline>
</glyph>
<glyph name="asterisk" format="2">
  <advance width="356"/>
  <unicode hex="002A"/>
  <outline>
    <contour>
      <point x="185" y="419" type="line"/>
      <point x="236" y="419" type="line"/>
      <point x="258" y="524" type="line"/>
      <point x="327" y="479" type="line"/>
      <point x="358" y="519" type="line"/>
      <point x="286" y="565" type="line"/>
      <point x="376" y="611" type="line"/>
      <point x="362" y="651" type="line"/>
      <point x="275" y="606" type="line"/>
      <point x="296" y="707" type="line"/>
      <point x="245" y="707" type="line"/>
      <point x="224" y="607" type="line"/>
      <point x="156" y="652" type="line"/>
      <point x="123" y="611" type="line"/>
      <point x="193" y="565" type="line"/>
      <point x="104" y="519" type="line"/>
      <point x="120" y="479" type="line"/>
      <point x="207" y="524" type="line"/>
    </contour>
  </outline>
</glyph>
<glyph name="plus" format="2">
  <advance width="430"/>
  <unicode hex="002B"/>
  <outline>
    <contour>
      <point x="182" y="109" type="line"/>
      <point x="249" y="109" type="line"/>
      <point x="249" y="249" type="line"/>
      <point x="390" y="249" type="line"/>
      <point x="390" y="316" type="line"/>
      <point x="249" y="316" type="line"/>
      <point x="249" y="457" type="line"/>
      <point x="182" y="457" type="line"/>
      <point x="182" y="316" type="line"/>
      <point x="41" y="316" type="line"/>
      <point x="41" y="249" type="line"/>
      <point x="182" y="249" type="line"/>
    </contour>
  </outline>
</glyph>
<glyph name="hyphen" format="2">
  <advance width="384"/>
  <unicode hex="002D"/>
  <outline>
    <contour>
      <point x="63" y="323" type="line"/>
      <point x="345" y="323" type="line"/>
      <point x="359" y="389" type="line"/>
      <point x="77" y="389" type="line"/>
    </contour>
  </outline>
</glyph>
<glyph name="slash" format="2">
  <advance width="303"/>
  <unicode hex="002F"/>
  <outline>
    <contour>
      <point x="-6" y="-10" type="line"/>
      <point x="61" y="-10" type="line"/>
      <point x="344" y="707" type="line"/>
      <point x="277" y="707" type="line"/>
    </contour>
  </outline>
</glyph>
<glyph name="zero" format="2">
  <advance width="412"/>
  <unicode hex="0030"/>
  <outline>
    <contour>
      <point x="150" y="-9" type="curve" smooth="yes"/>
      <point x="251" y="-9"/>
      <point x="315" y="53"/>
      <point x="341" y="178" type="curve" smooth="yes"/>
      <point x="414" y="529" type="line" smooth="yes"/>
      <point x="430" y="603"/>
      <point x="423" y="655"/>
      <point x="394" y="685" type="curve" smooth="yes"/>
      <point x="374" y="706"/>
      <point x="343" y="716"/>
      <point x="301" y="716" type="curve" smooth="yes"/>
      <point x="198" y="715"/>
      <point x="134" y="653"/>
      <point x="108" y="529" type="curve" smooth="yes"/>
      <point x="35" y="178" type="line" smooth="yes"/>
      <point x="20" y="105"/>
      <point x="27" y="53"/>
      <point x="56" y="23" type="curve" smooth="yes"/>
      <point x="76" y="2"/>
      <point x="108" y="-9"/>
    </contour>
    <contour>
      <point x="109" y="87" type="curve" smooth="yes"/>
      <point x="101" y="106"/>
      <point x="102" y="140"/>
      <point x="112" y="189" type="curve" smooth="yes"/>
      <point x="180" y="517" type="line" smooth="yes"/>
      <point x="191" y="566"/>
      <point x="204" y="600"/>
      <point x="220" y="620" type="curve" smooth="yes"/>
      <point x="235" y="639"/>
      <point x="258" y="649"/>
      <point x="287" y="649" type="curve" smooth="yes"/>
      <point x="316" y="649"/>
      <point x="335" y="639"/>
      <point x="342" y="620" type="curve" smooth="yes"/>
      <point x="349" y="600"/>
      <point x="348" y="566"/>
      <point x="337" y="517" type="curve" smooth="yes"/>
      <point x="269" y="189" type="line" smooth="yes"/>
      <point x="259" y="141"/>
      <point x="246" y="107"/>
      <point x="231" y="87" type="curve" smooth="yes"/>
      <point x="216" y="67"/>
      <point x="193" y="57"/>
      <point x="164" y="57" type="curve" smooth="yes"/>
      <point x="135" y="57"/>
      <point x="116" y="67"/>
    </contour>
  </outline>
</glyph>
<glyph name="one" format="2">
  <advance width="280"/>
  <unicode hex="0031"/>
  <outline>
    <contour>
      <point x="89" y="0" type="line"/>
      <point x="158" y="0" type="line"/>
      <point x="305" y="707" type="line"/>
      <point x="236" y="707" type="line"/>
      <point x="115" y="625" type="line"/>
      <point x="97" y="538" type="line"/>
      <point x="218" y="620" type="line"/>
    </contour>
  </outline>
</glyph>
<glyph name="two" format="2">
  <advance width="401"/>
  <unicode hex="0032"/>
  <outline>
    <contour>
      <point x="-7" y="0" type="line"/>
      <point x="295" y="0" type="line"/>
      <point x="309" y="67" type="line"/>
      <point x="93" y="67" type="line"/>
      <point x="328" y="372" type="line" smooth="yes"/>
      <point x="351" y="400"/>
      <point x="368" y="426"/>
      <point x="380" y="449" type="curve" smooth="yes"/>
      <point x="392" y="472"/>
      <point x="401" y="498"/>
      <point x="408" y="527" type="curve" smooth="yes"/>
      <point x="415" y="565" type="line" smooth="yes"/>
      <point x="425" y="611"/>
      <point x="419" y="648"/>
      <point x="398" y="675" type="curve" smooth="yes"/>
      <point x="377" y="702"/>
      <point x="342" y="716"/>
      <point x="295" y="716" type="curve" smooth="yes"/>
      <point x="248" y="716"/>
      <point x="208" y="702"/>
      <point x="175" y="675" type="curve" smooth="yes"/>
      <point x="142" y="648"/>
      <point x="120" y="611"/>
      <point x="110" y="564" type="curve" smooth="yes"/>
      <point x="100" y="516" type="line"/>
      <point x="174" y="516" type="line"/>
      <point x="183" y="557" type="line" smooth="yes"/>
      <point x="189" y="586"/>
      <point x="201" y="609"/>
      <point x="218" y="625" type="curve" smooth="yes"/>
      <point x="235" y="641"/>
      <point x="255" y="649"/>
      <point x="278" y="649" type="curve" smooth="yes"/>
      <point x="305" y="649"/>
      <point x="324" y="641"/>
      <point x="334" y="625" type="curve" smooth="yes"/>
      <point x="344" y="609"/>
      <point x="346" y="586"/>
      <point x="340" y="556" type="curve" smooth="yes"/>
      <point x="334" y="527" type="line" smooth="yes"/>
      <point x="329" y="504"/>
      <point x="322" y="484"/>
      <point x="312" y="465" type="curve" smooth="yes"/>
      <point x="302" y="446"/>
      <point x="289" y="427"/>
      <point x="274" y="407" type="curve" smooth="yes"/>
      <point x="5" y="59" type="line"/>
    </contour>
  </outline>
</glyph>
<glyph name="three" format="2">
  <advance width="414"/>
  <unicode hex="0033"/>
  <outline>
    <contour>
      <point x="146" y="-9" type="curve" smooth="yes"/>
      <point x="197" y="-9"/>
      <point x="240" y="5"/>
      <point x="273" y="34" type="curve" smooth="yes"/>
      <point x="306" y="62"/>
      <point x="327" y="102"/>
      <point x="338" y="155" type="curve" smooth="yes"/>
      <point x="354" y="229" type="line" smooth="yes"/>
      <point x="361" y="266"/>
      <point x="362" y="296"/>
      <point x="356" y="318" type="curve" smooth="yes"/>
      <point x="349" y="340"/>
      <point x="333" y="358"/>
      <point x="306" y="371" type="curve"/>
      <point x="335" y="383"/>
      <point x="358" y="400"/>
      <point x="373" y="421" type="curve" smooth="yes"/>
      <point x="388" y="442"/>
      <point x="400" y="469"/>
      <point x="407" y="503" type="curve" smooth="yes"/>
      <point x="419" y="563" type="line" smooth="yes"/>
      <point x="429" y="612"/>
      <point x="424" y="649"/>
      <point x="404" y="676" type="curve" smooth="yes"/>
      <point x="383" y="703"/>
      <point x="348" y="716"/>
      <point x="299" y="716" type="curve" smooth="yes"/>
      <point x="249" y="716"/>
      <point x="208" y="703"/>
      <point x="176" y="676" type="curve" smooth="yes"/>
      <point x="143" y="649"/>
      <point x="122" y="611"/>
      <point x="112" y="562" type="curve" smooth="yes"/>
      <point x="103" y="520" type="line"/>
      <point x="177" y="520" type="line"/>
      <point x="186" y="561" type="line" smooth="yes"/>
      <point x="191" y="589"/>
      <point x="203" y="611"/>
      <point x="220" y="626" type="curve" smooth="yes"/>
      <point x="237" y="641"/>
      <point x="258" y="649"/>
      <point x="283" y="649" type="curve" smooth="yes"/>
      <point x="309" y="649"/>
      <point x="327" y="641"/>
      <point x="338" y="625" type="curve" smooth="yes"/>
      <point x="349" y="609"/>
      <point x="351" y="586"/>
      <point x="344" y="555" type="curve" smooth="yes"/>
      <point x="333" y="500" type="line" smooth="yes"/>
      <point x="326" y="467"/>
      <point x="315" y="443"/>
      <point x="298" y="426" type="curve" smooth="yes"/>
      <point x="281" y="409"/>
      <point x="258" y="400"/>
      <point x="228" y="400" type="curve" smooth="yes"/>
      <point x="198" y="400" type="line"/>
      <point x="184" y="334" type="line"/>
      <point x="214" y="334" type="line" smooth="yes"/>
      <point x="245" y="334"/>
      <point x="265" y="325"/>
      <point x="275" y="308" type="curve" smooth="yes"/>
      <point x="285" y="290"/>
      <point x="287" y="264"/>
      <point x="280" y="230" type="curve" smooth="yes"/>
      <point x="264" y="152" type="line" smooth="yes"/>
      <point x="257" y="121"/>
      <point x="245" y="98"/>
      <point x="228" y="82" type="curve" smooth="yes"/>
      <point x="211" y="65"/>
      <point x="188" y="57"/>
      <point x="161" y="57" type="curve" smooth="yes"/>
      <point x="135" y="57"/>
      <point x="116" y="65"/>
      <point x="105" y="80" type="curve" smooth="yes"/>
      <point x="94" y="95"/>
      <point x="91" y="117"/>
      <point x="97" y="145" type="curve" smooth="yes"/>
      <point x="105" y="184" type="line"/>
      <point x="31" y="184" type="line"/>
      <point x="22" y="139" type="line" smooth="yes"/>
      <point x="12" y="92"/>
      <point x="18" y="56"/>
      <point x="39" y="30" type="curve" smooth="yes"/>
      <point x="60" y="4"/>
      <point x="96" y="-9"/>
    </contour>
  </outline>
</glyph>
<glyph name="five" format="2">
  <advance width="407"/>
  <unicode hex="0035"/>
  <outline>
    <contour>
      <point x="146" y="-9" type="curve" smooth="yes"/>
      <point x="247" y="-9"/>
      <point x="309" y="48"/>
      <point x="333" y="162" type="curve" smooth="yes"/>
      <point x="359" y="287" type="line" smooth="yes"/>
      <point x="372" y="353"/>
      <point x="366" y="399"/>
      <point x="340" y="426" type="curve" smooth="yes"/>
      <point x="321" y="445"/>
      <point x="293" y="454"/>
      <point x="256" y="454" type="curve" smooth="yes"/>
      <point x="237" y="454"/>
      <point x="220" y="451"/>
      <point x="204" y="445" type="curve" smooth="yes"/>
      <point x="188" y="438"/>
      <point x="174" y="430"/>
      <point x="163" y="420" type="curve"/>
      <point x="208" y="637" type="line"/>
      <point x="425" y="637" type="line"/>
      <point x="440" y="707" type="line"/>
      <point x="153" y="707" type="line"/>
      <point x="76" y="337" type="line"/>
      <point x="140" y="337" type="line"/>
      <point x="165" y="370"/>
      <point x="194" y="387"/>
      <point x="228" y="387" type="curve" smooth="yes"/>
      <point x="255" y="387"/>
      <point x="273" y="379"/>
      <point x="282" y="363" type="curve" smooth="yes"/>
      <point x="291" y="346"/>
      <point x="291" y="321"/>
      <point x="284" y="286" type="curve" smooth="yes"/>
      <point x="258" y="159" type="line" smooth="yes"/>
      <point x="251" y="124"/>
      <point x="239" y="98"/>
      <point x="223" y="82" type="curve" smooth="yes"/>
      <point x="207" y="65"/>
      <point x="186" y="57"/>
      <point x="159" y="57" type="curve" smooth="yes"/>
      <point x="137" y="57"/>
      <point x="121" y="63"/>
      <point x="111" y="74" type="curve" smooth="yes"/>
      <point x="96" y="89"/>
      <point x="93" y="115"/>
      <point x="100" y="151" type="curve" smooth="yes"/>
      <point x="104" y="168" type="line"/>
      <point x="33" y="168" type="line"/>
      <point x="29" y="150" type="line" smooth="yes"/>
      <point x="18" y="98"/>
      <point x="23" y="59"/>
      <point x="43" y="32" type="curve" smooth="yes"/>
      <point x="63" y="5"/>
      <point x="97" y="-9"/>
    </contour>
  </outline>
</glyph>
<glyph name="six" format="2">
  <advance width="404"/>
  <unicode hex="0036"/>
  <outline>
    <contour>
      <point x="25" y="155" type="curve" smooth="yes"/>
      <point x="46" y="257" type="line" smooth="yes"/>
      <point x="52" y="286"/>
      <point x="60" y="310"/>
      <point x="69" y="330" type="curve" smooth="yes"/>
      <point x="78" y="350"/>
      <point x="91" y="375"/>
      <point x="110" y="404" type="curve" smooth="yes"/>
      <point x="300" y="707" type="line"/>
      <point x="375" y="707" type="line"/>
      <point x="189" y="408" type="line"/>
      <point x="195" y="412"/>
      <point x="204" y="415"/>
      <point x="215" y="418" type="curve" smooth="yes"/>
      <point x="226" y="421"/>
      <point x="237" y="422"/>
      <point x="248" y="422" type="curve" smooth="yes"/>
      <point x="292" y="422"/>
      <point x="324" y="408"/>
      <point x="343" y="381" type="curve" smooth="yes"/>
      <point x="362" y="354"/>
      <point x="367" y="316"/>
      <point x="357" y="268" type="curve" smooth="yes"/>
      <point x="333" y="153" type="line" smooth="yes"/>
      <point x="322" y="103"/>
      <point x="300" y="64"/>
      <point x="266" y="35" type="curve" smooth="yes"/>
      <point x="232" y="6"/>
      <point x="192" y="-9"/>
      <point x="146" y="-9" type="curve" smooth="yes"/>
      <point x="98" y="-9"/>
      <point x="63" y="6"/>
      <point x="42" y="35" type="curve" smooth="yes"/>
      <point x="20" y="64"/>
      <point x="14" y="104"/>
    </contour>
    <contour>
      <point x="259" y="152" type="curve" smooth="yes"/>
      <point x="281" y="262" type="line" smooth="yes"/>
      <point x="288" y="292"/>
      <point x="286" y="315"/>
      <point x="276" y="332" type="curve" smooth="yes"/>
      <point x="265" y="348"/>
      <point x="247" y="356"/>
      <point x="222" y="356" type="curve" smooth="yes"/>
      <point x="197" y="356"/>
      <point x="175" y="348"/>
      <point x="158" y="333" type="curve" smooth="yes"/>
      <point x="141" y="317"/>
      <point x="129" y="295"/>
      <point x="123" y="266" type="curve" smooth="yes"/>
      <point x="100" y="153" type="line" smooth="yes"/>
      <point x="93" y="122"/>
      <point x="95" y="99"/>
      <point x="106" y="82" type="curve" smooth="yes"/>
      <point x="116" y="65"/>
      <point x="134" y="57"/>
      <point x="160" y="57" type="curve" smooth="yes"/>
      <point x="185" y="57"/>
      <point x="207" y="65"/>
      <point x="224" y="82" type="curve" smooth="yes"/>
      <point x="241" y="98"/>
      <point x="252" y="121"/>
    </contour>
  </outline>
</glyph>
<glyph name="seven" format="2">
  <advance width="369"/>
  <unicode hex="0037"/>
  <outline>
    <contour>
      <point x="18" y="0" type="line"/>
      <point x="92" y="0" type="line"/>
      <point x="416" y="640" type="line"/>
      <point x="430" y="707" type="line"/>
      <point x="124" y="707" type="line"/>
      <point x="110" y="640" type="line"/>
      <point x="342" y="640" type="line"/>
    </contour>
  </outline>
</glyph>
<glyph name="eight" format="2">
  <advance width="412"/>
  <unicode hex="0038"/>
  <outline>
    <contour>
      <point x="149" y="-9" type="curve" smooth="yes"/>
      <point x="198" y="-9"/>
      <point x="238" y="6"/>
      <point x="271" y="35" type="curve" smooth="yes"/>
      <point x="304" y="64"/>
      <point x="326" y="105"/>
      <point x="337" y="157" type="curve" smooth="yes"/>
      <point x="353" y="234" type="line" smooth="yes"/>
      <point x="367" y="300"/>
      <point x="353" y="346"/>
      <point x="311" y="371" type="curve"/>
      <point x="334" y="382"/>
      <point x="354" y="398"/>
      <point x="370" y="421" type="curve" smooth="yes"/>
      <point x="386" y="443"/>
      <point x="397" y="468"/>
      <point x="403" y="497" type="curve" smooth="yes"/>
      <point x="417" y="562" type="line" smooth="yes"/>
      <point x="426" y="609"/>
      <point x="421" y="646"/>
      <point x="400" y="674" type="curve" smooth="yes"/>
      <point x="379" y="702"/>
      <point x="346" y="716"/>
      <point x="300" y="716" type="curve" smooth="yes"/>
      <point x="255" y="716"/>
      <point x="216" y="702"/>
      <point x="183" y="674" type="curve" smooth="yes"/>
      <point x="150" y="646"/>
      <point x="128" y="609"/>
      <point x="119" y="562" type="curve" smooth="yes"/>
      <point x="105" y="497" type="line" smooth="yes"/>
      <point x="100" y="469"/>
      <point x="101" y="444"/>
      <point x="108" y="422" type="curve" smooth="yes"/>
      <point x="115" y="399"/>
      <point x="127" y="382"/>
      <point x="146" y="371" type="curve"/>
      <point x="93" y="345"/>
      <point x="60" y="299"/>
      <point x="47" y="234" type="curve" smooth="yes"/>
      <point x="31" y="157" type="line" smooth="yes"/>
      <point x="20" y="105"/>
      <point x="25" y="64"/>
      <point x="46" y="35" type="curve" smooth="yes"/>
      <point x="67" y="6"/>
      <point x="101" y="-9"/>
    </contour>
    <contour>
      <point x="105" y="82" type="curve" smooth="yes"/>
      <point x="95" y="101"/>
      <point x="93" y="126"/>
      <point x="100" y="159" type="curve" smooth="yes"/>
      <point x="116" y="236" type="line" smooth="yes"/>
      <point x="123" y="268"/>
      <point x="135" y="293"/>
      <point x="152" y="312" type="curve" smooth="yes"/>
      <point x="169" y="330"/>
      <point x="192" y="339"/>
      <point x="221" y="339" type="curve" smooth="yes"/>
      <point x="244" y="339"/>
      <point x="262" y="333"/>
      <point x="273" y="321" type="curve" smooth="yes"/>
      <point x="289" y="305"/>
      <point x="293" y="276"/>
      <point x="285" y="236" type="curve" smooth="yes"/>
      <point x="269" y="159" type="line" smooth="yes"/>
      <point x="254" y="90"/>
      <point x="219" y="55"/>
      <point x="162" y="54" type="curve" smooth="yes"/>
      <point x="133" y="54"/>
      <point x="114" y="63"/>
    </contour>
    <contour>
      <point x="180" y="427" type="curve" smooth="yes"/>
      <point x="170" y="444"/>
      <point x="168" y="467"/>
      <point x="174" y="497" type="curve" smooth="yes"/>
      <point x="188" y="562" type="line" smooth="yes"/>
      <point x="193" y="589"/>
      <point x="205" y="611"/>
      <point x="223" y="628" type="curve" smooth="yes"/>
      <point x="240" y="644"/>
      <point x="262" y="652"/>
      <point x="287" y="652" type="curve" smooth="yes"/>
      <point x="312" y="652"/>
      <point x="331" y="644"/>
      <point x="342" y="628" type="curve" smooth="yes"/>
      <point x="353" y="612"/>
      <point x="355" y="590"/>
      <point x="349" y="562" type="curve" smooth="yes"/>
      <point x="335" y="497" type="line" smooth="yes"/>
      <point x="329" y="468"/>
      <point x="318" y="444"/>
      <point x="301" y="427" type="curve" smooth="yes"/>
      <point x="284" y="410"/>
      <point x="261" y="401"/>
      <point x="234" y="401" type="curve" smooth="yes"/>
      <point x="208" y="401"/>
      <point x="190" y="410"/>
    </contour>
  </outline>
</glyph>
<glyph name="nine" format="2">
  <advance width="404"/>
  <unicode hex="0039"/>
  <outline>
    <contour>
      <point x="254" y="299" type="line"/>
      <point x="248" y="295"/>
      <point x="239" y="292"/>
      <point x="228" y="289" type="curve" smooth="yes"/>
      <point x="217" y="286"/>
      <point x="205" y="285"/>
      <point x="193" y="285" type="curve" smooth="yes"/>
      <point x="149" y="285"/>
      <point x="117" y="299"/>
      <point x="98" y="326" type="curve" smooth="yes"/>
      <point x="79" y="353"/>
      <point x="74" y="391"/>
      <point x="84" y="438" type="curve" smooth="yes"/>
      <point x="108" y="554" type="line" smooth="yes"/>
      <point x="119" y="605"/>
      <point x="141" y="644"/>
      <point x="175" y="673" type="curve" smooth="yes"/>
      <point x="209" y="702"/>
      <point x="250" y="716"/>
      <point x="297" y="716" type="curve" smooth="yes"/>
      <point x="345" y="716"/>
      <point x="380" y="701"/>
      <point x="401" y="672" type="curve" smooth="yes"/>
      <point x="422" y="643"/>
      <point x="427" y="603"/>
      <point x="416" y="552" type="curve" smooth="yes"/>
      <point x="395" y="450" type="line" smooth="yes"/>
      <point x="389" y="421"/>
      <point x="382" y="397"/>
      <point x="373" y="377" type="curve" smooth="yes"/>
      <point x="364" y="356"/>
      <point x="350" y="331"/>
      <point x="332" y="302" type="curve" smooth="yes"/>
      <point x="142" y="0" type="line"/>
      <point x="67" y="0" type="line"/>
    </contour>
    <contour>
      <point x="318" y="440" type="curve" smooth="yes"/>
      <point x="342" y="554" type="line" smooth="yes"/>
      <point x="349" y="585"/>
      <point x="347" y="608"/>
      <point x="337" y="625" type="curve" smooth="yes"/>
      <point x="326" y="641"/>
      <point x="308" y="649"/>
      <point x="283" y="649" type="curve" smooth="yes"/>
      <point x="257" y="649"/>
      <point x="236" y="641"/>
      <point x="219" y="625" type="curve" smooth="yes"/>
      <point x="202" y="608"/>
      <point x="190" y="585"/>
      <point x="183" y="555" type="curve" smooth="yes"/>
      <point x="160" y="444" type="line" smooth="yes"/>
      <point x="154" y="414"/>
      <point x="156" y="391"/>
      <point x="167" y="375" type="curve" smooth="yes"/>
      <point x="177" y="358"/>
      <point x="195" y="350"/>
      <point x="221" y="350" type="curve" smooth="yes"/>
      <point x="246" y="350"/>
      <point x="268" y="358"/>
      <point x="285" y="374" type="curve" smooth="yes"/>
      <point x="302" y="389"/>
      <point x="313" y="411"/>
    </contour>
  </outline>
</glyph>
<glyph name="question" format="2">
  <advance width="371"/>
  <unicode hex="003F"/>
  <outline>
    <contour>
      <point x="128" y="182" type="line"/>
      <point x="203" y="182" type="line"/>
      <point x="216" y="247" type="line" smooth="yes"/>
      <point x="220" y="266"/>
      <point x="225" y="282"/>
      <point x="231" y="295" type="curve" smooth="yes"/>
      <point x="237" y="307"/>
      <point x="247" y="322"/>
      <point x="262" y="341" type="curve" smooth="yes"/>
      <point x="313" y="404" type="line" smooth="yes"/>
      <point x="339" y="438"/>
      <point x="358" y="465"/>
      <point x="369" y="485" type="curve" smooth="yes"/>
      <point x="380" y="504"/>
      <point x="389" y="527"/>
      <point x="394" y="552" type="curve" smooth="yes"/>
      <point x="405" y="603"/>
      <point x="400" y="644"/>
      <point x="380" y="673" type="curve" smooth="yes"/>
      <point x="360" y="702"/>
      <point x="325" y="717"/>
      <point x="276" y="717" type="curve" smooth="yes"/>
      <point x="175" y="717"/>
      <point x="112" y="653"/>
      <point x="85" y="524" type="curve"/>
      <point x="159" y="524" type="line"/>
      <point x="168" y="569"/>
      <point x="181" y="601"/>
      <point x="196" y="621" type="curve" smooth="yes"/>
      <point x="211" y="640"/>
      <point x="234" y="650"/>
      <point x="263" y="650" type="curve" smooth="yes"/>
      <point x="283" y="650"/>
      <point x="297" y="645"/>
      <point x="307" y="635" type="curve" smooth="yes"/>
      <point x="323" y="620"/>
      <point x="327" y="592"/>
      <point x="319" y="552" type="curve" smooth="yes"/>
      <point x="314" y="531"/>
      <point x="308" y="513"/>
      <point x="300" y="498" type="curve" smooth="yes"/>
      <point x="291" y="483"/>
      <point x="278" y="464"/>
      <point x="261" y="442" type="curve" smooth="yes"/>
      <point x="203" y="371" type="line" smooth="yes"/>
      <point x="183" y="345"/>
      <point x="169" y="324"/>
      <point x="161" y="309" type="curve" smooth="yes"/>
      <point x="153" y="294"/>
      <point x="147" y="275"/>
      <point x="142" y="252" type="curve" smooth="yes"/>
    </contour>
    <contour>
      <point x="87" y="0" type="line"/>
      <point x="167" y="0" type="line"/>
      <point x="188" y="99" type="line"/>
      <point x="108" y="99" type="line"/>
    </contour>
  </outline>
</glyph>
<glyph name="A" format="2">
  <advance width="472"/>
  <unicode hex="0041"/>
  <outline>
    <contour>
      <point x="-46" y="0" type="line"/>
      <point x="32" y="0" type="line"/>
      <point x="114" y="180" type="line"/>
      <point x="321" y="180" type="line"/>
      <point x="329" y="0" type="line"/>
      <point x="408" y="0" type="line"/>
      <point x="362" y="707" type="line"/>
      <point x="294" y="707" type="line"/>
    </contour>
    <contour>
      <point x="144" y="245" type="line"/>
      <point x="305" y="594" type="line"/>
      <point x="319" y="245" type="line"/>
    </contour>
  </outline>
</glyph>
<glyph name="B" format="2">
  <advance width="481"/>
  <unicode hex="0042"/>
  <outline>
    <contour>
      <point x="6" y="0" type="line"/>
      <point x="188" y="0" type="line" smooth="yes"/>
      <point x="252" y="0"/>
      <point x="302" y="17"/>
      <point x="339" y="50" type="curve" smooth="yes"/>
      <point x="376" y="83"/>
      <point x="401" y="131"/>
      <point x="414" y="195" type="curve" smooth="yes"/>
      <point x="433" y="291"/>
      <point x="412" y="348"/>
      <point x="349" y="367" type="curve"/>
      <point x="416" y="390"/>
      <point x="458" y="441"/>
      <point x="475" y="522" type="curve" smooth="yes"/>
      <point x="488" y="584"/>
      <point x="483" y="630"/>
      <point x="461" y="661" type="curve" smooth="yes"/>
      <point x="439" y="692"/>
      <point x="397" y="707"/>
      <point x="334" y="707" type="curve" smooth="yes"/>
      <point x="153" y="707" type="line"/>
    </contour>
    <contour>
      <point x="95" y="67" type="line"/>
      <point x="150" y="333" type="line"/>
      <point x="251" y="333" type="line" smooth="yes"/>
      <point x="285" y="333"/>
      <point x="309" y="325"/>
      <point x="325" y="308" type="curve" smooth="yes"/>
      <point x="345" y="286"/>
      <point x="350" y="250"/>
      <point x="340" y="200" type="curve" smooth="yes"/>
      <point x="330" y="155"/>
      <point x="314" y="121"/>
      <point x="291" y="100" type="curve" smooth="yes"/>
      <point x="268" y="78"/>
      <point x="237" y="67"/>
      <point x="196" y="67" type="curve" smooth="yes"/>
    </contour>
    <contour>
      <point x="164" y="399" type="line"/>
      <point x="214" y="640" type="line"/>
      <point x="315" y="640" type="line" smooth="yes"/>
      <point x="353" y="640"/>
      <point x="379" y="631"/>
      <point x="392" y="612" type="curve" smooth="yes"/>
      <point x="405" y="593"/>
      <point x="408" y="562"/>
      <point x="399" y="518" type="curve" smooth="yes"/>
      <point x="383" y="439"/>
      <point x="338" y="399"/>
      <point x="264" y="399" type="curve" smooth="yes"/>
    </contour>
  </outline>
</glyph>
<glyph name="C" format="2">
  <advance width="489"/>
  <unicode hex="0043"/>
  <outline>
    <contour>
      <point x="41" y="206" type="curve" smooth="yes"/>
      <point x="102" y="501" type="line" smooth="yes"/>
      <point x="117" y="573"/>
      <point x="146" y="627"/>
      <point x="189" y="663" type="curve" smooth="yes"/>
      <point x="232" y="698"/>
      <point x="282" y="716"/>
      <point x="340" y="716" type="curve" smooth="yes"/>
      <point x="396" y="716"/>
      <point x="438" y="699"/>
      <point x="466" y="665" type="curve" smooth="yes"/>
      <point x="494" y="630"/>
      <point x="501" y="579"/>
      <point x="487" y="510" type="curve" smooth="yes"/>
      <point x="485" y="501" type="line"/>
      <point x="410" y="501" type="line"/>
      <point x="412" y="508" type="line" smooth="yes"/>
      <point x="422" y="557"/>
      <point x="419" y="592"/>
      <point x="403" y="615" type="curve" smooth="yes"/>
      <point x="387" y="637"/>
      <point x="362" y="648"/>
      <point x="327" y="648" type="curve" smooth="yes"/>
      <point x="288" y="648"/>
      <point x="255" y="636"/>
      <point x="230" y="611" type="curve" smooth="yes"/>
      <point x="205" y="586"/>
      <point x="187" y="547"/>
      <point x="176" y="494" type="curve" smooth="yes"/>
      <point x="116" y="205" type="line" smooth="yes"/>
      <point x="104" y="148"/>
      <point x="109" y="108"/>
      <point x="132" y="84" type="curve" smooth="yes"/>
      <point x="147" y="68"/>
      <point x="172" y="59"/>
      <point x="204" y="59" type="curve" smooth="yes"/>
      <point x="239" y="59"/>
      <point x="270" y="70"/>
      <point x="295" y="93" type="curve" smooth="yes"/>
      <point x="320" y="116"/>
      <point x="337" y="150"/>
      <point x="347" y="197" type="curve" smooth="yes"/>
      <point x="349" y="206" type="line"/>
      <point x="422" y="206" type="line"/>
      <point x="420" y="196" type="line" smooth="yes"/>
      <point x="406" y="128"/>
      <point x="378" y="77"/>
      <point x="336" y="43" type="curve" smooth="yes"/>
      <point x="294" y="9"/>
      <point x="245" y="-8"/>
      <point x="190" y="-8" type="curve" smooth="yes"/>
      <point x="132" y="-8"/>
      <point x="89" y="10"/>
      <point x="61" y="46" type="curve" smooth="yes"/>
      <point x="33" y="81"/>
      <point x="26" y="135"/>
    </contour>
  </outline>
</glyph>
<glyph name="D" format="2">
  <advance width="488"/>
  <unicode hex="0044"/>
  <outline>
    <contour>
      <point x="6" y="0" type="line"/>
      <point x="190" y="0" type="line" smooth="yes"/>
      <point x="247" y="0"/>
      <point x="297" y="18"/>
      <point x="339" y="54" type="curve" smooth="yes"/>
      <point x="381" y="90"/>
      <point x="410" y="143"/>
      <point x="425" y="214" type="curve" smooth="yes"/>
      <point x="483" y="493" type="line" smooth="yes"/>
      <point x="498" y="564"/>
      <point x="491" y="618"/>
      <point x="464" y="654" type="curve" smooth="yes"/>
      <point x="437" y="689"/>
      <point x="394" y="707"/>
      <point x="337" y="707" type="curve" smooth="yes"/>
      <point x="153" y="707" type="line"/>
    </contour>
    <contour>
      <point x="95" y="67" type="line"/>
      <point x="214" y="640" type="line"/>
      <point x="323" y="640" type="line" smooth="yes"/>
      <point x="360" y="640"/>
      <point x="386" y="627"/>
      <point x="401" y="602" type="curve" smooth="yes"/>
      <point x="415" y="576"/>
      <point x="417" y="537"/>
      <point x="406" y="485" type="curve" smooth="yes"/>
      <point x="349" y="213" type="line" smooth="yes"/>
      <point x="339" y="164"/>
      <point x="322" y="128"/>
      <point x="297" y="104" type="curve" smooth="yes"/>
      <point x="272" y="79"/>
      <point x="241" y="67"/>
      <point x="204" y="67" type="curve" smooth="yes"/>
    </contour>
  </outline>
</glyph>
<glyph name="F" format="2">
  <advance width="406"/>
  <unicode hex="0046"/>
  <outline>
    <contour>
      <point x="6" y="0" type="line"/>
      <point x="81" y="0" type="line"/>
      <point x="148" y="323" type="line"/>
      <point x="355" y="323" type="line"/>
      <point x="369" y="390" type="line"/>
      <point x="162" y="390" type="line"/>
      <point x="214" y="640" type="line"/>
      <point x="454" y="640" type="line"/>
      <point x="468" y="707" type="line"/>
      <point x="153" y="707" type="line"/>
    </contour>
  </outline>
</glyph>
<glyph name="H" format="2">
  <advance width="489"/>
  <unicode hex="0048"/>
  <outline>
    <contour>
      <point x="6" y="0" type="line"/>
      <point x="81" y="0" type="line"/>
      <point x="149" y="327" type="line"/>
      <point x="366" y="327" type="line"/>
      <point x="298" y="0" type="line"/>
      <point x="373" y="0" type="line"/>
      <point x="520" y="707" type="line"/>
      <point x="445" y="707" type="line"/>
      <point x="380" y="393" type="line"/>
      <point x="163" y="393" type="line"/>
      <point x="228" y="707" type="line"/>
      <point x="153" y="707" type="line"/>
    </contour>
  </outline>
</glyph>
<glyph name="I" format="2">
  <advance width="208"/>
  <unicode hex="0049"/>
  <anchor x="251" y="707" name="top"/>
  <outline>
    <contour>
      <point x="13" y="0" type="line"/>
      <point x="86" y="0" type="line"/>
      <point x="233" y="707" type="line"/>
      <point x="160" y="707" type="line"/>
    </contour>
  </outline>
</glyph>
<glyph name="K" format="2">
  <advance width="472"/>
  <unicode hex="004B"/>
  <outline>
    <contour>
      <point x="6" y="0" type="line"/>
      <point x="81" y="0" type="line"/>
      <point x="120" y="189" type="line"/>
      <point x="242" y="343" type="line"/>
      <point x="329" y="0" type="line"/>
      <point x="411" y="0" type="line"/>
      <point x="303" y="419" type="line"/>
      <point x="533" y="707" type="line"/>
      <point x="454" y="707" type="line"/>
      <point x="146" y="313" type="line"/>
      <point x="228" y="707" type="line"/>
      <point x="153" y="707" type="line"/>
    </contour>
  </outline>
</glyph>
<glyph name="L" format="2">
  <advance width="400"/>
  <unicode hex="004C"/>
  <outline>
    <contour>
      <point x="6" y="0" type="line"/>
      <point x="321" y="0" type="line"/>
      <point x="335" y="67" type="line"/>
      <point x="95" y="67" type="line"/>
      <point x="228" y="707" type="line"/>
      <point x="153" y="707" type="line"/>
    </contour>
  </outline>
</glyph>
<glyph name="N" format="2">
  <advance width="514"/>
  <unicode hex="004E"/>
  <outline>
    <contour>
      <point x="6" y="0" type="line"/>
      <point x="81" y="0" type="line"/>
      <point x="194" y="543" type="line"/>
      <point x="323" y="0" type="line"/>
      <point x="398" y="0" type="line"/>
      <point x="545" y="707" type="line"/>
      <point x="470" y="707" type="line"/>
      <point x="357" y="163" type="line"/>
      <point x="228" y="707" type="line"/>
      <point x="153" y="707" type="line"/>
    </contour>
  </outline>
</glyph>
<glyph name="O" format="2">
  <advance width="489"/>
  <unicode hex="004F"/>
  <outline>
    <contour>
      <point x="41" y="206" type="curve" smooth="yes"/>
      <point x="102" y="501" type="line" smooth="yes"/>
      <point x="117" y="574"/>
      <point x="146" y="628"/>
      <point x="189" y="663" type="curve" smooth="yes"/>
      <point x="231" y="698"/>
      <point x="281" y="716"/>
      <point x="339" y="716" type="curve" smooth="yes"/>
      <point x="397" y="716"/>
      <point x="440" y="698"/>
      <point x="467" y="663" type="curve" smooth="yes"/>
      <point x="494" y="627"/>
      <point x="500" y="573"/>
      <point x="485" y="501" type="curve" smooth="yes"/>
      <point x="424" y="206" type="line" smooth="yes"/>
      <point x="409" y="135"/>
      <point x="381" y="82"/>
      <point x="338" y="46" type="curve" smooth="yes"/>
      <point x="295" y="10"/>
      <point x="245" y="-8"/>
      <point x="188" y="-8" type="curve" smooth="yes"/>
      <point x="130" y="-8"/>
      <point x="87" y="10"/>
      <point x="60" y="46" type="curve" smooth="yes"/>
      <point x="33" y="81"/>
      <point x="26" y="135"/>
    </contour>
    <contour>
      <point x="349" y="205" type="curve" smooth="yes"/>
      <point x="409" y="494" type="line" smooth="yes"/>
      <point x="420" y="546"/>
      <point x="418" y="585"/>
      <point x="404" y="610" type="curve" smooth="yes"/>
      <point x="389" y="635"/>
      <point x="363" y="648"/>
      <point x="326" y="648" type="curve" smooth="yes"/>
      <point x="287" y="648"/>
      <point x="255" y="635"/>
      <point x="230" y="610" type="curve" smooth="yes"/>
      <point x="205" y="585"/>
      <point x="187" y="546"/>
      <point x="176" y="494" type="curve" smooth="yes"/>
      <point x="116" y="205" type="line" smooth="yes"/>
      <point x="104" y="148"/>
      <point x="109" y="107"/>
      <point x="132" y="84" type="curve" smooth="yes"/>
      <point x="147" y="67"/>
      <point x="171" y="59"/>
      <point x="203" y="59" type="curve" smooth="yes"/>
      <point x="240" y="59"/>
      <point x="271" y="71"/>
      <point x="296" y="96" type="curve" smooth="yes"/>
      <point x="321" y="120"/>
      <point x="338" y="156"/>
    </contour>
  </outline>
</glyph>
<glyph name="P" format="2">
  <advance width="450"/>
  <unicode hex="0050"/>
  <outline>
    <contour>
      <point x="6" y="0" type="line"/>
      <point x="81" y="0" type="line"/>
      <point x="143" y="299" type="line"/>
      <point x="252" y="299" type="line" smooth="yes"/>
      <point x="373" y="299"/>
      <point x="447" y="366"/>
      <point x="475" y="501" type="curve" smooth="yes"/>
      <point x="489" y="569"/>
      <point x="485" y="620"/>
      <point x="464" y="655" type="curve" smooth="yes"/>
      <point x="442" y="690"/>
      <point x="400" y="707"/>
      <point x="337" y="707" type="curve" smooth="yes"/>
      <point x="153" y="707" type="line"/>
    </contour>
    <contour>
      <point x="157" y="366" type="line"/>
      <point x="214" y="640" type="line"/>
      <point x="319" y="640" type="line" smooth="yes"/>
      <point x="357" y="640"/>
      <point x="383" y="629"/>
      <point x="397" y="608" type="curve" smooth="yes"/>
      <point x="410" y="586"/>
      <point x="412" y="550"/>
      <point x="401" y="501" type="curve" smooth="yes"/>
      <point x="391" y="453"/>
      <point x="375" y="419"/>
      <point x="353" y="398" type="curve" smooth="yes"/>
      <point x="330" y="377"/>
      <point x="300" y="366"/>
      <point x="262" y="366" type="curve" smooth="yes"/>
    </contour>
  </outline>
</glyph>
<glyph name="Q" format="2">
  <advance width="489"/>
  <unicode hex="0051"/>
  <outline>
    <contour>
      <point x="257" y="-146" type="line"/>
      <point x="323" y="-122" type="line"/>
      <point x="294" y="16" type="line"/>
      <point x="326" y="32"/>
      <point x="353" y="56"/>
      <point x="376" y="88" type="curve" smooth="yes"/>
      <point x="398" y="119"/>
      <point x="414" y="159"/>
      <point x="424" y="206" type="curve" smooth="yes"/>
      <point x="485" y="501" type="line" smooth="yes"/>
      <point x="500" y="573"/>
      <point x="494" y="627"/>
      <point x="467" y="663" type="curve" smooth="yes"/>
      <point x="440" y="698"/>
      <point x="397" y="716"/>
      <point x="339" y="716" type="curve" smooth="yes"/>
      <point x="281" y="716"/>
      <point x="231" y="698"/>
      <point x="189" y="663" type="curve" smooth="yes"/>
      <point x="146" y="628"/>
      <point x="117" y="574"/>
      <point x="102" y="501" type="curve" smooth="yes"/>
      <point x="41" y="206" type="line" smooth="yes"/>
      <point x="26" y="135"/>
      <point x="33" y="81"/>
      <point x="60" y="46" type="curve" smooth="yes"/>
      <point x="87" y="10"/>
      <point x="130" y="-8"/>
      <point x="188" y="-8" type="curve" smooth="yes"/>
      <point x="202" y="-8"/>
      <point x="215" y="-7"/>
      <point x="228" y="-5" type="curve"/>
    </contour>
    <contour>
      <point x="132" y="84" type="curve" smooth="yes"/>
      <point x="109" y="107"/>
      <point x="104" y="148"/>
      <point x="116" y="205" type="curve" smooth="yes"/>
      <point x="176" y="494" type="line" smooth="yes"/>
      <point x="187" y="546"/>
      <point x="205" y="585"/>
      <point x="230" y="610" type="curve" smooth="yes"/>
      <point x="255" y="635"/>
      <point x="287" y="648"/>
      <point x="326" y="648" type="curve" smooth="yes"/>
      <point x="363" y="648"/>
      <point x="389" y="635"/>
      <point x="404" y="610" type="curve" smooth="yes"/>
      <point x="418" y="585"/>
      <point x="420" y="546"/>
      <point x="409" y="494" type="curve" smooth="yes"/>
      <point x="349" y="205" type="line" smooth="yes"/>
      <point x="338" y="156"/>
      <point x="321" y="120"/>
      <point x="296" y="96" type="curve" smooth="yes"/>
      <point x="271" y="71"/>
      <point x="240" y="59"/>
      <point x="203" y="59" type="curve" smooth="yes"/>
      <point x="171" y="59"/>
      <point x="147" y="67"/>
    </contour>
  </outline>
</glyph>
<glyph name="R" format="2">
  <advance width="477"/>
  <unicode hex="0052"/>
  <outline>
    <contour>
      <point x="6" y="0" type="line"/>
      <point x="81" y="0" type="line"/>
      <point x="145" y="309" type="line"/>
      <point x="259" y="309" type="line"/>
      <point x="312" y="0" type="line"/>
      <point x="391" y="0" type="line"/>
      <point x="334" y="321" type="line"/>
      <point x="408" y="344"/>
      <point x="455" y="406"/>
      <point x="476" y="507" type="curve" smooth="yes"/>
      <point x="490" y="574"/>
      <point x="486" y="625"/>
      <point x="465" y="658" type="curve" smooth="yes"/>
      <point x="444" y="691"/>
      <point x="402" y="707"/>
      <point x="340" y="707" type="curve" smooth="yes"/>
      <point x="153" y="707" type="line"/>
    </contour>
    <contour>
      <point x="159" y="375" type="line"/>
      <point x="214" y="640" type="line"/>
      <point x="325" y="640" type="line" smooth="yes"/>
      <point x="362" y="640"/>
      <point x="387" y="629"/>
      <point x="398" y="607" type="curve" smooth="yes"/>
      <point x="409" y="585"/>
      <point x="410" y="552"/>
      <point x="401" y="507" type="curve" smooth="yes"/>
      <point x="392" y="463"/>
      <point x="377" y="430"/>
      <point x="356" y="408" type="curve" smooth="yes"/>
      <point x="335" y="386"/>
      <point x="306" y="375"/>
      <point x="270" y="375" type="curve" smooth="yes"/>
    </contour>
  </outline>
</glyph>
<glyph name="S" format="2">
  <advance width="436"/>
  <unicode hex="0053"/>
  <outline>
    <contour>
      <point x="12" y="194" type="curve"/>
      <point x="84" y="194" type="line"/>
      <point x="76" y="146"/>
      <point x="80" y="112"/>
      <point x="95" y="91" type="curve" smooth="yes"/>
      <point x="110" y="70"/>
      <point x="136" y="59"/>
      <point x="172" y="59" type="curve" smooth="yes"/>
      <point x="209" y="59"/>
      <point x="238" y="70"/>
      <point x="261" y="91" type="curve" smooth="yes"/>
      <point x="284" y="112"/>
      <point x="300" y="143"/>
      <point x="309" y="186" type="curve" smooth="yes"/>
      <point x="316" y="223"/>
      <point x="314" y="252"/>
      <point x="302" y="271" type="curve" smooth="yes"/>
      <point x="289" y="290"/>
      <point x="264" y="309"/>
      <point x="227" y="326" type="curve" smooth="yes"/>
      <point x="189" y="342" type="line" smooth="yes"/>
      <point x="146" y="361"/>
      <point x="117" y="384"/>
      <point x="100" y="413" type="curve" smooth="yes"/>
      <point x="83" y="442"/>
      <point x="79" y="480"/>
      <point x="89" y="528" type="curve" smooth="yes"/>
      <point x="101" y="585"/>
      <point x="127" y="631"/>
      <point x="166" y="666" type="curve" smooth="yes"/>
      <point x="205" y="700"/>
      <point x="253" y="717"/>
      <point x="310" y="717" type="curve" smooth="yes"/>
      <point x="364" y="717"/>
      <point x="403" y="701"/>
      <point x="428" y="670" type="curve" smooth="yes"/>
      <point x="453" y="638"/>
      <point x="460" y="590"/>
      <point x="449" y="526" type="curve"/>
      <point x="379" y="526" type="line"/>
      <point x="386" y="574"/>
      <point x="380" y="609"/>
      <point x="360" y="629" type="curve" smooth="yes"/>
      <point x="345" y="643"/>
      <point x="324" y="650"/>
      <point x="295" y="650" type="curve" smooth="yes"/>
      <point x="260" y="650"/>
      <point x="231" y="640"/>
      <point x="209" y="620" type="curve" smooth="yes"/>
      <point x="187" y="599"/>
      <point x="172" y="570"/>
      <point x="165" y="532" type="curve" smooth="yes"/>
      <point x="158" y="499"/>
      <point x="160" y="473"/>
      <point x="172" y="454" type="curve" smooth="yes"/>
      <point x="184" y="435"/>
      <point x="208" y="417"/>
      <point x="244" y="402" type="curve" smooth="yes"/>
      <point x="282" y="386" type="line" smooth="yes"/>
      <point x="325" y="367"/>
      <point x="356" y="343"/>
      <point x="374" y="313" type="curve" smooth="yes"/>
      <point x="391" y="283"/>
      <point x="394" y="241"/>
      <point x="383" y="187" type="curve" smooth="yes"/>
      <point x="370" y="125"/>
      <point x="345" y="77"/>
      <point x="306" y="44" type="curve" smooth="yes"/>
      <point x="267" y="10"/>
      <point x="217" y="-7"/>
      <point x="156" y="-7" type="curve" smooth="yes"/>
      <point x="96" y="-7"/>
      <point x="54" y="10"/>
      <point x="30" y="44" type="curve" smooth="yes"/>
      <point x="6" y="78"/>
      <point x="0" y="128"/>
    </contour>
  </outline>
</glyph>
<glyph name="T" format="2">
  <advance width="376"/>
  <unicode hex="0054"/>
  <outline>
    <contour>
      <point x="97" y="0" type="line"/>
      <point x="170" y="0" type="line"/>
      <point x="303" y="640" type="line"/>
      <point x="449" y="640" type="line"/>
      <point x="463" y="707" type="line"/>
      <point x="98" y="707" type="line"/>
      <point x="84" y="640" type="line"/>
      <point x="230" y="640" type="line"/>
    </contour>
  </outline>
</glyph>
<glyph name="V" format="2">
  <advance width="433"/>
  <unicode hex="0056"/>
  <outline>
    <contour>
      <point x="126" y="0" type="line"/>
      <point x="198" y="0" type="line"/>
      <point x="516" y="707" type="line"/>
      <point x="436" y="707" type="line"/>
      <point x="186" y="117" type="line"/>
      <point x="181" y="707" type="line"/>
      <point x="101" y="707" type="line"/>
    </contour>
  </outline>
</glyph>
<glyph name="W" format="2">
  <advance width="670"/>
  <unicode hex="0057"/>
  <outline>
    <contour>
      <point x="754" y="707" type="line"/>
      <point x="469" y="0" type="line"/>
      <point x="389" y="0" type="line"/>
      <point x="405" y="596" type="line"/>
      <point x="173" y="0" type="line"/>
      <point x="93" y="0" type="line"/>
      <point x="101" y="707" type="line"/>
      <point x="179" y="707" type="line"/>
      <point x="158" y="113" type="line"/>
      <point x="381" y="707" type="line"/>
      <point x="479" y="707" type="line"/>
      <point x="456" y="113" type="line"/>
      <point x="680" y="707" type="line"/>
    </contour>
  </outline>
</glyph>
<glyph name="Y" format="2">
  <advance width="401"/>
  <unicode hex="0059"/>
  <outline>
    <contour>
      <point x="109" y="0" type="line"/>
      <point x="183" y="0" type="line"/>
      <point x="244" y="294" type="line"/>
      <point x="484" y="707" type="line"/>
      <point x="402" y="707" type="line"/>
      <point x="226" y="383" type="line"/>
      <point x="183" y="707" type="line"/>
      <point x="101" y="707" type="line"/>
      <point x="170" y="294" type="line"/>
    </contour>
  </outline>
</glyph>
<glyph name="bracketright" format="2">
  <advance width="258"/>
  <unicode hex="005D"/>
  <outline>
    <contour>
      <point x="-22" y="-86" type="line"/>
      <point x="124" y="-86" type="line"/>
      <point x="300" y="758" type="line"/>
      <point x="154" y="758" type="line"/>
      <point x="140" y="691" type="line"/>
      <point x="215" y="691" type="line"/>
      <point x="67" y="-19" type="line"/>
      <point x="-8" y="-19" type="line"/>
    </contour>
  </outline>
</glyph>
<glyph name="underscore" format="2">
  <advance width="425"/>
  <unicode hex="005F"/>
  <outline>
    <contour>
      <point x="-77" y="-106" type="line"/>
      <point x="349" y="-106" type="line"/>
      <point x="360" y="-55" type="line"/>
      <point x="-66" y="-55" type="line"/>
    </contour>
  </outline>
</glyph>
<glyph name="grave" format="2">
  <advance width="513"/>
  <unicode hex="0060"/>
  <outline>
    <contour>
      <point x="343" y="590" type="line"/>
      <point x="401" y="590" type="line"/>
      <point x="335" y="722" type="line"/>
      <point x="259" y="722" type="line"/>
    </contour>
  </outline>
</glyph>
<glyph name="b" format="2">
  <advance width="421"/>
  <unicode hex="0062"/>
  <outline>
    <contour>
      <point x="174" y="-8" type="curve" smooth="yes"/>
      <point x="216" y="-8"/>
      <point x="253" y="7"/>
      <point x="285" y="37" type="curve" smooth="yes"/>
      <point x="317" y="66"/>
      <point x="339" y="111"/>
      <point x="352" y="172" type="curve" smooth="yes"/>
      <point x="390" y="357" type="line" smooth="yes"/>
      <point x="403" y="418"/>
      <point x="399" y="464"/>
      <point x="380" y="494" type="curve" smooth="yes"/>
      <point x="360" y="523"/>
      <point x="329" y="538"/>
      <point x="287" y="538" type="curve" smooth="yes"/>
      <point x="244" y="537"/>
      <point x="206" y="517"/>
      <point x="174" y="478" type="curve"/>
      <point x="222" y="707" type="line"/>
      <point x="152" y="707" type="line"/>
      <point x="5" y="0" type="line"/>
      <point x="75" y="0" type="line"/>
      <point x="85" y="48" type="line"/>
      <point x="100" y="11"/>
      <point x="130" y="-8"/>
    </contour>
    <contour>
      <point x="116" y="86" type="curve" smooth="yes"/>
      <point x="105" y="107"/>
      <point x="104" y="138"/>
      <point x="112" y="179" type="curve" smooth="yes"/>
      <point x="147" y="348" type="line" smooth="yes"/>
      <point x="156" y="390"/>
      <point x="170" y="422"/>
      <point x="190" y="443" type="curve" smooth="yes"/>
      <point x="209" y="464"/>
      <point x="233" y="475"/>
      <point x="262" y="475" type="curve" smooth="yes"/>
      <point x="280" y="475"/>
      <point x="294" y="471"/>
      <point x="305" y="462" type="curve" smooth="yes"/>
      <point x="326" y="443"/>
      <point x="331" y="406"/>
      <point x="319" y="349" type="curve" smooth="yes"/>
      <point x="283" y="180" type="line" smooth="yes"/>
      <point x="274" y="135"/>
      <point x="261" y="103"/>
      <point x="243" y="84" type="curve" smooth="yes"/>
      <point x="224" y="64"/>
      <point x="201" y="54"/>
      <point x="174" y="54" type="curve" smooth="yes"/>
      <point x="145" y="54"/>
      <point x="126" y="65"/>
    </contour>
  </outline>
</glyph>
<glyph name="e" format="2">
  <advance width="417"/>
  <unicode hex="0065"/>
  <outline>
    <contour>
      <point x="117" y="244" type="line"/>
      <point x="104" y="181" type="line" smooth="yes"/>
      <point x="94" y="134"/>
      <point x="95" y="101"/>
      <point x="107" y="82" type="curve" smooth="yes"/>
      <point x="119" y="62"/>
      <point x="140" y="52"/>
      <point x="169" y="52" type="curve" smooth="yes"/>
      <point x="225" y="52"/>
      <point x="260" y="87"/>
      <point x="275" y="158" type="curve" smooth="yes"/>
      <point x="276" y="162" type="line"/>
      <point x="345" y="162" type="line"/>
      <point x="344" y="159" type="line"/>
      <point x="333" y="104"/>
      <point x="311" y="62"/>
      <point x="278" y="34" type="curve" smooth="yes"/>
      <point x="245" y="6"/>
      <point x="203" y="-8"/>
      <point x="154" y="-8" type="curve" smooth="yes"/>
      <point x="109" y="-8"/>
      <point x="75" y="3"/>
      <point x="54" y="26" type="curve" smooth="yes"/>
      <point x="25" y="57"/>
      <point x="18" y="108"/>
      <point x="33" y="180" type="curve" smooth="yes"/>
      <point x="69" y="351" type="line" smooth="yes"/>
      <point x="82" y="412"/>
      <point x="105" y="459"/>
      <point x="140" y="491" type="curve" smooth="yes"/>
      <point x="174" y="522"/>
      <point x="216" y="538"/>
      <point x="265" y="538" type="curve" smooth="yes"/>
      <point x="314" y="538"/>
      <point x="350" y="522"/>
      <point x="372" y="491" type="curve" smooth="yes"/>
      <point x="393" y="459"/>
      <point x="398" y="412"/>
      <point x="385" y="351" type="curve" smooth="yes"/>
      <point x="363" y="244" type="line"/>
    </contour>
    <contour>
      <point x="139" y="349" type="curve" smooth="yes"/>
      <point x="128" y="297" type="line"/>
      <point x="305" y="297" type="line"/>
      <point x="316" y="351" type="line" smooth="yes"/>
      <point x="325" y="396"/>
      <point x="324" y="428"/>
      <point x="313" y="447" type="curve" smooth="yes"/>
      <point x="302" y="466"/>
      <point x="282" y="475"/>
      <point x="253" y="475" type="curve" smooth="yes"/>
      <point x="224" y="475"/>
      <point x="201" y="465"/>
      <point x="182" y="446" type="curve" smooth="yes"/>
      <point x="163" y="427"/>
      <point x="148" y="394"/>
    </contour>
  </outline>
</glyph>
<glyph name="g" format="2">
  <advance width="421"/>
  <unicode hex="0067"/>
  <outline>
    <contour>
      <point x="116" y="-166" type="curve" smooth="yes"/>
      <point x="169" y="-166"/>
      <point x="211" y="-150"/>
      <point x="244" y="-117" type="curve" smooth="yes"/>
      <point x="276" y="-84"/>
      <point x="298" y="-40"/>
      <point x="309" y="16" type="curve" smooth="yes"/>
      <point x="416" y="529" type="line"/>
      <point x="347" y="529" type="line"/>
      <point x="336" y="478" type="line"/>
      <point x="322" y="518"/>
      <point x="292" y="538"/>
      <point x="247" y="538" type="curve" smooth="yes"/>
      <point x="206" y="538"/>
      <point x="169" y="523"/>
      <point x="137" y="493" type="curve" smooth="yes"/>
      <point x="105" y="463"/>
      <point x="83" y="418"/>
      <point x="70" y="358" type="curve" smooth="yes"/>
      <point x="40" y="212" type="line" smooth="yes"/>
      <point x="27" y="152"/>
      <point x="31" y="107"/>
      <point x="51" y="78" type="curve" smooth="yes"/>
      <point x="70" y="48"/>
      <point x="101" y="33"/>
      <point x="142" y="33" type="curve" smooth="yes"/>
      <point x="187" y="33"/>
      <point x="225" y="51"/>
      <point x="255" y="88" type="curve"/>
      <point x="239" y="10" type="line" smooth="yes"/>
      <point x="231" y="-29"/>
      <point x="218" y="-57"/>
      <point x="201" y="-76" type="curve" smooth="yes"/>
      <point x="183" y="-95"/>
      <point x="159" y="-105"/>
      <point x="129" y="-105" type="curve" smooth="yes"/>
      <point x="104" y="-105"/>
      <point x="86" y="-98"/>
      <point x="75" y="-85" type="curve" smooth="yes"/>
      <point x="63" y="-72"/>
      <point x="59" y="-55"/>
      <point x="62" y="-32" type="curve"/>
      <point x="-5" y="-32" type="line"/>
      <point x="-12" y="-73"/>
      <point x="-6" y="-106"/>
      <point x="15" y="-130" type="curve" smooth="yes"/>
      <point x="36" y="-154"/>
      <point x="69" y="-166"/>
    </contour>
    <contour>
      <point x="113" y="124" type="curve" smooth="yes"/>
      <point x="103" y="143"/>
      <point x="103" y="175"/>
      <point x="112" y="220" type="curve" smooth="yes"/>
      <point x="139" y="350" type="line" smooth="yes"/>
      <point x="148" y="395"/>
      <point x="162" y="428"/>
      <point x="181" y="447" type="curve" smooth="yes"/>
      <point x="200" y="466"/>
      <point x="222" y="475"/>
      <point x="248" y="475" type="curve" smooth="yes"/>
      <point x="268" y="475"/>
      <point x="284" y="470"/>
      <point x="295" y="460" type="curve" smooth="yes"/>
      <point x="316" y="441"/>
      <point x="321" y="404"/>
      <point x="310" y="349" type="curve" smooth="yes"/>
      <point x="283" y="220" type="line" smooth="yes"/>
      <point x="274" y="179"/>
      <point x="260" y="148"/>
      <point x="241" y="127" type="curve" smooth="yes"/>
      <point x="222" y="106"/>
      <point x="198" y="95"/>
      <point x="169" y="95" type="curve" smooth="yes"/>
      <point x="142" y="95"/>
      <point x="123" y="105"/>
    </contour>
  </outline>
</glyph>
<glyph name="i" format="2">
  <advance width="203"/>
  <unicode hex="0069"/>
  <outline>
    <contour>
      <point x="12" y="0" type="line"/>
      <point x="81" y="0" type="line"/>
      <point x="191" y="529" type="line"/>
      <point x="122" y="529" type="line"/>
    </contour>
    <contour>
      <point x="139" y="613" type="line"/>
      <point x="209" y="613" type="line"/>
      <point x="229" y="706" type="line"/>
      <point x="159" y="706" type="line"/>
    </contour>
  </outline>
</glyph>
<glyph name="j" format="2">
  <advance width="199"/>
  <unicode hex="006A"/>
  <outline>
    <contour>
      <point x="-113" y="-156" type="line"/>
      <point x="-95" y="-156" type="line" smooth="yes"/>
      <point x="-50" y="-156"/>
      <point x="-12" y="-144"/>
      <point x="17" y="-120" type="curve" smooth="yes"/>
      <point x="46" y="-96"/>
      <point x="66" y="-61"/>
      <point x="75" y="-15" type="curve" smooth="yes"/>
      <point x="188" y="529" type="line"/>
      <point x="117" y="529" type="line"/>
      <point x="5" y="-12" type="line" smooth="yes"/>
      <point x="-6" y="-66"/>
      <point x="-35" y="-93"/>
      <point x="-84" y="-93" type="curve" smooth="yes"/>
      <point x="-100" y="-93" type="line"/>
    </contour>
    <contour>
      <point x="134" y="613" type="line"/>
      <point x="205" y="613" type="line"/>
      <point x="225" y="706" type="line"/>
      <point x="154" y="706" type="line"/>
    </contour>
  </outline>
</glyph>
<glyph name="k" format="2">
  <advance width="418"/>
  <unicode hex="006B"/>
  <outline>
    <contour>
      <point x="5" y="0" type="line"/>
      <point x="75" y="0" type="line"/>
      <point x="108" y="157" type="line"/>
      <point x="201" y="262" type="line"/>
      <point x="269" y="0" type="line"/>
      <point x="348" y="0" type="line"/>
      <point x="258" y="326" type="line"/>
      <point x="439" y="529" type="line"/>
      <point x="362" y="529" type="line"/>
      <point x="128" y="254" type="line"/>
      <point x="222" y="707" type="line"/>
      <point x="152" y="707" type="line"/>
    </contour>
  </outline>
</glyph>
<glyph name="l" format="2">
  <advance width="239"/>
  <unicode hex="006C"/>
  <outline>
    <contour>
      <point x="147" y="0" type="curve" smooth="yes"/>
      <point x="164" y="0" type="line"/>
      <point x="177" y="62" type="line"/>
      <point x="162" y="62" type="line" smooth="yes"/>
      <point x="140" y="62"/>
      <point x="124" y="67"/>
      <point x="115" y="78" type="curve" smooth="yes"/>
      <point x="103" y="92"/>
      <point x="100" y="113"/>
      <point x="106" y="143" type="curve" smooth="yes"/>
      <point x="223" y="707" type="line"/>
      <point x="152" y="707" type="line"/>
      <point x="34" y="140" type="line" smooth="yes"/>
      <point x="25" y="95"/>
      <point x="30" y="60"/>
      <point x="49" y="36" type="curve" smooth="yes"/>
      <point x="68" y="12"/>
      <point x="101" y="0"/>
    </contour>
  </outline>
</glyph>
<glyph name="m" format="2">
  <advance width="661"/>
  <unicode hex="006D"/>
  <outline>
    <contour>
      <point x="5" y="0" type="line"/>
      <point x="76" y="0" type="line"/>
      <point x="155" y="380" type="line" smooth="yes"/>
      <point x="161" y="410"/>
      <point x="173" y="433"/>
      <point x="192" y="450" type="curve" smooth="yes"/>
      <point x="211" y="467"/>
      <point x="232" y="475"/>
      <point x="257" y="475" type="curve" smooth="yes"/>
      <point x="282" y="475"/>
      <point x="301" y="467"/>
      <point x="312" y="450" type="curve" smooth="yes"/>
      <point x="323" y="433"/>
      <point x="326" y="410"/>
      <point x="320" y="380" type="curve" smooth="yes"/>
      <point x="241" y="0" type="line"/>
      <point x="311" y="0" type="line"/>
      <point x="390" y="381" type="line" smooth="yes"/>
      <point x="396" y="410"/>
      <point x="409" y="433"/>
      <point x="428" y="450" type="curve" smooth="yes"/>
      <point x="447" y="467"/>
      <point x="469" y="475"/>
      <point x="494" y="475" type="curve" smooth="yes"/>
      <point x="518" y="475"/>
      <point x="536" y="467"/>
      <point x="547" y="451" type="curve" smooth="yes"/>
      <point x="558" y="434"/>
      <point x="561" y="411"/>
      <point x="554" y="380" type="curve" smooth="yes"/>
      <point x="475" y="0" type="line"/>
      <point x="546" y="0" type="line"/>
      <point x="626" y="383" type="line" smooth="yes"/>
      <point x="636" y="432"/>
      <point x="632" y="471"/>
      <point x="615" y="498" type="curve" smooth="yes"/>
      <point x="598" y="525"/>
      <point x="566" y="538"/>
      <point x="521" y="538" type="curve" smooth="yes"/>
      <point x="496" y="538"/>
      <point x="473" y="532"/>
      <point x="450" y="521" type="curve" smooth="yes"/>
      <point x="427" y="509"/>
      <point x="407" y="492"/>
      <point x="390" y="471" type="curve"/>
      <point x="383" y="492"/>
      <point x="370" y="508"/>
      <point x="353" y="520" type="curve" smooth="yes"/>
      <point x="336" y="532"/>
      <point x="314" y="538"/>
      <point x="289" y="538" type="curve" smooth="yes"/>
      <point x="267" y="538"/>
      <point x="246" y="533"/>
      <point x="225" y="523" type="curve" smooth="yes"/>
      <point x="204" y="512"/>
      <point x="187" y="498"/>
      <point x="174" y="481" type="curve"/>
      <point x="184" y="529" type="line"/>
      <point x="115" y="529" type="line"/>
    </contour>
  </outline>
</glyph>
<glyph name="n" format="2">
  <advance width="425"/>
  <unicode hex="006E"/>
  <outline>
    <contour>
      <point x="5" y="0" type="line"/>
      <point x="75" y="0" type="line"/>
      <point x="154" y="380" type="line" smooth="yes"/>
      <point x="160" y="410"/>
      <point x="173" y="433"/>
      <point x="192" y="450" type="curve" smooth="yes"/>
      <point x="211" y="467"/>
      <point x="232" y="475"/>
      <point x="257" y="475" type="curve" smooth="yes"/>
      <point x="282" y="475"/>
      <point x="301" y="467"/>
      <point x="313" y="451" type="curve" smooth="yes"/>
      <point x="324" y="434"/>
      <point x="327" y="411"/>
      <point x="320" y="380" type="curve" smooth="yes"/>
      <point x="241" y="0" type="line"/>
      <point x="311" y="0" type="line"/>
      <point x="391" y="383" type="line" smooth="yes"/>
      <point x="401" y="432"/>
      <point x="397" y="470"/>
      <point x="379" y="497" type="curve" smooth="yes"/>
      <point x="361" y="524"/>
      <point x="331" y="538"/>
      <point x="289" y="538" type="curve" smooth="yes"/>
      <point x="267" y="538"/>
      <point x="246" y="533"/>
      <point x="225" y="523" type="curve" smooth="yes"/>
      <point x="204" y="512"/>
      <point x="186" y="498"/>
      <point x="173" y="481" type="curve"/>
      <point x="183" y="529" type="line"/>
      <point x="115" y="529" type="line"/>
    </contour>
  </outline>
</glyph>
<glyph name="o" format="2">
  <advance width="418"/>
  <unicode hex="006F"/>
  <outline>
    <contour>
      <point x="154" y="-8" type="curve" smooth="yes"/>
      <point x="203" y="-8"/>
      <point x="245" y="7"/>
      <point x="279" y="36" type="curve" smooth="yes"/>
      <point x="313" y="65"/>
      <point x="336" y="111"/>
      <point x="349" y="172" type="curve" smooth="yes"/>
      <point x="387" y="357" type="line" smooth="yes"/>
      <point x="400" y="419"/>
      <point x="396" y="465"/>
      <point x="375" y="494" type="curve" smooth="yes"/>
      <point x="353" y="523"/>
      <point x="317" y="538"/>
      <point x="268" y="538" type="curve" smooth="yes"/>
      <point x="217" y="538"/>
      <point x="175" y="523"/>
      <point x="141" y="494" type="curve" smooth="yes"/>
      <point x="107" y="465"/>
      <point x="83" y="419"/>
      <point x="70" y="357" type="curve" smooth="yes"/>
      <point x="32" y="172" type="line" smooth="yes"/>
      <point x="19" y="110"/>
      <point x="23" y="65"/>
      <point x="45" y="36" type="curve" smooth="yes"/>
      <point x="67" y="7"/>
      <point x="103" y="-8"/>
    </contour>
    <contour>
      <point x="106" y="83" type="curve" smooth="yes"/>
      <point x="95" y="102"/>
      <point x="94" y="134"/>
      <point x="103" y="180" type="curve" smooth="yes"/>
      <point x="139" y="349" type="line" smooth="yes"/>
      <point x="148" y="395"/>
      <point x="163" y="428"/>
      <point x="182" y="447" type="curve" smooth="yes"/>
      <point x="201" y="466"/>
      <point x="225" y="475"/>
      <point x="254" y="475" type="curve" smooth="yes"/>
      <point x="283" y="475"/>
      <point x="303" y="465"/>
      <point x="314" y="446" type="curve" smooth="yes"/>
      <point x="325" y="427"/>
      <point x="325" y="394"/>
      <point x="316" y="349" type="curve" smooth="yes"/>
      <point x="280" y="180" type="line" smooth="yes"/>
      <point x="271" y="135"/>
      <point x="257" y="103"/>
      <point x="238" y="84" type="curve" smooth="yes"/>
      <point x="219" y="64"/>
      <point x="195" y="54"/>
      <point x="166" y="54" type="curve" smooth="yes"/>
      <point x="137" y="54"/>
      <point x="117" y="64"/>
    </contour>
  </outline>
</glyph>
<glyph name="q" format="2">
  <advance width="421"/>
  <unicode hex="0071"/>
  <outline>
    <contour>
      <point x="247" y="47" type="line"/>
      <point x="216" y="10"/>
      <point x="178" y="-8"/>
      <point x="133" y="-8" type="curve" smooth="yes"/>
      <point x="92" y="-8"/>
      <point x="61" y="7"/>
      <point x="42" y="37" type="curve" smooth="yes"/>
      <point x="23" y="66"/>
      <point x="19" y="111"/>
      <point x="32" y="172" type="curve" smooth="yes"/>
      <point x="70" y="357" type="line" smooth="yes"/>
      <point x="83" y="418"/>
      <point x="105" y="463"/>
      <point x="137" y="493" type="curve" smooth="yes"/>
      <point x="169" y="523"/>
      <point x="206" y="538"/>
      <point x="248" y="538" type="curve" smooth="yes"/>
      <point x="292" y="538"/>
      <point x="321" y="518"/>
      <point x="336" y="478" type="curve"/>
      <point x="347" y="529" type="line"/>
      <point x="416" y="529" type="line"/>
      <point x="274" y="-156" type="line"/>
      <point x="205" y="-156" type="line"/>
    </contour>
    <contour>
      <point x="274" y="179" type="curve" smooth="yes"/>
      <point x="309" y="348" type="line" smooth="yes"/>
      <point x="321" y="403"/>
      <point x="316" y="441"/>
      <point x="295" y="460" type="curve" smooth="yes"/>
      <point x="284" y="470"/>
      <point x="268" y="475"/>
      <point x="248" y="475" type="curve" smooth="yes"/>
      <point x="193" y="475"/>
      <point x="156" y="433"/>
      <point x="139" y="349" type="curve" smooth="yes"/>
      <point x="103" y="180" type="line" smooth="yes"/>
      <point x="94" y="135"/>
      <point x="94" y="102"/>
      <point x="104" y="83" type="curve" smooth="yes"/>
      <point x="114" y="64"/>
      <point x="133" y="54"/>
      <point x="160" y="54" type="curve" smooth="yes"/>
      <point x="189" y="54"/>
      <point x="213" y="65"/>
      <point x="233" y="86" type="curve" smooth="yes"/>
      <point x="252" y="107"/>
      <point x="266" y="138"/>
    </contour>
  </outline>
</glyph>
<glyph name="r" format="2">
  <advance width="296"/>
  <unicode hex="0072"/>
  <outline>
    <contour>
      <point x="5" y="0" type="line"/>
      <point x="75" y="0" type="line"/>
      <point x="153" y="376" type="line" smooth="yes"/>
      <point x="160" y="407"/>
      <point x="174" y="431"/>
      <point x="195" y="449" type="curve" smooth="yes"/>
      <point x="216" y="466"/>
      <point x="241" y="475"/>
      <point x="269" y="475" type="curve" smooth="yes"/>
      <point x="284" y="475"/>
      <point x="301" y="472"/>
      <point x="318" y="466" type="curve"/>
      <point x="332" y="534" type="line"/>
      <point x="323" y="537"/>
      <point x="311" y="538"/>
      <point x="296" y="538" type="curve" smooth="yes"/>
      <point x="272" y="538"/>
      <point x="249" y="533"/>
      <point x="228" y="523" type="curve" smooth="yes"/>
      <point x="207" y="513"/>
      <point x="188" y="498"/>
      <point x="172" y="477" type="curve"/>
      <point x="183" y="529" type="line"/>
      <point x="115" y="529" type="line"/>
    </contour>
  </outline>
</glyph>
<glyph name="t" format="2">
  <advance width="302"/>
  <unicode hex="0074"/>
  <outline>
    <contour>
      <point x="209" y="475" type="line"/>
      <point x="140" y="142" type="line" smooth="yes"/>
      <point x="134" y="115"/>
      <point x="136" y="94"/>
      <point x="147" y="81" type="curve" smooth="yes"/>
      <point x="157" y="68"/>
      <point x="175" y="61"/>
      <point x="202" y="61" type="curve" smooth="yes"/>
      <point x="216" y="61" type="line"/>
      <point x="203" y="0" type="line"/>
      <point x="186" y="0" type="line" smooth="yes"/>
      <point x="137" y="0"/>
      <point x="102" y="12"/>
      <point x="83" y="36" type="curve" smooth="yes"/>
      <point x="65" y="59"/>
      <point x="60" y="94"/>
      <point x="69" y="139" type="curve" smooth="yes"/>
      <point x="139" y="475" type="line"/>
      <point x="72" y="475" type="line"/>
      <point x="83" y="529" type="line"/>
      <point x="150" y="529" type="line"/>
      <point x="173" y="640" type="line"/>
      <point x="250" y="672" type="line"/>
      <point x="220" y="529" type="line"/>
      <point x="321" y="529" type="line"/>
      <point x="310" y="475" type="line"/>
    </contour>
  </outline>
</glyph>
<glyph name="v" format="2">
  <advance width="379"/>
  <unicode hex="0076"/>
  <outline>
    <contour>
      <point x="70" y="529" type="line"/>
      <point x="146" y="529" type="line"/>
      <point x="158" y="111" type="line"/>
      <point x="344" y="529" type="line"/>
      <point x="420" y="529" type="line"/>
      <point x="169" y="0" type="line"/>
      <point x="100" y="0" type="line"/>
    </contour>
  </outline>
</glyph>
<glyph name="w" format="2">
  <advance width="590"/>
  <unicode hex="0077"/>
  <outline>
    <contour>
      <point x="70" y="529" type="line"/>
      <point x="146" y="529" type="line"/>
      <point x="140" y="113" type="line"/>
      <point x="319" y="529" type="line"/>
      <point x="379" y="529" type="line"/>
      <point x="388" y="113" type="line"/>
      <point x="554" y="529" type="line"/>
      <point x="630" y="529" type="line"/>
      <point x="399" y="0" type="line"/>
      <point x="332" y="0" type="line"/>
      <point x="322" y="400" type="line"/>
      <point x="148" y="0" type="line"/>
      <point x="80" y="0" type="line"/>
    </contour>
  </outline>
</glyph>
<glyph name="y" format="2">
  <advance width="379"/>
  <unicode hex="0079"/>
  <outline>
    <contour>
      <point x="-42" y="-158" type="line"/>
      <point x="-32" y="-158" type="line" smooth="yes"/>
      <point x="11" y="-158"/>
      <point x="47" y="-150"/>
      <point x="75" y="-133" type="curve" smooth="yes"/>
      <point x="103" y="-117"/>
      <point x="126" y="-89"/>
      <point x="145" y="-50" type="curve" smooth="yes"/>
      <point x="420" y="529" type="line"/>
      <point x="344" y="529" type="line"/>
      <point x="162" y="125" type="line"/>
      <point x="146" y="529" type="line"/>
      <point x="70" y="529" type="line"/>
      <point x="102" y="-12" type="line"/>
      <point x="94" y="-29" type="line" smooth="yes"/>
      <point x="83" y="-53"/>
      <point x="69" y="-70"/>
      <point x="53" y="-80" type="curve" smooth="yes"/>
      <point x="36" y="-90"/>
      <point x="15" y="-95"/>
      <point x="-12" y="-95" type="curve" smooth="yes"/>
      <point x="-29" y="-95" type="line"/>
    </contour>
  </outline>
</glyph>
<glyph name="z" format="2">
  <advance width="385"/>
  <unicode hex="007A"/>
  <outline>
    <contour>
      <point x="-4" y="0" type="line"/>
      <point x="279" y="0" type="line"/>
      <point x="292" y="63" type="line"/>
      <point x="84" y="63" type="line"/>
      <point x="376" y="466" type="line"/>
      <point x="389" y="529" type="line"/>
      <point x="106" y="529" type="line"/>
      <point x="93" y="466" type="line"/>
      <point x="301" y="466" type="line"/>
      <point x="9" y="63" type="line"/>
    </contour>
  </outline>
</glyph>
<glyph name="braceleft" format="2">
  <advance width="314"/>
  <unicode hex="007B"/>
  <outline>
    <contour>
      <point x="150" y="-86" type="curve" smooth="yes"/>
      <point x="190" y="-86" type="line"/>
      <point x="204" y="-19" type="line"/>
      <point x="179" y="-19" type="line" smooth="yes"/>
      <point x="166" y="-19"/>
      <point x="156" y="-16"/>
      <point x="150" y="-9" type="curve" smooth="yes"/>
      <point x="142" y="-1"/>
      <point x="140" y="13"/>
      <point x="144" y="31" type="curve" smooth="yes"/>
      <point x="182" y="210" type="line" smooth="yes"/>
      <point x="190" y="250"/>
      <point x="192" y="279"/>
      <point x="188" y="297" type="curve" smooth="yes"/>
      <point x="183" y="315"/>
      <point x="170" y="329"/>
      <point x="149" y="339" type="curve"/>
      <point x="174" y="348"/>
      <point x="193" y="361"/>
      <point x="205" y="380" type="curve" smooth="yes"/>
      <point x="217" y="398"/>
      <point x="227" y="427"/>
      <point x="235" y="467" type="curve" smooth="yes"/>
      <point x="271" y="641" type="line" smooth="yes"/>
      <point x="278" y="674"/>
      <point x="297" y="691"/>
      <point x="327" y="691" type="curve" smooth="yes"/>
      <point x="352" y="691" type="line"/>
      <point x="366" y="758" type="line"/>
      <point x="326" y="758" type="line" smooth="yes"/>
      <point x="291" y="758"/>
      <point x="263" y="748"/>
      <point x="242" y="729" type="curve" smooth="yes"/>
      <point x="221" y="710"/>
      <point x="206" y="681"/>
      <point x="197" y="642" type="curve" smooth="yes"/>
      <point x="158" y="451" type="line" smooth="yes"/>
      <point x="152" y="422"/>
      <point x="143" y="402"/>
      <point x="130" y="390" type="curve" smooth="yes"/>
      <point x="117" y="378"/>
      <point x="98" y="372"/>
      <point x="73" y="371" type="curve"/>
      <point x="60" y="306" type="line"/>
      <point x="85" y="305"/>
      <point x="101" y="299"/>
      <point x="109" y="287" type="curve" smooth="yes"/>
      <point x="116" y="275"/>
      <point x="117" y="255"/>
      <point x="111" y="228" type="curve" smooth="yes"/>
      <point x="70" y="30" type="line" smooth="yes"/>
      <point x="62" y="-9"/>
      <point x="65" y="-38"/>
      <point x="78" y="-57" type="curve" smooth="yes"/>
      <point x="91" y="-76"/>
      <point x="115" y="-86"/>
    </contour>
  </outline>
</glyph>
<glyph name="braceright" format="2">
  <advance width="314"/>
  <unicode hex="007D"/>
  <outline>
    <contour>
      <point x="-22" y="-86" type="line"/>
      <point x="18" y="-86" type="line" smooth="yes"/>
      <point x="53" y="-86"/>
      <point x="82" y="-76"/>
      <point x="103" y="-57" type="curve" smooth="yes"/>
      <point x="124" y="-38"/>
      <point x="139" y="-9"/>
      <point x="147" y="30" type="curve" smooth="yes"/>
      <point x="188" y="228" type="line" smooth="yes"/>
      <point x="194" y="255"/>
      <point x="203" y="275"/>
      <point x="215" y="287" type="curve" smooth="yes"/>
      <point x="227" y="299"/>
      <point x="246" y="305"/>
      <point x="272" y="306" type="curve"/>
      <point x="285" y="371" type="line"/>
      <point x="260" y="372"/>
      <point x="244" y="378"/>
      <point x="237" y="390" type="curve" smooth="yes"/>
      <point x="230" y="402"/>
      <point x="229" y="422"/>
      <point x="235" y="451" type="curve" smooth="yes"/>
      <point x="274" y="642" type="line" smooth="yes"/>
      <point x="283" y="681"/>
      <point x="280" y="710"/>
      <point x="267" y="729" type="curve" smooth="yes"/>
      <point x="254" y="748"/>
      <point x="229" y="758"/>
      <point x="194" y="758" type="curve" smooth="yes"/>
      <point x="154" y="758" type="line"/>
      <point x="140" y="691" type="line"/>
      <point x="165" y="691" type="line" smooth="yes"/>
      <point x="178" y="691"/>
      <point x="188" y="688"/>
      <point x="194" y="681" type="curve" smooth="yes"/>
      <point x="201" y="673"/>
      <point x="203" y="659"/>
      <point x="199" y="641" type="curve" smooth="yes"/>
      <point x="163" y="467" type="line" smooth="yes"/>
      <point x="155" y="427"/>
      <point x="153" y="398"/>
      <point x="157" y="380" type="curve" smooth="yes"/>
      <point x="160" y="361"/>
      <point x="173" y="348"/>
      <point x="195" y="339" type="curve"/>
      <point x="169" y="329"/>
      <point x="150" y="315"/>
      <point x="139" y="297" type="curve" smooth="yes"/>
      <point x="128" y="279"/>
      <point x="118" y="250"/>
      <point x="110" y="210" type="curve" smooth="yes"/>
      <point x="72" y="31" type="line" smooth="yes"/>
      <point x="65" y="-2"/>
      <point x="47" y="-19"/>
      <point x="17" y="-19" type="curve" smooth="yes"/>
      <point x="-8" y="-19" type="line"/>
    </contour>
  </outline>
</glyph>
<glyph name="asciitilde" format="2">
  <advance width="430"/>
  <unicode hex="007E"/>
  <outline>
    <contour>
      <point x="86" y="218" type="line"/>
      <point x="98" y="240"/>
      <point x="109" y="255"/>
      <point x="119" y="262" type="curve" smooth="yes"/>
      <point x="128" y="269"/>
      <point x="139" y="273"/>
      <point x="151" y="273" type="curve" smooth="yes"/>
      <point x="164" y="274"/>
      <point x="181" y="266"/>
      <point x="204" y="251" type="curve" smooth="yes"/>
      <point x="219" y="242"/>
      <point x="232" y="234"/>
      <point x="244" y="229" type="curve" smooth="yes"/>
      <point x="256" y="224"/>
      <point x="269" y="221"/>
      <point x="284" y="221" type="curve" smooth="yes"/>
      <point x="309" y="221"/>
      <point x="330" y="228"/>
      <point x="349" y="243" type="curve" smooth="yes"/>
      <point x="367" y="258"/>
      <point x="384" y="281"/>
      <point x="399" y="313" type="curve"/>
      <point x="344" y="347" type="line"/>
      <point x="332" y="324"/>
      <point x="322" y="309"/>
      <point x="313" y="302" type="curve" smooth="yes"/>
      <point x="304" y="295"/>
      <point x="293" y="291"/>
      <point x="280" y="291" type="curve" smooth="yes"/>
      <point x="272" y="291"/>
      <point x="264" y="293"/>
      <point x="257" y="296" type="curve" smooth="yes"/>
      <point x="249" y="299"/>
      <point x="239" y="305"/>
      <point x="226" y="313" type="curve" smooth="yes"/>
      <point x="211" y="324"/>
      <point x="197" y="332"/>
      <point x="186" y="337" type="curve" smooth="yes"/>
      <point x="174" y="342"/>
      <point x="161" y="344"/>
      <point x="146" y="344" type="curve" smooth="yes"/>
      <point x="123" y="344"/>
      <point x="102" y="337"/>
      <point x="83" y="322" type="curve" smooth="yes"/>
      <point x="64" y="307"/>
      <point x="46" y="283"/>
      <point x="31" y="252" type="curve"/>
    </contour>
  </outline>
</glyph>
<glyph name="cent" format="2">
  <advance width="418"/>
  <unicode hex="00A2"/>
  <outline>
    <contour>
      <point x="110" y="-102" type="line"/>
      <point x="165" y="-102" type="line"/>
      <point x="185" y="-6" type="line"/>
      <point x="226" y="-1"/>
      <point x="260" y="16"/>
      <point x="289" y="44" type="curve" smooth="yes"/>
      <point x="317" y="72"/>
      <point x="336" y="111"/>
      <point x="347" y="162" type="curve" smooth="yes"/>
      <point x="349" y="175" type="line"/>
      <point x="279" y="175" type="line"/>
      <point x="276" y="161" type="line" smooth="yes"/>
      <point x="264" y="103"/>
      <point x="238" y="69"/>
      <point x="198" y="58" type="curve"/>
      <point x="284" y="471" type="line"/>
      <point x="320" y="462"/>
      <point x="332" y="428"/>
      <point x="320" y="369" type="curve" smooth="yes"/>
      <point x="317" y="354" type="line"/>
      <point x="387" y="354" type="line"/>
      <point x="390" y="369" type="line" smooth="yes"/>
      <point x="400" y="419"/>
      <point x="397" y="458"/>
      <point x="381" y="486" type="curve" smooth="yes"/>
      <point x="364" y="514"/>
      <point x="336" y="531"/>
      <point x="297" y="536" type="curve"/>
      <point x="316" y="627" type="line"/>
      <point x="261" y="627" type="line"/>
      <point x="243" y="537" type="line"/>
      <point x="199" y="532"/>
      <point x="162" y="515"/>
      <point x="133" y="486" type="curve" smooth="yes"/>
      <point x="103" y="457"/>
      <point x="82" y="414"/>
      <point x="70" y="357" type="curve" smooth="yes"/>
      <point x="32" y="172" type="line" smooth="yes"/>
      <point x="18" y="106"/>
      <point x="25" y="58"/>
      <point x="52" y="28" type="curve" smooth="yes"/>
      <point x="69" y="9"/>
      <point x="95" y="-3"/>
      <point x="130" y="-7" type="curve"/>
    </contour>
    <contour>
      <point x="143" y="56" type="line"/>
      <point x="123" y="61"/>
      <point x="110" y="73"/>
      <point x="103" y="93" type="curve" smooth="yes"/>
      <point x="96" y="113"/>
      <point x="96" y="142"/>
      <point x="103" y="180" type="curve" smooth="yes"/>
      <point x="139" y="349" type="line" smooth="yes"/>
      <point x="147" y="388"/>
      <point x="159" y="417"/>
      <point x="174" y="437" type="curve" smooth="yes"/>
      <point x="189" y="456"/>
      <point x="207" y="468"/>
      <point x="229" y="473" type="curve"/>
    </contour>
  </outline>
</glyph>
<glyph name="sterling" format="2">
  <advance width="392"/>
  <unicode hex="00A3"/>
  <outline>
    <contour>
      <point x="-11" y="0" type="line"/>
      <point x="311" y="0" type="line"/>
      <point x="325" y="68" type="line"/>
      <point x="85" y="68" type="line"/>
      <point x="101" y="79"/>
      <point x="114" y="93"/>
      <point x="124" y="109" type="curve" smooth="yes"/>
      <point x="133" y="125"/>
      <point x="140" y="144"/>
      <point x="145" y="167" type="curve" smooth="yes"/>
      <point x="174" y="310" type="line"/>
      <point x="294" y="310" type="line"/>
      <point x="308" y="377" type="line"/>
      <point x="188" y="377" type="line"/>
      <point x="229" y="572" type="line" smooth="yes"/>
      <point x="240" y="624"/>
      <point x="265" y="650"/>
      <point x="306" y="650" type="curve" smooth="yes"/>
      <point x="326" y="650"/>
      <point x="340" y="643"/>
      <point x="347" y="629" type="curve" smooth="yes"/>
      <point x="354" y="614"/>
      <point x="354" y="591"/>
      <point x="347" y="558" type="curve"/>
      <point x="418" y="558" type="line"/>
      <point x="429" y="609"/>
      <point x="426" y="648"/>
      <point x="409" y="676" type="curve" smooth="yes"/>
      <point x="392" y="703"/>
      <point x="362" y="717"/>
      <point x="318" y="717" type="curve" smooth="yes"/>
      <point x="274" y="717"/>
      <point x="238" y="703"/>
      <point x="209" y="675" type="curve" smooth="yes"/>
      <point x="180" y="646"/>
      <point x="160" y="607"/>
      <point x="150" y="556" type="curve" smooth="yes"/>
      <point x="112" y="377" type="line"/>
      <point x="50" y="377" type="line"/>
      <point x="36" y="310" type="line"/>
      <point x="98" y="310" type="line"/>
      <point x="69" y="168" type="line" smooth="yes"/>
      <point x="64" y="142"/>
      <point x="56" y="121"/>
      <point x="47" y="106" type="curve" smooth="yes"/>
      <point x="37" y="90"/>
      <point x="23" y="78"/>
      <point x="4" y="70" type="curve"/>
    </contour>
  </outline>
</glyph>
<glyph name="currency" format="2">
  <advance width="598"/>
  <unicode hex="00A4"/>
  <outline>
    <contour>
      <point x="451" y="96" type="line"/>
      <point x="514" y="148" type="line"/>
      <point x="458" y="218" type="line"/>
      <point x="489" y="251"/>
      <point x="509" y="290"/>
      <point x="518" y="335" type="curve" smooth="yes"/>
      <point x="527" y="378"/>
      <point x="523" y="417"/>
      <point x="506" y="452" type="curve"/>
      <point x="590" y="521" type="line"/>
      <point x="549" y="572" type="line"/>
      <point x="466" y="503" type="line"/>
      <point x="436" y="527"/>
      <point x="399" y="539"/>
      <point x="356" y="539" type="curve" smooth="yes"/>
      <point x="312" y="539"/>
      <point x="270" y="527"/>
      <point x="231" y="503" type="curve"/>
      <point x="177" y="572" type="line"/>
      <point x="114" y="521" type="line"/>
      <point x="170" y="451" type="line"/>
      <point x="139" y="419"/>
      <point x="119" y="380"/>
      <point x="110" y="335" type="curve" smooth="yes"/>
      <point x="101" y="290"/>
      <point x="104" y="251"/>
      <point x="120" y="218" type="curve"/>
      <point x="36" y="150" type="line"/>
      <point x="77" y="97" type="line"/>
      <point x="161" y="166" type="line"/>
      <point x="191" y="142"/>
      <point x="228" y="130"/>
      <point x="271" y="130" type="curve" smooth="yes"/>
      <point x="314" y="130"/>
      <point x="356" y="142"/>
      <point x="397" y="166" type="curve"/>
    </contour>
    <contour>
      <point x="200" y="239" type="curve" smooth="yes"/>
      <point x="181" y="264"/>
      <point x="175" y="296"/>
      <point x="183" y="335" type="curve" smooth="yes"/>
      <point x="191" y="373"/>
      <point x="210" y="405"/>
      <point x="240" y="430" type="curve" smooth="yes"/>
      <point x="269" y="455"/>
      <point x="303" y="468"/>
      <point x="341" y="468" type="curve" smooth="yes"/>
      <point x="378" y="468"/>
      <point x="407" y="455"/>
      <point x="427" y="430" type="curve" smooth="yes"/>
      <point x="447" y="405"/>
      <point x="453" y="373"/>
      <point x="445" y="335" type="curve" smooth="yes"/>
      <point x="437" y="297"/>
      <point x="418" y="265"/>
      <point x="388" y="240" type="curve" smooth="yes"/>
      <point x="357" y="214"/>
      <point x="323" y="201"/>
      <point x="286" y="201" type="curve" smooth="yes"/>
      <point x="248" y="201"/>
      <point x="219" y="214"/>
    </contour>
  </outline>
</glyph>
<glyph name="yen" format="2">
  <advance width="398"/>
  <unicode hex="00A5"/>
  <outline>
    <contour>
      <point x="107" y="0" type="line"/>
      <point x="182" y="0" type="line"/>
      <point x="213" y="151" type="line"/>
      <point x="336" y="151" type="line"/>
      <point x="349" y="211" type="line"/>
      <point x="226" y="211" type="line"/>
      <point x="240" y="280" type="line"/>
      <point x="363" y="280" type="line"/>
      <point x="376" y="341" type="line"/>
      <point x="268" y="341" type="line"/>
      <point x="482" y="707" type="line"/>
      <point x="399" y="707" type="line"/>
      <point x="226" y="384" type="line"/>
      <point x="185" y="707" type="line"/>
      <point x="100" y="707" type="line"/>
      <point x="162" y="341" type="line"/>
      <point x="54" y="341" type="line"/>
      <point x="41" y="280" type="line"/>
      <point x="165" y="280" type="line"/>
      <point x="151" y="211" type="line"/>
      <point x="27" y="211" type="line"/>
      <point x="14" y="151" type="line"/>
      <point x="138" y="151" type="line"/>
    </contour>
  </outline>
</glyph>
<glyph name="section" format="2">
  <advance width="438"/>
  <unicode hex="00A7"/>
  <outline>
    <contour>
      <point x="19" y="-6" type="curve"/>
      <point x="89" y="-6" type="line"/>
      <point x="82" y="-41"/>
      <point x="82" y="-67"/>
      <point x="89" y="-82" type="curve" smooth="yes"/>
      <point x="96" y="-98"/>
      <point x="114" y="-106"/>
      <point x="141" y="-106" type="curve" smooth="yes"/>
      <point x="166" y="-106"/>
      <point x="186" y="-99"/>
      <point x="201" y="-84" type="curve" smooth="yes"/>
      <point x="215" y="-69"/>
      <point x="225" y="-48"/>
      <point x="231" y="-20" type="curve" smooth="yes"/>
      <point x="236" y="4"/>
      <point x="236" y="23"/>
      <point x="233" y="37" type="curve" smooth="yes"/>
      <point x="230" y="50"/>
      <point x="221" y="62"/>
      <point x="208" y="71" type="curve" smooth="yes"/>
      <point x="195" y="80"/>
      <point x="174" y="89"/>
      <point x="146" y="97" type="curve" smooth="yes"/>
      <point x="105" y="109"/>
      <point x="78" y="130"/>
      <point x="67" y="160" type="curve" smooth="yes"/>
      <point x="55" y="190"/>
      <point x="54" y="231"/>
      <point x="65" y="282" type="curve" smooth="yes"/>
      <point x="83" y="369"/>
      <point x="124" y="422"/>
      <point x="189" y="443" type="curve"/>
      <point x="164" y="454"/>
      <point x="149" y="471"/>
      <point x="143" y="494" type="curve" smooth="yes"/>
      <point x="137" y="517"/>
      <point x="138" y="546"/>
      <point x="145" y="581" type="curve" smooth="yes"/>
      <point x="155" y="629"/>
      <point x="175" y="666"/>
      <point x="204" y="693" type="curve" smooth="yes"/>
      <point x="233" y="719"/>
      <point x="271" y="732"/>
      <point x="318" y="732" type="curve" smooth="yes"/>
      <point x="368" y="732"/>
      <point x="401" y="718"/>
      <point x="417" y="690" type="curve" smooth="yes"/>
      <point x="432" y="661"/>
      <point x="434" y="620"/>
      <point x="423" y="567" type="curve"/>
      <point x="353" y="567" type="line"/>
      <point x="360" y="600"/>
      <point x="360" y="625"/>
      <point x="354" y="642" type="curve" smooth="yes"/>
      <point x="347" y="658"/>
      <point x="331" y="666"/>
      <point x="305" y="666" type="curve" smooth="yes"/>
      <point x="280" y="666"/>
      <point x="261" y="659"/>
      <point x="248" y="645" type="curve" smooth="yes"/>
      <point x="235" y="630"/>
      <point x="226" y="609"/>
      <point x="220" y="581" type="curve" smooth="yes"/>
      <point x="213" y="548"/>
      <point x="216" y="524"/>
      <point x="228" y="509" type="curve" smooth="yes"/>
      <point x="239" y="493"/>
      <point x="264" y="479"/>
      <point x="301" y="468" type="curve" smooth="yes"/>
      <point x="343" y="457"/>
      <point x="370" y="436"/>
      <point x="381" y="406" type="curve" smooth="yes"/>
      <point x="392" y="376"/>
      <point x="392" y="335"/>
      <point x="381" y="282" type="curve" smooth="yes"/>
      <point x="363" y="196"/>
      <point x="323" y="143"/>
      <point x="260" y="123" type="curve"/>
      <point x="285" y="112"/>
      <point x="301" y="94"/>
      <point x="308" y="71" type="curve" smooth="yes"/>
      <point x="314" y="47"/>
      <point x="313" y="17"/>
      <point x="306" y="-18" type="curve" smooth="yes"/>
      <point x="296" y="-67"/>
      <point x="276" y="-105"/>
      <point x="245" y="-132" type="curve" smooth="yes"/>
      <point x="214" y="-159"/>
      <point x="175" y="-172"/>
      <point x="126" y="-172" type="curve" smooth="yes"/>
      <point x="75" y="-172"/>
      <point x="41" y="-158"/>
      <point x="25" y="-131" type="curve" smooth="yes"/>
      <point x="9" y="-104"/>
      <point x="7" y="-62"/>
    </contour>
    <contour>
      <point x="307" y="282" type="curve" smooth="yes"/>
      <point x="315" y="322"/>
      <point x="315" y="352"/>
      <point x="307" y="372" type="curve" smooth="yes"/>
      <point x="298" y="392"/>
      <point x="279" y="402"/>
      <point x="249" y="402" type="curve" smooth="yes"/>
      <point x="218" y="402"/>
      <point x="194" y="392"/>
      <point x="177" y="372" type="curve" smooth="yes"/>
      <point x="160" y="351"/>
      <point x="147" y="321"/>
      <point x="139" y="282" type="curve" smooth="yes"/>
      <point x="131" y="243"/>
      <point x="131" y="214"/>
      <point x="140" y="194" type="curve" smooth="yes"/>
      <point x="149" y="173"/>
      <point x="168" y="163"/>
      <point x="199" y="163" type="curve" smooth="yes"/>
      <point x="228" y="163"/>
      <point x="252" y="173"/>
      <point x="269" y="193" type="curve" smooth="yes"/>
      <point x="286" y="213"/>
      <point x="298" y="243"/>
    </contour>
  </outline>
</glyph>
<glyph name="dieresis" format="2">
  <advance width="513"/>
  <unicode hex="00A8"/>
  <outline>
    <contour>
      <point x="208" y="593" type="line"/>
      <point x="285" y="593" type="line"/>
      <point x="304" y="681" type="line"/>
      <point x="227" y="681" type="line"/>
    </contour>
    <contour>
      <point x="364" y="593" type="line"/>
      <point x="441" y="593" type="line"/>
      <point x="460" y="681" type="line"/>
      <point x="383" y="681" type="line"/>
    </contour>
  </outline>
</glyph>
<glyph name="ordfeminine" format="2">
  <advance width="301"/>
  <unicode hex="00AA"/>
  <outline>
    <contour>
      <point x="160" y="435" type="curve" smooth="yes"/>
      <point x="175" y="435"/>
      <point x="188" y="438"/>
      <point x="199" y="444" type="curve" smooth="yes"/>
      <point x="210" y="449"/>
      <point x="221" y="458"/>
      <point x="232" y="469" type="curve"/>
      <point x="225" y="440" type="line"/>
      <point x="289" y="440" type="line"/>
      <point x="336" y="662" type="line" smooth="yes"/>
      <point x="343" y="695"/>
      <point x="339" y="720"/>
      <point x="324" y="739" type="curve" smooth="yes"/>
      <point x="309" y="757"/>
      <point x="285" y="766"/>
      <point x="251" y="766" type="curve" smooth="yes"/>
      <point x="220" y="766"/>
      <point x="194" y="758"/>
      <point x="173" y="741" type="curve" smooth="yes"/>
      <point x="151" y="724"/>
      <point x="137" y="701"/>
      <point x="130" y="670" type="curve"/>
      <point x="130" y="667" type="line"/>
      <point x="192" y="667" type="line"/>
      <point x="193" y="672" type="line" smooth="yes"/>
      <point x="195" y="683"/>
      <point x="200" y="692"/>
      <point x="208" y="699" type="curve" smooth="yes"/>
      <point x="216" y="706"/>
      <point x="226" y="709"/>
      <point x="238" y="709" type="curve" smooth="yes"/>
      <point x="251" y="709"/>
      <point x="260" y="706"/>
      <point x="265" y="700" type="curve" smooth="yes"/>
      <point x="271" y="693"/>
      <point x="273" y="682"/>
      <point x="270" y="667" type="curve" smooth="yes"/>
      <point x="262" y="628" type="line"/>
      <point x="219" y="628" type="line" smooth="yes"/>
      <point x="186" y="628"/>
      <point x="158" y="620"/>
      <point x="136" y="604" type="curve" smooth="yes"/>
      <point x="113" y="587"/>
      <point x="99" y="564"/>
      <point x="93" y="535" type="curve" smooth="yes"/>
      <point x="86" y="503"/>
      <point x="89" y="478"/>
      <point x="100" y="461" type="curve" smooth="yes"/>
      <point x="111" y="444"/>
      <point x="131" y="435"/>
    </contour>
    <contour>
      <point x="165" y="503" type="curve" smooth="yes"/>
      <point x="158" y="510"/>
      <point x="157" y="521"/>
      <point x="160" y="537" type="curve" smooth="yes"/>
      <point x="163" y="552"/>
      <point x="169" y="564"/>
      <point x="179" y="571" type="curve" smooth="yes"/>
      <point x="189" y="578"/>
      <point x="202" y="581"/>
      <point x="219" y="581" type="curve" smooth="yes"/>
      <point x="252" y="581" type="line"/>
      <point x="244" y="542" type="line" smooth="yes"/>
      <point x="241" y="527"/>
      <point x="234" y="515"/>
      <point x="225" y="507" type="curve" smooth="yes"/>
      <point x="216" y="498"/>
      <point x="204" y="494"/>
      <point x="190" y="494" type="curve" smooth="yes"/>
      <point x="178" y="494"/>
      <point x="170" y="497"/>
    </contour>
  </outline>
</glyph>
<glyph name="degree" format="2">
  <advance width="360"/>
  <unicode hex="00B0"/>
  <outline>
    <contour>
      <point x="180" y="464" type="curve" smooth="yes"/>
      <point x="216" y="464"/>
      <point x="246" y="476"/>
      <point x="271" y="500" type="curve" smooth="yes"/>
      <point x="295" y="524"/>
      <point x="307" y="554"/>
      <point x="307" y="590" type="curve" smooth="yes"/>
      <point x="307" y="626"/>
      <point x="295" y="656"/>
      <point x="271" y="681" type="curve" smooth="yes"/>
      <point x="246" y="705"/>
      <point x="216" y="717"/>
      <point x="180" y="717" type="curve" smooth="yes"/>
      <point x="144" y="717"/>
      <point x="114" y="705"/>
      <point x="90" y="681" type="curve" smooth="yes"/>
      <point x="65" y="656"/>
      <point x="53" y="626"/>
      <point x="53" y="590" type="curve" smooth="yes"/>
      <point x="53" y="554"/>
      <point x="65" y="524"/>
      <point x="90" y="500" type="curve" smooth="yes"/>
      <point x="114" y="476"/>
      <point x="144" y="464"/>
    </contour>
    <contour>
      <point x="128" y="536" type="curve" smooth="yes"/>
      <point x="115" y="550"/>
      <point x="108" y="568"/>
      <point x="108" y="590" type="curve" smooth="yes"/>
      <point x="108" y="612"/>
      <point x="115" y="630"/>
      <point x="128" y="645" type="curve" smooth="yes"/>
      <point x="141" y="659"/>
      <point x="159" y="666"/>
      <point x="180" y="666" type="curve" smooth="yes"/>
      <point x="201" y="666"/>
      <point x="219" y="659"/>
      <point x="233" y="645" type="curve" smooth="yes"/>
      <point x="246" y="630"/>
      <point x="253" y="612"/>
      <point x="253" y="590" type="curve" smooth="yes"/>
      <point x="253" y="568"/>
      <point x="246" y="550"/>
      <point x="233" y="536" type="curve" smooth="yes"/>
      <point x="219" y="522"/>
      <point x="201" y="515"/>
      <point x="180" y="515" type="curve" smooth="yes"/>
      <point x="159" y="515"/>
      <point x="141" y="522"/>
    </contour>
  </outline>
</glyph>
<glyph name="acute" format="2">
  <advance width="513"/>
  <unicode hex="00B4"/>
  <outline>
    <contour>
      <point x="248" y="590" type="line"/>
      <point x="306" y="590" type="line"/>
      <point x="444" y="722" type="line"/>
      <point x="368" y="722" type="line"/>
    </contour>
  </outline>
</glyph>
<glyph name="paragraph" format="2">
  <advance width="532"/>
  <unicode hex="00B6"/>
  <outline>
    <contour>
      <point x="144" y="-156" type="line"/>
      <point x="212" y="-156" type="line"/>
      <point x="377" y="640" type="line"/>
      <point x="451" y="640" type="line"/>
      <point x="286" y="-156" type="line"/>
      <point x="353" y="-156" type="line"/>
      <point x="532" y="707" type="line"/>
      <point x="356" y="707" type="line" smooth="yes"/>
      <point x="315" y="707"/>
      <point x="278" y="697"/>
      <point x="243" y="678" type="curve" smooth="yes"/>
      <point x="208" y="659"/>
      <point x="179" y="633"/>
      <point x="156" y="600" type="curve" smooth="yes"/>
      <point x="133" y="567"/>
      <point x="117" y="531"/>
      <point x="108" y="492" type="curve" smooth="yes"/>
      <point x="96" y="433"/>
      <point x="101" y="383"/>
      <point x="124" y="343" type="curve" smooth="yes"/>
      <point x="147" y="302"/>
      <point x="183" y="280"/>
      <point x="233" y="275" type="curve"/>
    </contour>
  </outline>
</glyph>
<glyph name="cedilla" format="2">
  <advance width="391"/>
  <unicode hex="00B8"/>
  <outline>
    <contour>
      <point x="169" y="12" type="line"/>
      <point x="236" y="12" type="line"/>
      <point x="141" y="-156" type="line"/>
      <point x="63" y="-156" type="line"/>
    </contour>
  </outline>
</glyph>
<glyph name="ordmasculine" format="2">
  <advance width="302"/>
  <unicode hex="00BA"/>
  <outline>
    <contour>
      <point x="103" y="558" type="curve" smooth="yes"/>
      <point x="121" y="644" type="line" smooth="yes"/>
      <point x="130" y="687"/>
      <point x="145" y="719"/>
      <point x="168" y="738" type="curve" smooth="yes"/>
      <point x="191" y="757"/>
      <point x="220" y="766"/>
      <point x="256" y="766" type="curve" smooth="yes"/>
      <point x="291" y="766"/>
      <point x="316" y="757"/>
      <point x="331" y="738" type="curve" smooth="yes"/>
      <point x="345" y="719"/>
      <point x="348" y="687"/>
      <point x="339" y="644" type="curve" smooth="yes"/>
      <point x="321" y="558" type="line" smooth="yes"/>
      <point x="312" y="515"/>
      <point x="297" y="483"/>
      <point x="274" y="464" type="curve" smooth="yes"/>
      <point x="251" y="445"/>
      <point x="222" y="435"/>
      <point x="187" y="435" type="curve" smooth="yes"/>
      <point x="154" y="435"/>
      <point x="131" y="443"/>
      <point x="116" y="459" type="curve" smooth="yes"/>
      <point x="98" y="480"/>
      <point x="93" y="512"/>
    </contour>
    <contour>
      <point x="255" y="557" type="curve" smooth="yes"/>
      <point x="273" y="645" type="line" smooth="yes"/>
      <point x="279" y="672"/>
      <point x="276" y="690"/>
      <point x="266" y="699" type="curve" smooth="yes"/>
      <point x="261" y="704"/>
      <point x="254" y="707"/>
      <point x="244" y="707" type="curve" smooth="yes"/>
      <point x="215" y="707"/>
      <point x="197" y="686"/>
      <point x="188" y="645" type="curve" smooth="yes"/>
      <point x="170" y="557" type="line" smooth="yes"/>
      <point x="164" y="531"/>
      <point x="167" y="513"/>
      <point x="177" y="504" type="curve" smooth="yes"/>
      <point x="182" y="499"/>
      <point x="190" y="496"/>
      <point x="200" y="496" type="curve" smooth="yes"/>
      <point x="228" y="496"/>
      <point x="246" y="516"/>
    </contour>
  </outline>
</glyph>
<glyph name="guillemotright" format="2">
  <advance width="432"/>
  <unicode hex="00BB"/>
  <outline>
    <contour>
      <point x="22" y="83" type="line"/>
      <point x="245" y="270" type="line"/>
      <point x="100" y="458" type="line"/>
      <point x="84" y="380" type="line"/>
      <point x="168" y="270" type="line"/>
      <point x="38" y="161" type="line"/>
    </contour>
    <contour>
      <point x="191" y="83" type="line"/>
      <point x="413" y="270" type="line"/>
      <point x="269" y="458" type="line"/>
      <point x="253" y="380" type="line"/>
      <point x="337" y="270" type="line"/>
      <point x="207" y="161" type="line"/>
    </contour>
  </outline>
</glyph>
<glyph name="onehalf" format="2">
  <advance width="659"/>
  <unicode hex="00BD"/>
  <outline>
    <contour>
      <point x="360" y="0" type="line"/>
      <point x="571" y="0" type="line"/>
      <point x="584" y="63" type="line"/>
      <point x="455" y="63" type="line"/>
      <point x="581" y="212" type="line" smooth="yes"/>
      <point x="596" y="230"/>
      <point x="608" y="246"/>
      <point x="617" y="260" type="curve" smooth="yes"/>
      <point x="625" y="274"/>
      <point x="631" y="290"/>
      <point x="635" y="308" type="curve" smooth="yes"/>
      <point x="640" y="333" type="line" smooth="yes"/>
      <point x="647" y="364"/>
      <point x="642" y="388"/>
      <point x="627" y="407" type="curve" smooth="yes"/>
      <point x="612" y="426"/>
      <point x="588" y="435"/>
      <point x="557" y="435" type="curve" smooth="yes"/>
      <point x="525" y="435"/>
      <point x="498" y="426"/>
      <point x="475" y="408" type="curve" smooth="yes"/>
      <point x="452" y="389"/>
      <point x="438" y="365"/>
      <point x="431" y="334" type="curve" smooth="yes"/>
      <point x="425" y="303" type="line"/>
      <point x="493" y="303" type="line"/>
      <point x="498" y="326" type="line" smooth="yes"/>
      <point x="505" y="357"/>
      <point x="520" y="373"/>
      <point x="543" y="373" type="curve" smooth="yes"/>
      <point x="555" y="373"/>
      <point x="563" y="369"/>
      <point x="567" y="362" type="curve" smooth="yes"/>
      <point x="571" y="354"/>
      <point x="572" y="344"/>
      <point x="569" y="331" type="curve" smooth="yes"/>
      <point x="564" y="310" type="line" smooth="yes"/>
      <point x="562" y="298"/>
      <point x="558" y="287"/>
      <point x="553" y="278" type="curve" smooth="yes"/>
      <point x="547" y="268"/>
      <point x="539" y="257"/>
      <point x="528" y="244" type="curve" smooth="yes"/>
      <point x="373" y="61" type="line"/>
    </contour>
    <contour>
      <point x="83" y="0" type="line"/>
      <point x="148" y="0" type="line"/>
      <point x="549" y="707" type="line"/>
      <point x="484" y="707" type="line"/>
    </contour>
    <contour>
      <point x="88" y="279" type="line"/>
      <point x="161" y="279" type="line"/>
      <point x="250" y="707" type="line"/>
      <point x="177" y="707" type="line"/>
      <point x="103" y="656" type="line"/>
      <point x="87" y="575" type="line"/>
      <point x="160" y="627" type="line"/>
    </contour>
  </outline>
</glyph>
<glyph name="threequarters" format="2">
  <advance width="677"/>
  <unicode hex="00BE"/>
  <outline>
    <contour>
      <point x="137" y="272" type="curve" smooth="yes"/>
      <point x="104" y="272"/>
      <point x="80" y="281"/>
      <point x="66" y="300" type="curve" smooth="yes"/>
      <point x="51" y="318"/>
      <point x="47" y="343"/>
      <point x="54" y="374" type="curve" smooth="yes"/>
      <point x="59" y="399" type="line"/>
      <point x="126" y="399" type="line"/>
      <point x="121" y="376" type="line" smooth="yes"/>
      <point x="118" y="363"/>
      <point x="120" y="353"/>
      <point x="125" y="346" type="curve" smooth="yes"/>
      <point x="130" y="339"/>
      <point x="138" y="335"/>
      <point x="149" y="335" type="curve" smooth="yes"/>
      <point x="174" y="335"/>
      <point x="189" y="351"/>
      <point x="195" y="382" type="curve" smooth="yes"/>
      <point x="203" y="419" type="line" smooth="yes"/>
      <point x="207" y="436"/>
      <point x="207" y="449"/>
      <point x="202" y="457" type="curve" smooth="yes"/>
      <point x="197" y="464"/>
      <point x="187" y="468"/>
      <point x="172" y="468" type="curve" smooth="yes"/>
      <point x="154" y="468" type="line"/>
      <point x="167" y="530" type="line"/>
      <point x="185" y="530" type="line" smooth="yes"/>
      <point x="211" y="530"/>
      <point x="227" y="545"/>
      <point x="234" y="575" type="curve" smooth="yes"/>
      <point x="240" y="606" type="line" smooth="yes"/>
      <point x="244" y="624"/>
      <point x="242" y="637"/>
      <point x="235" y="644" type="curve" smooth="yes"/>
      <point x="230" y="649"/>
      <point x="223" y="651"/>
      <point x="214" y="651" type="curve" smooth="yes"/>
      <point x="203" y="651"/>
      <point x="193" y="648"/>
      <point x="186" y="641" type="curve" smooth="yes"/>
      <point x="179" y="634"/>
      <point x="174" y="623"/>
      <point x="171" y="610" type="curve" smooth="yes"/>
      <point x="166" y="587" type="line"/>
      <point x="98" y="587" type="line"/>
      <point x="103" y="613" type="line" smooth="yes"/>
      <point x="110" y="644"/>
      <point x="124" y="668"/>
      <point x="147" y="687" type="curve" smooth="yes"/>
      <point x="169" y="705"/>
      <point x="196" y="714"/>
      <point x="228" y="714" type="curve" smooth="yes"/>
      <point x="261" y="714"/>
      <point x="285" y="705"/>
      <point x="300" y="686" type="curve" smooth="yes"/>
      <point x="315" y="667"/>
      <point x="319" y="642"/>
      <point x="312" y="609" type="curve" smooth="yes"/>
      <point x="307" y="585" type="line" smooth="yes"/>
      <point x="302" y="564"/>
      <point x="295" y="547"/>
      <point x="285" y="534" type="curve" smooth="yes"/>
      <point x="275" y="521"/>
      <point x="262" y="510"/>
      <point x="245" y="503" type="curve"/>
      <point x="261" y="496"/>
      <point x="271" y="485"/>
      <point x="275" y="471" type="curve" smooth="yes"/>
      <point x="279" y="457"/>
      <point x="278" y="438"/>
      <point x="273" y="415" type="curve" smooth="yes"/>
      <point x="266" y="379" type="line" smooth="yes"/>
      <point x="259" y="346"/>
      <point x="244" y="320"/>
      <point x="221" y="301" type="curve" smooth="yes"/>
      <point x="197" y="282"/>
      <point x="169" y="272"/>
    </contour>
    <contour>
      <point x="613" y="76" type="line"/>
      <point x="582" y="76" type="line"/>
      <point x="566" y="0" type="line"/>
      <point x="494" y="0" type="line"/>
      <point x="510" y="76" type="line"/>
      <point x="373" y="76" type="line"/>
      <point x="386" y="139" type="line"/>
      <point x="540" y="428" type="line"/>
      <point x="612" y="428" type="line"/>
      <point x="457" y="139" type="line"/>
      <point x="523" y="139" type="line"/>
      <point x="543" y="238" type="line"/>
      <point x="615" y="238" type="line"/>
      <point x="595" y="139" type="line"/>
      <point x="626" y="139" type="line"/>
    </contour>
    <contour>
      <point x="601" y="707" type="line"/>
      <point x="200" y="0" type="line"/>
      <point x="135" y="0" type="line"/>
      <point x="536" y="707" type="line"/>
    </contour>
  </outline>
</glyph>
<glyph name="questiondown" format="2">
  <advance width="371"/>
  <unicode hex="00BF"/>
  <outline>
    <contour>
      <point x="99" y="-168" type="curve" smooth="yes"/>
      <point x="199" y="-168"/>
      <point x="263" y="-104"/>
      <point x="291" y="25" type="curve"/>
      <point x="216" y="25" type="line"/>
      <point x="207" y="-20"/>
      <point x="194" y="-52"/>
      <point x="179" y="-71" type="curve" smooth="yes"/>
      <point x="164" y="-91"/>
      <point x="141" y="-101"/>
      <point x="112" y="-101" type="curve" smooth="yes"/>
      <point x="93" y="-101"/>
      <point x="79" y="-96"/>
      <point x="69" y="-87" type="curve" smooth="yes"/>
      <point x="53" y="-71"/>
      <point x="49" y="-43"/>
      <point x="58" y="-1" type="curve" smooth="yes"/>
      <point x="63" y="21"/>
      <point x="69" y="40"/>
      <point x="77" y="56" type="curve" smooth="yes"/>
      <point x="85" y="71"/>
      <point x="98" y="90"/>
      <point x="115" y="111" type="curve" smooth="yes"/>
      <point x="170" y="178" type="line" smooth="yes"/>
      <point x="192" y="205"/>
      <point x="207" y="226"/>
      <point x="215" y="241" type="curve" smooth="yes"/>
      <point x="222" y="256"/>
      <point x="228" y="276"/>
      <point x="233" y="300" type="curve" smooth="yes"/>
      <point x="242" y="340" type="line"/>
      <point x="168" y="340" type="line"/>
      <point x="160" y="304" type="line" smooth="yes"/>
      <point x="156" y="284"/>
      <point x="151" y="268"/>
      <point x="145" y="256" type="curve" smooth="yes"/>
      <point x="138" y="244"/>
      <point x="127" y="228"/>
      <point x="112" y="208" type="curve" smooth="yes"/>
      <point x="65" y="150" type="line" smooth="yes"/>
      <point x="38" y="116"/>
      <point x="19" y="89"/>
      <point x="8" y="69" type="curve" smooth="yes"/>
      <point x="-3" y="48"/>
      <point x="-12" y="25"/>
      <point x="-17" y="-1" type="curve" smooth="yes"/>
      <point x="-28" y="-53"/>
      <point x="-23" y="-94"/>
      <point x="-3" y="-123" type="curve" smooth="yes"/>
      <point x="16" y="-153"/>
      <point x="50" y="-168"/>
    </contour>
    <contour>
      <point x="182" y="430" type="line"/>
      <point x="262" y="430" type="line"/>
      <point x="283" y="529" type="line"/>
      <point x="203" y="529" type="line"/>
    </contour>
  </outline>
</glyph>
<glyph name="Aring" format="2">
  <advance width="472"/>
  <unicode hex="00C5"/>
  <outline>
    <contour>
      <point x="-46" y="0" type="line"/>
      <point x="32" y="0" type="line"/>
      <point x="114" y="180" type="line"/>
      <point x="321" y="180" type="line"/>
      <point x="329" y="0" type="line"/>
      <point x="408" y="0" type="line"/>
      <point x="362" y="707" type="line"/>
      <point x="381" y="714"/>
      <point x="398" y="725"/>
      <point x="411" y="740" type="curve" smooth="yes"/>
      <point x="424" y="755"/>
      <point x="433" y="772"/>
      <point x="438" y="792" type="curve" smooth="yes"/>
      <point x="443" y="817"/>
      <point x="439" y="839"/>
      <point x="426" y="857" type="curve" smooth="yes"/>
      <point x="412" y="874"/>
      <point x="392" y="883"/>
      <point x="365" y="883" type="curve" smooth="yes"/>
      <point x="339" y="883"/>
      <point x="316" y="874"/>
      <point x="295" y="857" type="curve" smooth="yes"/>
      <point x="274" y="840"/>
      <point x="260" y="818"/>
      <point x="255" y="792" type="curve" smooth="yes"/>
      <point x="250" y="772"/>
      <point x="252" y="755"/>
      <point x="259" y="740" type="curve" smooth="yes"/>
      <point x="266" y="725"/>
      <point x="278" y="714"/>
      <point x="294" y="707" type="curve"/>
    </contour>
    <contour>
      <point x="144" y="245" type="line"/>
      <point x="305" y="594" type="line"/>
      <point x="319" y="245" type="line"/>
    </contour>
    <contour>
      <point x="302" y="755" type="curve" smooth="yes"/>
      <point x="295" y="764"/>
      <point x="293" y="777"/>
      <point x="296" y="792" type="curve" smooth="yes"/>
      <point x="299" y="807"/>
      <point x="306" y="819"/>
      <point x="317" y="829" type="curve" smooth="yes"/>
      <point x="328" y="839"/>
      <point x="341" y="844"/>
      <point x="356" y="844" type="curve" smooth="yes"/>
      <point x="371" y="844"/>
      <point x="382" y="839"/>
      <point x="389" y="830" type="curve" smooth="yes"/>
      <point x="396" y="820"/>
      <point x="399" y="807"/>
      <point x="396" y="792" type="curve" smooth="yes"/>
      <point x="393" y="777"/>
      <point x="386" y="764"/>
      <point x="375" y="755" type="curve" smooth="yes"/>
      <point x="364" y="745"/>
      <point x="350" y="740"/>
      <point x="335" y="740" type="curve" smooth="yes"/>
      <point x="320" y="740"/>
      <point x="309" y="745"/>
    </contour>
  </outline>
</glyph>
<glyph name="AE" format="2">
  <advance width="704"/>
  <unicode hex="00C6"/>
  <outline>
    <contour>
      <point x="514" y="640" type="line"/>
      <point x="463" y="393" type="line"/>
      <point x="661" y="393" type="line"/>
      <point x="647" y="326" type="line"/>
      <point x="449" y="326" type="line"/>
      <point x="395" y="67" type="line"/>
      <point x="627" y="67" type="line"/>
      <point x="613" y="0" type="line"/>
      <point x="307" y="0" type="line"/>
      <point x="344" y="176" type="line"/>
      <point x="145" y="176" type="line"/>
      <point x="32" y="0" type="line"/>
      <point x="-46" y="0" type="line"/>
      <point x="409" y="707" type="line"/>
      <point x="760" y="707" type="line"/>
      <point x="746" y="640" type="line"/>
    </contour>
    <contour>
      <point x="357" y="242" type="line"/>
      <point x="440" y="642" type="line"/>
      <point x="185" y="242" type="line"/>
    </contour>
  </outline>
</glyph>
<glyph name="Ccedilla" format="2">
  <advance width="489"/>
  <unicode hex="00C7"/>
  <outline>
    <contour>
      <point x="410" y="501" type="line"/>
      <point x="412" y="508" type="line" smooth="yes"/>
      <point x="422" y="557"/>
      <point x="419" y="592"/>
      <point x="403" y="615" type="curve" smooth="yes"/>
      <point x="387" y="637"/>
      <point x="362" y="648"/>
      <point x="327" y="648" type="curve" smooth="yes"/>
      <point x="288" y="648"/>
      <point x="255" y="636"/>
      <point x="230" y="611" type="curve" smooth="yes"/>
      <point x="205" y="586"/>
      <point x="187" y="547"/>
      <point x="176" y="494" type="curve" smooth="yes"/>
      <point x="116" y="205" type="line" smooth="yes"/>
      <point x="104" y="148"/>
      <point x="109" y="108"/>
      <point x="132" y="84" type="curve" smooth="yes"/>
      <point x="147" y="68"/>
      <point x="172" y="59"/>
      <point x="204" y="59" type="curve" smooth="yes"/>
      <point x="239" y="59"/>
      <point x="270" y="70"/>
      <point x="295" y="93" type="curve" smooth="yes"/>
      <point x="320" y="116"/>
      <point x="337" y="150"/>
      <point x="347" y="197" type="curve" smooth="yes"/>
      <point x="349" y="206" type="line"/>
      <point x="422" y="206" type="line"/>
      <point x="420" y="196" type="line" smooth="yes"/>
      <point x="408" y="139"/>
      <point x="386" y="93"/>
      <point x="354" y="60" type="curve" smooth="yes"/>
      <point x="322" y="27"/>
      <point x="284" y="6"/>
      <point x="240" y="-3" type="curve"/>
      <point x="155" y="-156" type="line"/>
      <point x="77" y="-156" type="line"/>
      <point x="170" y="-7" type="line"/>
      <point x="118" y="-3"/>
      <point x="80" y="17"/>
      <point x="56" y="52" type="curve" smooth="yes"/>
      <point x="32" y="87"/>
      <point x="27" y="139"/>
      <point x="41" y="206" type="curve" smooth="yes"/>
      <point x="102" y="501" type="line" smooth="yes"/>
      <point x="117" y="573"/>
      <point x="146" y="627"/>
      <point x="189" y="663" type="curve" smooth="yes"/>
      <point x="232" y="698"/>
      <point x="282" y="716"/>
      <point x="340" y="716" type="curve" smooth="yes"/>
      <point x="396" y="716"/>
      <point x="438" y="699"/>
      <point x="466" y="665" type="curve" smooth="yes"/>
      <point x="494" y="630"/>
      <point x="501" y="579"/>
      <point x="487" y="510" type="curve" smooth="yes"/>
      <point x="485" y="501" type="line"/>
    </contour>
  </outline>
</glyph>
<glyph name="multiply" format="2">
  <advance width="430"/>
  <unicode hex="00D7"/>
  <outline>
    <contour>
      <point x="110" y="132" type="line"/>
      <point x="216" y="239" type="line"/>
      <point x="322" y="132" type="line"/>
      <point x="366" y="176" type="line"/>
      <point x="260" y="283" type="line"/>
      <point x="366" y="389" type="line"/>
      <point x="322" y="433" type="line"/>
      <point x="216" y="328" type="line"/>
      <point x="110" y="433" type="line"/>
      <point x="65" y="389" type="line"/>
      <point x="171" y="283" type="line"/>
      <point x="65" y="176" type="line"/>
    </contour>
  </outline>
</glyph>
<glyph name="Oslash" format="2">
  <advance width="489"/>
  <unicode hex="00D8"/>
  <outline>
    <contour>
      <point x="478" y="641" type="line"/>
      <point x="495" y="606"/>
      <point x="497" y="559"/>
      <point x="485" y="501" type="curve" smooth="yes"/>
      <point x="424" y="206" type="line" smooth="yes"/>
      <point x="409" y="135"/>
      <point x="381" y="82"/>
      <point x="338" y="46" type="curve" smooth="yes"/>
      <point x="295" y="10"/>
      <point x="245" y="-8"/>
      <point x="188" y="-8" type="curve" smooth="yes"/>
      <point x="143" y="-8"/>
      <point x="106" y="3"/>
      <point x="79" y="26" type="curve"/>
      <point x="50" y="-20" type="line"/>
      <point x="-5" y="-20" type="line"/>
      <point x="49" y="63" type="line"/>
      <point x="31" y="99"/>
      <point x="28" y="147"/>
      <point x="41" y="206" type="curve" smooth="yes"/>
      <point x="102" y="501" type="line" smooth="yes"/>
      <point x="117" y="574"/>
      <point x="146" y="628"/>
      <point x="189" y="663" type="curve" smooth="yes"/>
      <point x="231" y="698"/>
      <point x="281" y="716"/>
      <point x="339" y="716" type="curve" smooth="yes"/>
      <point x="387" y="716"/>
      <point x="424" y="704"/>
      <point x="451" y="681" type="curve"/>
      <point x="480" y="727" type="line"/>
      <point x="534" y="727" type="line"/>
    </contour>
    <contour>
      <point x="109" y="156" type="curve"/>
      <point x="404" y="609" type="line"/>
      <point x="390" y="635"/>
      <point x="364" y="648"/>
      <point x="326" y="648" type="curve" smooth="yes"/>
      <point x="287" y="648"/>
      <point x="255" y="635"/>
      <point x="230" y="610" type="curve" smooth="yes"/>
      <point x="205" y="585"/>
      <point x="187" y="546"/>
      <point x="176" y="494" type="curve" smooth="yes"/>
      <point x="116" y="205" type="line" smooth="yes"/>
      <point x="111" y="185"/>
      <point x="109" y="169"/>
    </contour>
    <contour>
      <point x="415" y="544" type="curve"/>
      <point x="124" y="94" type="line"/>
      <point x="138" y="71"/>
      <point x="164" y="59"/>
      <point x="203" y="59" type="curve" smooth="yes"/>
      <point x="240" y="59"/>
      <point x="271" y="71"/>
      <point x="296" y="96" type="curve" smooth="yes"/>
      <point x="321" y="120"/>
      <point x="338" y="156"/>
      <point x="349" y="205" type="curve" smooth="yes"/>
      <point x="409" y="494" type="line" smooth="yes"/>
      <point x="413" y="515"/>
      <point x="415" y="531"/>
    </contour>
  </outline>
</glyph>
<glyph name="Thorn" format="2">
  <advance width="450"/>
  <unicode hex="00DE"/>
  <outline>
    <contour>
      <point x="445" y="372" type="curve" smooth="yes"/>
      <point x="417" y="237"/>
      <point x="342" y="170"/>
      <point x="221" y="170" type="curve" smooth="yes"/>
      <point x="115" y="170" type="line"/>
      <point x="80" y="0" type="line"/>
      <point x="6" y="0" type="line"/>
      <point x="153" y="707" type="line"/>
      <point x="227" y="707" type="line"/>
      <point x="200" y="578" type="line"/>
      <point x="306" y="578" type="line" smooth="yes"/>
      <point x="369" y="578"/>
      <point x="411" y="561"/>
      <point x="434" y="526" type="curve" smooth="yes"/>
      <point x="456" y="491"/>
      <point x="460" y="440"/>
    </contour>
    <contour>
      <point x="370" y="372" type="curve" smooth="yes"/>
      <point x="381" y="421"/>
      <point x="379" y="456"/>
      <point x="366" y="478" type="curve" smooth="yes"/>
      <point x="352" y="500"/>
      <point x="326" y="511"/>
      <point x="288" y="511" type="curve" smooth="yes"/>
      <point x="186" y="511" type="line"/>
      <point x="129" y="236" type="line"/>
      <point x="231" y="236" type="line" smooth="yes"/>
      <point x="269" y="236"/>
      <point x="299" y="247"/>
      <point x="322" y="268" type="curve" smooth="yes"/>
      <point x="344" y="289"/>
      <point x="360" y="324"/>
    </contour>
  </outline>
</glyph>
<glyph name="ae" format="2">
  <advance width="648"/>
  <unicode hex="00E6"/>
  <outline>
    <contour>
      <point x="129" y="-8" type="curve" smooth="yes"/>
      <point x="156" y="-8"/>
      <point x="182" y="-3"/>
      <point x="206" y="7" type="curve" smooth="yes"/>
      <point x="230" y="17"/>
      <point x="251" y="32"/>
      <point x="268" y="51" type="curve"/>
      <point x="287" y="12"/>
      <point x="326" y="-8"/>
      <point x="385" y="-8" type="curve" smooth="yes"/>
      <point x="434" y="-8"/>
      <point x="475" y="6"/>
      <point x="508" y="34" type="curve" smooth="yes"/>
      <point x="541" y="62"/>
      <point x="563" y="104"/>
      <point x="574" y="159" type="curve"/>
      <point x="575" y="162" type="line"/>
      <point x="506" y="162" type="line"/>
      <point x="505" y="158" type="line" smooth="yes"/>
      <point x="498" y="122"/>
      <point x="485" y="95"/>
      <point x="467" y="78" type="curve" smooth="yes"/>
      <point x="448" y="61"/>
      <point x="425" y="52"/>
      <point x="398" y="52" type="curve" smooth="yes"/>
      <point x="369" y="52"/>
      <point x="348" y="62"/>
      <point x="336" y="82" type="curve" smooth="yes"/>
      <point x="324" y="101"/>
      <point x="323" y="134"/>
      <point x="333" y="181" type="curve" smooth="yes"/>
      <point x="346" y="245" type="line"/>
      <point x="593" y="245" type="line"/>
      <point x="615" y="351" type="line" smooth="yes"/>
      <point x="628" y="412"/>
      <point x="623" y="459"/>
      <point x="602" y="491" type="curve" smooth="yes"/>
      <point x="580" y="522"/>
      <point x="544" y="538"/>
      <point x="495" y="538" type="curve" smooth="yes"/>
      <point x="443" y="537"/>
      <point x="400" y="520"/>
      <point x="365" y="487" type="curve"/>
      <point x="348" y="521"/>
      <point x="311" y="538"/>
      <point x="256" y="538" type="curve" smooth="yes"/>
      <point x="212" y="538"/>
      <point x="174" y="526"/>
      <point x="143" y="501" type="curve" smooth="yes"/>
      <point x="111" y="476"/>
      <point x="91" y="442"/>
      <point x="82" y="399" type="curve" smooth="yes"/>
      <point x="80" y="390" type="line"/>
      <point x="146" y="390" type="line"/>
      <point x="148" y="398" type="line" smooth="yes"/>
      <point x="153" y="423"/>
      <point x="163" y="442"/>
      <point x="180" y="456" type="curve" smooth="yes"/>
      <point x="197" y="469"/>
      <point x="218" y="476"/>
      <point x="243" y="476" type="curve" smooth="yes"/>
      <point x="268" y="476"/>
      <point x="286" y="470"/>
      <point x="297" y="457" type="curve" smooth="yes"/>
      <point x="310" y="443"/>
      <point x="313" y="419"/>
      <point x="306" y="387" type="curve" smooth="yes"/>
      <point x="288" y="298" type="line"/>
      <point x="206" y="298" type="line" smooth="yes"/>
      <point x="155" y="298"/>
      <point x="113" y="285"/>
      <point x="80" y="258" type="curve" smooth="yes"/>
      <point x="47" y="231"/>
      <point x="26" y="194"/>
      <point x="17" y="147" type="curve" smooth="yes"/>
      <point x="6" y="98"/>
      <point x="11" y="60"/>
      <point x="30" y="33" type="curve" smooth="yes"/>
      <point x="49" y="6"/>
      <point x="82" y="-8"/>
    </contour>
    <contour>
      <point x="98" y="69" type="curve" smooth="yes"/>
      <point x="83" y="85"/>
      <point x="79" y="111"/>
      <point x="87" y="148" type="curve" smooth="yes"/>
      <point x="100" y="213"/>
      <point x="139" y="246"/>
      <point x="202" y="246" type="curve" smooth="yes"/>
      <point x="277" y="246" type="line"/>
      <point x="258" y="153" type="line" smooth="yes"/>
      <point x="251" y="121"/>
      <point x="239" y="96"/>
      <point x="220" y="79" type="curve" smooth="yes"/>
      <point x="201" y="61"/>
      <point x="177" y="52"/>
      <point x="149" y="52" type="curve" smooth="yes"/>
      <point x="126" y="52"/>
      <point x="109" y="58"/>
    </contour>
    <contour>
      <point x="357" y="298" type="line"/>
      <point x="368" y="349" type="line" smooth="yes"/>
      <point x="377" y="395"/>
      <point x="392" y="428"/>
      <point x="411" y="447" type="curve" smooth="yes"/>
      <point x="430" y="466"/>
      <point x="454" y="475"/>
      <point x="483" y="475" type="curve" smooth="yes"/>
      <point x="512" y="475"/>
      <point x="532" y="466"/>
      <point x="543" y="447" type="curve" smooth="yes"/>
      <point x="554" y="428"/>
      <point x="554" y="396"/>
      <point x="545" y="351" type="curve" smooth="yes"/>
      <point x="534" y="298" type="line"/>
    </contour>
  </outline>
</glyph>
<glyph name="eth" format="2">
  <advance width="415"/>
  <unicode hex="00F0"/>
  <outline>
    <contour>
      <point x="348" y="184" type="curve" smooth="yes"/>
      <point x="370" y="287" type="line" smooth="yes"/>
      <point x="379" y="333"/>
      <point x="383" y="373"/>
      <point x="380" y="407" type="curve" smooth="yes"/>
      <point x="377" y="440"/>
      <point x="367" y="479"/>
      <point x="350" y="523" type="curve" smooth="yes"/>
      <point x="325" y="591" type="line"/>
      <point x="400" y="613" type="line"/>
      <point x="395" y="666" type="line"/>
      <point x="307" y="639" type="line"/>
      <point x="281" y="710" type="line"/>
      <point x="204" y="710" type="line"/>
      <point x="237" y="617" type="line"/>
      <point x="158" y="594" type="line"/>
      <point x="163" y="542" type="line"/>
      <point x="254" y="569" type="line"/>
      <point x="292" y="471" type="line"/>
      <point x="278" y="479"/>
      <point x="259" y="483"/>
      <point x="235" y="483" type="curve" smooth="yes"/>
      <point x="142" y="483"/>
      <point x="83" y="421"/>
      <point x="58" y="298" type="curve" smooth="yes"/>
      <point x="34" y="182" type="line" smooth="yes"/>
      <point x="18" y="107"/>
      <point x="25" y="54"/>
      <point x="55" y="23" type="curve" smooth="yes"/>
      <point x="76" y="2"/>
      <point x="108" y="-9"/>
      <point x="150" y="-9" type="curve" smooth="yes"/>
      <point x="255" y="-10"/>
      <point x="321" y="55"/>
    </contour>
    <contour>
      <point x="114" y="70" type="curve" smooth="yes"/>
      <point x="95" y="88"/>
      <point x="91" y="122"/>
      <point x="101" y="170" type="curve" smooth="yes"/>
      <point x="130" y="307" type="line" smooth="yes"/>
      <point x="146" y="383"/>
      <point x="183" y="421"/>
      <point x="241" y="421" type="curve" smooth="yes"/>
      <point x="263" y="421"/>
      <point x="280" y="416"/>
      <point x="291" y="405" type="curve" smooth="yes"/>
      <point x="310" y="387"/>
      <point x="314" y="354"/>
      <point x="304" y="306" type="curve" smooth="yes"/>
      <point x="275" y="170" type="line" smooth="yes"/>
      <point x="259" y="93"/>
      <point x="222" y="54"/>
      <point x="164" y="54" type="curve" smooth="yes"/>
      <point x="142" y="54"/>
      <point x="126" y="59"/>
    </contour>
  </outline>
</glyph>
<glyph name="oslash" format="2">
  <advance width="418"/>
  <unicode hex="00F8"/>
  <outline>
    <contour>
      <point x="-10" y="-31" type="line"/>
      <point x="31" y="-31" type="line"/>
      <point x="64" y="17" type="line"/>
      <point x="85" y="0"/>
      <point x="115" y="-8"/>
      <point x="154" y="-8" type="curve" smooth="yes"/>
      <point x="203" y="-8"/>
      <point x="245" y="7"/>
      <point x="279" y="36" type="curve" smooth="yes"/>
      <point x="313" y="65"/>
      <point x="336" y="111"/>
      <point x="349" y="172" type="curve" smooth="yes"/>
      <point x="387" y="357" type="line" smooth="yes"/>
      <point x="398" y="412"/>
      <point x="396" y="454"/>
      <point x="380" y="484" type="curve"/>
      <point x="429" y="557" type="line"/>
      <point x="388" y="557" type="line"/>
      <point x="356" y="512" type="line"/>
      <point x="336" y="529"/>
      <point x="307" y="538"/>
      <point x="268" y="538" type="curve" smooth="yes"/>
      <point x="217" y="538"/>
      <point x="175" y="523"/>
      <point x="141" y="494" type="curve" smooth="yes"/>
      <point x="107" y="465"/>
      <point x="83" y="419"/>
      <point x="70" y="357" type="curve" smooth="yes"/>
      <point x="32" y="172" type="line" smooth="yes"/>
      <point x="20" y="116"/>
      <point x="23" y="73"/>
      <point x="40" y="44" type="curve"/>
    </contour>
    <contour>
      <point x="98" y="128" type="line"/>
      <point x="98" y="144"/>
      <point x="100" y="161"/>
      <point x="103" y="180" type="curve" smooth="yes"/>
      <point x="139" y="349" type="line" smooth="yes"/>
      <point x="148" y="395"/>
      <point x="163" y="428"/>
      <point x="182" y="447" type="curve" smooth="yes"/>
      <point x="201" y="466"/>
      <point x="225" y="475"/>
      <point x="254" y="475" type="curve" smooth="yes"/>
      <point x="282" y="475"/>
      <point x="301" y="465"/>
      <point x="312" y="446" type="curve"/>
    </contour>
    <contour>
      <point x="106" y="82" type="curve"/>
      <point x="322" y="399" type="line"/>
      <point x="322" y="386"/>
      <point x="320" y="370"/>
      <point x="316" y="349" type="curve" smooth="yes"/>
      <point x="280" y="180" type="line" smooth="yes"/>
      <point x="271" y="135"/>
      <point x="257" y="103"/>
      <point x="238" y="84" type="curve" smooth="yes"/>
      <point x="219" y="64"/>
      <point x="195" y="54"/>
      <point x="166" y="54" type="curve" smooth="yes"/>
      <point x="138" y="54"/>
      <point x="118" y="63"/>
    </contour>
  </outline>
</glyph>
<glyph name="gcommaaccent" format="2">
  <advance width="421"/>
  <unicode hex="0123"/>
  <outline>
    <component base="g"/>
    <contour>
      <point x="232" y="574" type="line"/>
      <point x="298" y="574" type="line"/>
      <point x="326" y="707" type="line"/>
      <point x="248" y="651" type="line"/>
    </contour>
  </outline>
</glyph>
<glyph name="hbar" format="2">
  <advance width="425"/>
  <unicode hex="0127"/>
  <outline>
    <component base="h"/>
    <contour>
      <point x="77" y="593" type="line"/>
      <point x="359" y="593" type="line"/>
      <point x="371" y="639" type="line"/>
      <point x="89" y="639" type="line"/>
    </contour>
  </outline>
</glyph>
<glyph name="Iogonek" format="2">
  <advance width="208"/>
  <unicode hex="012E"/>
  <outline>
    <component base="I"/>
    <contour>
      <point x="52" y="-157" type="curve"/>
      <point x="65" y="-95" type="line"/>
      <point x="41" y="-94"/>
      <point x="18" y="-83"/>
      <point x="9" y="-58" type="curve"/>
      <point x="85" y="0" type="line"/>
      <point x="88" y="12" type="line"/>
      <point x="35" y="12" type="line"/>
      <point x="-35" y="-40" type="line"/>
      <point x="-35" y="-67"/>
      <point x="-32" y="-89"/>
      <point x="-24" y="-106" type="curve" smooth="yes"/>
      <point x="-10" y="-139"/>
      <point x="17" y="-156"/>
    </contour>
  </outline>
</glyph>
<glyph name="iogonek" format="2">
  <advance width="203"/>
  <unicode hex="012F"/>
  <outline>
    <component base="i"/>
    <contour>
      <point x="48" y="-157" type="curve"/>
      <point x="61" y="-95" type="line"/>
      <point x="37" y="-94"/>
      <point x="14" y="-83"/>
      <point x="5" y="-58" type="curve"/>
      <point x="81" y="0" type="line"/>
      <point x="84" y="12" type="line"/>
      <point x="34" y="12" type="line"/>
      <point x="-39" y="-40" type="line"/>
      <point x="-39" y="-67"/>
      <point x="-36" y="-89"/>
      <point x="-28" y="-106" type="curve" smooth="yes"/>
      <point x="-14" y="-139"/>
      <point x="13" y="-156"/>
    </contour>
  </outline>
</glyph>
<glyph name="dotlessi" format="2">
  <advance width="202"/>
  <unicode hex="0131"/>
  <anchor x="211" y="529" name="top"/>
  <outline>
    <contour>
      <point x="12" y="0" type="line"/>
      <point x="81" y="0" type="line"/>
      <point x="191" y="529" type="line"/>
      <point x="122" y="529" type="line"/>
    </contour>
  </outline>
</glyph>
<glyph name="IJ" format="2">
  <advance width="493"/>
  <unicode hex="0132"/>
  <outline>
    <contour>
      <point x="203" y="59" type="curve" smooth="yes"/>
      <point x="238" y="59"/>
      <point x="267" y="70"/>
      <point x="290" y="92" type="curve" smooth="yes"/>
      <point x="314" y="115"/>
      <point x="330" y="145"/>
      <point x="338" y="184" type="curve" smooth="yes"/>
      <point x="449" y="707" type="line"/>
      <point x="524" y="707" type="line"/>
      <point x="412" y="180" type="line" smooth="yes"/>
      <point x="400" y="123"/>
      <point x="373" y="78"/>
      <point x="332" y="44" type="curve" smooth="yes"/>
      <point x="291" y="9"/>
      <point x="243" y="-8"/>
      <point x="188" y="-8" type="curve" smooth="yes"/>
      <point x="153" y="-8"/>
      <point x="123" y="0"/>
      <point x="98" y="16" type="curve" smooth="yes"/>
      <point x="63" y="37"/>
      <point x="43" y="71"/>
      <point x="38" y="119" type="curve"/>
      <point x="117" y="119" type="line"/>
      <point x="127" y="79"/>
      <point x="156" y="59"/>
    </contour>
    <contour>
      <point x="155" y="707" type="line"/>
      <point x="230" y="707" type="line"/>
      <point x="136" y="263" type="line"/>
      <point x="61" y="263" type="line"/>
    </contour>
  </outline>
</glyph>
<glyph name="Lslash" format="2">
  <advance width="400"/>
  <unicode hex="0141"/>
  <outline>
    <component base="L"/>
    <contour>
      <point x="40" y="350" type="line"/>
      <point x="241" y="420" type="line"/>
      <point x="253" y="478" type="line"/>
      <point x="53" y="408" type="line"/>
    </contour>
  </outline>
</glyph>
<glyph name="lslash" format="2">
  <advance width="239"/>
  <unicode hex="0142"/>
  <outline>
    <component base="l"/>
    <contour>
      <point x="45" y="352" type="line"/>
      <point x="214" y="411" type="line"/>
      <point x="227" y="469" type="line"/>
      <point x="57" y="410" type="line"/>
    </contour>
  </outline>
</glyph>
<glyph name="OE" format="2">
  <advance width="699"/>
  <unicode hex="0152"/>
  <outline>
    <contour>
      <point x="182" y="-8" type="curve" smooth="yes"/>
      <point x="237" y="-8"/>
      <point x="284" y="9"/>
      <point x="323" y="43" type="curve"/>
      <point x="314" y="0" type="line"/>
      <point x="608" y="0" type="line"/>
      <point x="622" y="67" type="line"/>
      <point x="394" y="67" type="line"/>
      <point x="433" y="253" type="line" smooth="yes"/>
      <point x="436" y="262"/>
      <point x="439" y="277"/>
      <point x="443" y="296" type="curve" smooth="yes"/>
      <point x="449" y="326" type="line"/>
      <point x="642" y="326" type="line"/>
      <point x="656" y="393" type="line"/>
      <point x="463" y="393" type="line"/>
      <point x="468" y="419" type="line" smooth="yes"/>
      <point x="472" y="438"/>
      <point x="475" y="452"/>
      <point x="476" y="461" type="curve" smooth="yes"/>
      <point x="513" y="640" type="line"/>
      <point x="741" y="640" type="line"/>
      <point x="755" y="707" type="line"/>
      <point x="461" y="707" type="line"/>
      <point x="453" y="668" type="line"/>
      <point x="428" y="701"/>
      <point x="388" y="717"/>
      <point x="333" y="717" type="curve" smooth="yes"/>
      <point x="276" y="717"/>
      <point x="227" y="699"/>
      <point x="186" y="664" type="curve" smooth="yes"/>
      <point x="145" y="629"/>
      <point x="117" y="575"/>
      <point x="102" y="502" type="curve" smooth="yes"/>
      <point x="41" y="206" type="line" smooth="yes"/>
      <point x="26" y="134"/>
      <point x="31" y="80"/>
      <point x="57" y="45" type="curve" smooth="yes"/>
      <point x="83" y="10"/>
      <point x="125" y="-8"/>
    </contour>
    <contour>
      <point x="132" y="84" type="curve" smooth="yes"/>
      <point x="109" y="107"/>
      <point x="104" y="148"/>
      <point x="116" y="205" type="curve" smooth="yes"/>
      <point x="176" y="495" type="line" smooth="yes"/>
      <point x="187" y="547"/>
      <point x="205" y="586"/>
      <point x="230" y="611" type="curve" smooth="yes"/>
      <point x="255" y="636"/>
      <point x="287" y="649"/>
      <point x="326" y="649" type="curve" smooth="yes"/>
      <point x="363" y="649"/>
      <point x="389" y="636"/>
      <point x="404" y="611" type="curve" smooth="yes"/>
      <point x="418" y="586"/>
      <point x="420" y="547"/>
      <point x="409" y="495" type="curve" smooth="yes"/>
      <point x="349" y="205" type="line" smooth="yes"/>
      <point x="338" y="156"/>
      <point x="321" y="120"/>
      <point x="296" y="96" type="curve" smooth="yes"/>
      <point x="271" y="71"/>
      <point x="240" y="59"/>
      <point x="203" y="59" type="curve" smooth="yes"/>
      <point x="171" y="59"/>
      <point x="147" y="67"/>
    </contour>
  </outline>
</glyph>
<glyph name="oe" format="2">
  <advance width="665"/>
  <unicode hex="0153"/>
  <outline>
    <contour>
      <point x="364" y="245" type="line"/>
      <point x="351" y="181" type="line" smooth="yes"/>
      <point x="341" y="134"/>
      <point x="342" y="101"/>
      <point x="354" y="82" type="curve" smooth="yes"/>
      <point x="366" y="62"/>
      <point x="387" y="52"/>
      <point x="416" y="52" type="curve" smooth="yes"/>
      <point x="443" y="52"/>
      <point x="466" y="61"/>
      <point x="485" y="78" type="curve" smooth="yes"/>
      <point x="503" y="95"/>
      <point x="516" y="122"/>
      <point x="523" y="158" type="curve" smooth="yes"/>
      <point x="524" y="162" type="line"/>
      <point x="592" y="162" type="line"/>
      <point x="591" y="159" type="line"/>
      <point x="580" y="104"/>
      <point x="557" y="62"/>
      <point x="524" y="34" type="curve" smooth="yes"/>
      <point x="491" y="6"/>
      <point x="450" y="-8"/>
      <point x="401" y="-8" type="curve" smooth="yes"/>
      <point x="345" y="-8"/>
      <point x="307" y="10"/>
      <point x="288" y="45" type="curve"/>
      <point x="254" y="10"/>
      <point x="209" y="-8"/>
      <point x="154" y="-8" type="curve" smooth="yes"/>
      <point x="103" y="-8"/>
      <point x="67" y="7"/>
      <point x="45" y="36" type="curve" smooth="yes"/>
      <point x="23" y="65"/>
      <point x="19" y="110"/>
      <point x="32" y="172" type="curve" smooth="yes"/>
      <point x="70" y="357" type="line" smooth="yes"/>
      <point x="83" y="419"/>
      <point x="107" y="465"/>
      <point x="141" y="494" type="curve" smooth="yes"/>
      <point x="175" y="523"/>
      <point x="217" y="538"/>
      <point x="268" y="538" type="curve" smooth="yes"/>
      <point x="325" y="538"/>
      <point x="362" y="520"/>
      <point x="379" y="483" type="curve"/>
      <point x="414" y="519"/>
      <point x="459" y="537"/>
      <point x="513" y="538" type="curve" smooth="yes"/>
      <point x="562" y="538"/>
      <point x="598" y="522"/>
      <point x="619" y="491" type="curve" smooth="yes"/>
      <point x="640" y="459"/>
      <point x="645" y="412"/>
      <point x="632" y="351" type="curve" smooth="yes"/>
      <point x="610" y="245" type="line"/>
    </contour>
    <contour>
      <point x="280" y="180" type="curve" smooth="yes"/>
      <point x="316" y="349" type="line" smooth="yes"/>
      <point x="325" y="394"/>
      <point x="325" y="427"/>
      <point x="314" y="446" type="curve" smooth="yes"/>
      <point x="303" y="465"/>
      <point x="283" y="475"/>
      <point x="254" y="475" type="curve" smooth="yes"/>
      <point x="225" y="475"/>
      <point x="201" y="466"/>
      <point x="182" y="447" type="curve" smooth="yes"/>
      <point x="163" y="428"/>
      <point x="148" y="395"/>
      <point x="139" y="349" type="curve" smooth="yes"/>
      <point x="103" y="180" type="line" smooth="yes"/>
      <point x="94" y="134"/>
      <point x="95" y="102"/>
      <point x="106" y="83" type="curve" smooth="yes"/>
      <point x="117" y="64"/>
      <point x="137" y="54"/>
      <point x="166" y="54" type="curve" smooth="yes"/>
      <point x="195" y="54"/>
      <point x="219" y="64"/>
      <point x="238" y="84" type="curve" smooth="yes"/>
      <point x="257" y="103"/>
      <point x="271" y="135"/>
    </contour>
    <contour>
      <point x="386" y="349" type="curve" smooth="yes"/>
      <point x="375" y="298" type="line"/>
      <point x="552" y="298" type="line"/>
      <point x="563" y="351" type="line" smooth="yes"/>
      <point x="572" y="396"/>
      <point x="572" y="428"/>
      <point x="561" y="447" type="curve" smooth="yes"/>
      <point x="550" y="466"/>
      <point x="530" y="475"/>
      <point x="501" y="475" type="curve" smooth="yes"/>
      <point x="472" y="475"/>
      <point x="448" y="466"/>
      <point x="429" y="447" type="curve" smooth="yes"/>
      <point x="410" y="428"/>
      <point x="395" y="395"/>
    </contour>
  </outline>
</glyph>
<glyph name="tbar" format="2">
  <advance width="302"/>
  <unicode hex="0167"/>
  <outline>
    <component base="t"/>
    <contour>
      <point x="42" y="332" type="line"/>
      <point x="280" y="332" type="line"/>
      <point x="292" y="388" type="line"/>
      <point x="54" y="388" type="line"/>
    </contour>
  </outline>
</glyph>
<glyph name="florin" format="2">
  <advance width="392"/>
  <unicode hex="0192"/>
  <outline>
    <contour>
      <point x="-77" y="-156" type="line"/>
      <point x="-57" y="-156" type="line" smooth="yes"/>
      <point x="-8" y="-156"/>
      <point x="32" y="-143"/>
      <point x="62" y="-118" type="curve" smooth="yes"/>
      <point x="91" y="-93"/>
      <point x="116" y="-53"/>
      <point x="135" y="3" type="curve" smooth="yes"/>
      <point x="259" y="356" type="line"/>
      <point x="356" y="356" type="line"/>
      <point x="370" y="422" type="line"/>
      <point x="282" y="422" type="line"/>
      <point x="325" y="548" type="line" smooth="yes"/>
      <point x="334" y="573"/>
      <point x="344" y="593"/>
      <point x="353" y="606" type="curve" smooth="yes"/>
      <point x="362" y="619"/>
      <point x="372" y="628"/>
      <point x="383" y="633" type="curve" smooth="yes"/>
      <point x="394" y="638"/>
      <point x="410" y="640"/>
      <point x="429" y="640" type="curve" smooth="yes"/>
      <point x="460" y="640" type="line"/>
      <point x="474" y="707" type="line"/>
      <point x="443" y="707" type="line" smooth="yes"/>
      <point x="393" y="707"/>
      <point x="353" y="695"/>
      <point x="324" y="670" type="curve" smooth="yes"/>
      <point x="294" y="645"/>
      <point x="269" y="604"/>
      <point x="250" y="549" type="curve" smooth="yes"/>
      <point x="207" y="422" type="line"/>
      <point x="123" y="422" type="line"/>
      <point x="109" y="356" type="line"/>
      <point x="184" y="356" type="line"/>
      <point x="62" y="5" type="line" smooth="yes"/>
      <point x="53" y="-21"/>
      <point x="44" y="-41"/>
      <point x="35" y="-54" type="curve" smooth="yes"/>
      <point x="26" y="-67"/>
      <point x="15" y="-76"/>
      <point x="4" y="-81" type="curve" smooth="yes"/>
      <point x="-7" y="-86"/>
      <point x="-23" y="-89"/>
      <point x="-42" y="-89" type="curve" smooth="yes"/>
      <point x="-63" y="-89" type="line"/>
    </contour>
  </outline>
</glyph>
<glyph name="lbar" format="2">
  <advance width="239"/>
  <unicode hex="019A"/>
  <outline>
    <component base="l"/>
    <contour>
      <point x="37" y="389" type="line"/>
      <point x="239" y="389" type="line"/>
      <point x="225" y="323" type="line"/>
      <point x="23" y="323" type="line"/>
    </contour>
  </outline>
</glyph>
<glyph name="oogonek" format="2">
  <advance width="418"/>
  <unicode hex="01EB"/>
  <outline>
    <contour>
      <point x="166" y="-217" type="curve"/>
      <point x="184" y="-132" type="line"/>
      <point x="160" y="-130"/>
      <point x="137" y="-115"/>
      <point x="130" y="-80" type="curve"/>
      <point x="210" y="-1" type="line"/>
      <point x="236" y="6"/>
      <point x="259" y="19"/>
      <point x="279" y="36" type="curve" smooth="yes"/>
      <point x="313" y="65"/>
      <point x="336" y="111"/>
      <point x="349" y="172" type="curve" smooth="yes"/>
      <point x="387" y="357" type="line" smooth="yes"/>
      <point x="400" y="419"/>
      <point x="396" y="465"/>
      <point x="375" y="494" type="curve" smooth="yes"/>
      <point x="353" y="523"/>
      <point x="317" y="538"/>
      <point x="268" y="538" type="curve" smooth="yes"/>
      <point x="217" y="538"/>
      <point x="175" y="523"/>
      <point x="141" y="494" type="curve" smooth="yes"/>
      <point x="107" y="465"/>
      <point x="83" y="419"/>
      <point x="70" y="357" type="curve" smooth="yes"/>
      <point x="32" y="172" type="line" smooth="yes"/>
      <point x="19" y="110"/>
      <point x="24" y="65"/>
      <point x="45" y="36" type="curve" smooth="yes"/>
      <point x="67" y="7"/>
      <point x="102" y="-8"/>
      <point x="152" y="-8" type="curve"/>
      <point x="87" y="-56" type="line"/>
      <point x="86" y="-93"/>
      <point x="86" y="-123"/>
      <point x="93" y="-147" type="curve" smooth="yes"/>
      <point x="105" y="-192"/>
      <point x="130" y="-216"/>
    </contour>
    <contour>
      <point x="106" y="83" type="curve" smooth="yes"/>
      <point x="95" y="102"/>
      <point x="94" y="134"/>
      <point x="103" y="180" type="curve" smooth="yes"/>
      <point x="139" y="349" type="line" smooth="yes"/>
      <point x="148" y="395"/>
      <point x="163" y="428"/>
      <point x="182" y="447" type="curve" smooth="yes"/>
      <point x="201" y="466"/>
      <point x="225" y="475"/>
      <point x="254" y="475" type="curve" smooth="yes"/>
      <point x="283" y="475"/>
      <point x="303" y="465"/>
      <point x="314" y="446" type="curve" smooth="yes"/>
      <point x="325" y="427"/>
      <point x="325" y="394"/>
      <point x="316" y="349" type="curve" smooth="yes"/>
      <point x="280" y="180" type="line" smooth="yes"/>
      <point x="271" y="135"/>
      <point x="257" y="103"/>
      <point x="238" y="84" type="curve" smooth="yes"/>
      <point x="219" y="64"/>
      <point x="195" y="54"/>
      <point x="166" y="54" type="curve" smooth="yes"/>
      <point x="137" y="54"/>
      <point x="117" y="64"/>
    </contour>
  </outline>
</glyph>
<glyph name="jcaron" format="2">
  <advance width="199"/>
  <unicode hex="01F0"/>
  <outline>
    <contour>
      <point x="-100" y="-93" type="line"/>
      <point x="-84" y="-93" type="line" smooth="yes"/>
      <point x="-35" y="-93"/>
      <point x="-6" y="-66"/>
      <point x="5" y="-12" type="curve" smooth="yes"/>
      <point x="117" y="529" type="line"/>
      <point x="188" y="529" type="line"/>
      <point x="75" y="-15" type="line" smooth="yes"/>
      <point x="66" y="-61"/>
      <point x="46" y="-96"/>
      <point x="17" y="-120" type="curve" smooth="yes"/>
      <point x="-12" y="-144"/>
      <point x="-50" y="-156"/>
      <point x="-95" y="-156" type="curve" smooth="yes"/>
      <point x="-113" y="-156" type="line"/>
    </contour>
    <contour>
      <point x="64" y="736" type="line"/>
      <point x="133" y="736" type="line"/>
      <point x="179" y="644" type="line"/>
      <point x="263" y="736" type="line"/>
      <point x="331" y="736" type="line"/>
      <point x="199" y="590" type="line"/>
      <point x="133" y="590" type="line"/>
    </contour>
  </outline>
</glyph>
<glyph name="circumflex" format="2">
  <advance width="513"/>
  <unicode hex="02C6"/>
  <outline>
    <contour>
      <point x="189" y="582" type="line"/>
      <point x="257" y="582" type="line"/>
      <point x="342" y="674" type="line"/>
      <point x="388" y="582" type="line"/>
      <point x="456" y="582" type="line"/>
      <point x="384" y="728" type="line"/>
      <point x="318" y="728" type="line"/>
    </contour>
  </outline>
</glyph>
<glyph name="caron" format="2">
  <advance width="532"/>
  <unicode hex="02C7"/>
  <outline>
    <contour>
      <point x="300" y="590" type="line"/>
      <point x="366" y="590" type="line"/>
      <point x="498" y="736" type="line"/>
      <point x="430" y="736" type="line"/>
      <point x="346" y="644" type="line"/>
      <point x="300" y="736" type="line"/>
      <point x="231" y="736" type="line"/>
    </contour>
  </outline>
</glyph>
<glyph name="ring" format="2">
  <advance width="524"/>
  <unicode hex="02DA"/>
  <outline>
    <contour>
      <point x="253" y="660" type="curve" smooth="yes"/>
      <point x="258" y="686"/>
      <point x="271" y="708"/>
      <point x="292" y="726" type="curve" smooth="yes"/>
      <point x="313" y="743"/>
      <point x="336" y="752"/>
      <point x="362" y="752" type="curve" smooth="yes"/>
      <point x="389" y="752"/>
      <point x="409" y="743"/>
      <point x="423" y="726" type="curve" smooth="yes"/>
      <point x="436" y="708"/>
      <point x="440" y="686"/>
      <point x="435" y="660" type="curve" smooth="yes"/>
      <point x="430" y="634"/>
      <point x="417" y="612"/>
      <point x="396" y="595" type="curve" smooth="yes"/>
      <point x="375" y="578"/>
      <point x="351" y="569"/>
      <point x="324" y="569" type="curve" smooth="yes"/>
      <point x="298" y="569"/>
      <point x="278" y="578"/>
      <point x="265" y="596" type="curve" smooth="yes"/>
      <point x="252" y="613"/>
      <point x="248" y="635"/>
    </contour>
    <contour>
      <point x="393" y="660" type="curve" smooth="yes"/>
      <point x="396" y="675"/>
      <point x="395" y="688"/>
      <point x="388" y="698" type="curve" smooth="yes"/>
      <point x="381" y="708"/>
      <point x="369" y="713"/>
      <point x="354" y="713" type="curve" smooth="yes"/>
      <point x="339" y="713"/>
      <point x="327" y="708"/>
      <point x="316" y="698" type="curve" smooth="yes"/>
      <point x="305" y="688"/>
      <point x="297" y="675"/>
      <point x="294" y="660" type="curve" smooth="yes"/>
      <point x="291" y="645"/>
      <point x="293" y="632"/>
      <point x="301" y="623" type="curve" smooth="yes"/>
      <point x="308" y="614"/>
      <point x="319" y="609"/>
      <point x="333" y="609" type="curve" smooth="yes"/>
      <point x="348" y="609"/>
      <point x="362" y="614"/>
      <point x="373" y="624" type="curve" smooth="yes"/>
      <point x="384" y="633"/>
      <point x="390" y="645"/>
    </contour>
  </outline>
</glyph>
<glyph name="ogonek" format="2">
  <advance width="391"/>
  <unicode hex="02DB"/>
  <outline>
    <contour>
      <point x="166" y="-217" type="curve"/>
      <point x="184" y="-132" type="line"/>
      <point x="160" y="-130"/>
      <point x="137" y="-115"/>
      <point x="130" y="-80" type="curve"/>
      <point x="211" y="0" type="line"/>
      <point x="214" y="16" type="line"/>
      <point x="184" y="16" type="line"/>
      <point x="87" y="-56" type="line"/>
      <point x="86" y="-93"/>
      <point x="86" y="-123"/>
      <point x="93" y="-147" type="curve" smooth="yes"/>
      <point x="105" y="-192"/>
      <point x="130" y="-216"/>
    </contour>
  </outline>
</glyph>
<glyph name="gravecomb" format="2">
  <unicode hex="0300"/>
  <outline>
    <contour>
      <point x="66" y="590" type="line"/>
      <point x="123" y="590" type="line"/>
      <point x="57" y="722" type="line"/>
      <point x="-19" y="722" type="line"/>
    </contour>
  </outline>
</glyph>
<glyph name="circumflexcmb" format="2">
  <unicode hex="0302"/>
  <outline>
    <contour>
      <point x="-67" y="582" type="line"/>
      <point x="1" y="582" type="line"/>
      <point x="86" y="674" type="line"/>
      <point x="132" y="582" type="line"/>
      <point x="200" y="582" type="line"/>
      <point x="128" y="728" type="line"/>
      <point x="62" y="728" type="line"/>
    </contour>
  </outline>
</glyph>
<glyph name="tildecomb" format="2">
  <unicode hex="0303"/>
  <outline>
    <contour>
      <point x="-45" y="583" type="line"/>
      <point x="-29" y="598"/>
      <point x="-16" y="608"/>
      <point x="-6" y="614" type="curve" smooth="yes"/>
      <point x="3" y="619"/>
      <point x="13" y="622"/>
      <point x="24" y="622" type="curve" smooth="yes"/>
      <point x="31" y="622"/>
      <point x="37" y="621"/>
      <point x="42" y="618" type="curve" smooth="yes"/>
      <point x="47" y="615"/>
      <point x="53" y="610"/>
      <point x="62" y="605" type="curve" smooth="yes"/>
      <point x="71" y="599"/>
      <point x="80" y="594"/>
      <point x="87" y="591" type="curve" smooth="yes"/>
      <point x="94" y="588"/>
      <point x="103" y="586"/>
      <point x="114" y="586" type="curve" smooth="yes"/>
      <point x="127" y="586"/>
      <point x="139" y="589"/>
      <point x="149" y="594" type="curve" smooth="yes"/>
      <point x="159" y="599"/>
      <point x="171" y="608"/>
      <point x="184" y="621" type="curve"/>
      <point x="199" y="692" type="line"/>
      <point x="182" y="677"/>
      <point x="170" y="667"/>
      <point x="162" y="662" type="curve" smooth="yes"/>
      <point x="153" y="657"/>
      <point x="144" y="654"/>
      <point x="134" y="654" type="curve" smooth="yes"/>
      <point x="125" y="654"/>
      <point x="118" y="656"/>
      <point x="111" y="659" type="curve" smooth="yes"/>
      <point x="104" y="662"/>
      <point x="97" y="667"/>
      <point x="89" y="673" type="curve" smooth="yes"/>
      <point x="81" y="679"/>
      <point x="74" y="684"/>
      <point x="67" y="687" type="curve" smooth="yes"/>
      <point x="60" y="690"/>
      <point x="52" y="691"/>
      <point x="42" y="691" type="curve" smooth="yes"/>
      <point x="29" y="691"/>
      <point x="18" y="688"/>
      <point x="8" y="683" type="curve" smooth="yes"/>
      <point x="-3" y="678"/>
      <point x="-15" y="669"/>
      <point x="-30" y="656" type="curve"/>
    </contour>
  </outline>
</glyph>
<glyph name="macroncmb" format="2">
  <unicode hex="0304"/>
  <outline>
    <contour>
      <point x="-50" y="605" type="line"/>
      <point x="187" y="605" type="line"/>
      <point x="200" y="668" type="line"/>
      <point x="-37" y="668" type="line"/>
    </contour>
  </outline>
</glyph>
<glyph name="brevecmb" format="2">
  <unicode hex="0306"/>
  <outline>
    <contour>
      <point x="39" y="573" type="curve" smooth="yes"/>
      <point x="122" y="573"/>
      <point x="176" y="621"/>
      <point x="194" y="707" type="curve" smooth="yes"/>
      <point x="198" y="725" type="line"/>
      <point x="132" y="725" type="line"/>
      <point x="128" y="707" type="line" smooth="yes"/>
      <point x="118" y="657"/>
      <point x="93" y="633"/>
      <point x="52" y="633" type="curve" smooth="yes"/>
      <point x="11" y="633"/>
      <point x="-4" y="657"/>
      <point x="6" y="707" type="curve" smooth="yes"/>
      <point x="10" y="725" type="line"/>
      <point x="-56" y="725" type="line"/>
      <point x="-60" y="707" type="line" smooth="yes"/>
      <point x="-78" y="621"/>
      <point x="-44" y="573"/>
    </contour>
  </outline>
</glyph>
<glyph name="dotaccentcmb" format="2">
  <unicode hex="0307"/>
  <outline>
    <contour>
      <point x="36" y="609" type="line"/>
      <point x="108" y="609" type="line"/>
      <point x="126" y="701" type="line"/>
      <point x="56" y="701" type="line"/>
    </contour>
  </outline>
</glyph>
<glyph name="ringcmb" format="2">
  <unicode hex="030A"/>
  <outline>
    <contour>
      <point x="-9" y="660" type="curve" smooth="yes"/>
      <point x="-4" y="686"/>
      <point x="9" y="708"/>
      <point x="30" y="726" type="curve" smooth="yes"/>
      <point x="51" y="743"/>
      <point x="74" y="752"/>
      <point x="100" y="752" type="curve" smooth="yes"/>
      <point x="127" y="752"/>
      <point x="147" y="743"/>
      <point x="161" y="726" type="curve" smooth="yes"/>
      <point x="174" y="708"/>
      <point x="178" y="686"/>
      <point x="173" y="660" type="curve" smooth="yes"/>
      <point x="168" y="634"/>
      <point x="155" y="612"/>
      <point x="134" y="595" type="curve" smooth="yes"/>
      <point x="113" y="578"/>
      <point x="89" y="569"/>
      <point x="62" y="569" type="curve" smooth="yes"/>
      <point x="36" y="569"/>
      <point x="16" y="578"/>
      <point x="3" y="596" type="curve" smooth="yes"/>
      <point x="-10" y="613"/>
      <point x="-14" y="635"/>
    </contour>
    <contour>
      <point x="131" y="660" type="curve" smooth="yes"/>
      <point x="134" y="675"/>
      <point x="133" y="688"/>
      <point x="126" y="698" type="curve" smooth="yes"/>
      <point x="119" y="708"/>
      <point x="107" y="713"/>
      <point x="92" y="713" type="curve" smooth="yes"/>
      <point x="77" y="713"/>
      <point x="65" y="708"/>
      <point x="54" y="698" type="curve" smooth="yes"/>
      <point x="43" y="688"/>
      <point x="35" y="675"/>
      <point x="32" y="660" type="curve" smooth="yes"/>
      <point x="29" y="645"/>
      <point x="31" y="632"/>
      <point x="38" y="623" type="curve" smooth="yes"/>
      <point x="45" y="614"/>
      <point x="56" y="609"/>
      <point x="71" y="609" type="curve" smooth="yes"/>
      <point x="86" y="609"/>
      <point x="100" y="614"/>
      <point x="111" y="624" type="curve" smooth="yes"/>
      <point x="122" y="633"/>
      <point x="128" y="645"/>
    </contour>
  </outline>
</glyph>
<glyph name="caroncmb" format="2">
  <unicode hex="030C"/>
  <outline>
    <contour>
      <point x="-36" y="736" type="line"/>
      <point x="33" y="736" type="line"/>
      <point x="79" y="644" type="line"/>
      <point x="163" y="736" type="line"/>
      <point x="231" y="736" type="line"/>
      <point x="99" y="590" type="line"/>
      <point x="33" y="590" type="line"/>
    </contour>
  </outline>
</glyph>
<glyph name="Djecyr" format="2">
  <advance width="558"/>
  <unicode hex="0402"/>
  <anchor x="156" y="0" name="b.cedilla"/>
  <anchor x="188" y="-86" name="bottom"/>
  <anchor x="170" y="760" name="top"/>
  <outline>
    <contour>
      <point x="98" y="707" type="line"/>
      <point x="463" y="707" type="line"/>
      <point x="449" y="640" type="line"/>
      <point x="303" y="640" type="line"/>
      <point x="255" y="408" type="line"/>
      <point x="354" y="408" type="line" smooth="yes"/>
      <point x="475" y="408"/>
      <point x="521" y="341"/>
      <point x="493" y="206" type="curve" smooth="yes"/>
      <point x="464" y="67"/>
      <point x="391" y="0"/>
      <point x="269" y="0" type="curve" smooth="yes"/>
      <point x="231" y="0" type="line"/>
      <point x="245" y="67" type="line"/>
      <point x="279" y="67" type="line" smooth="yes"/>
      <point x="356" y="68"/>
      <point x="399" y="109"/>
      <point x="419" y="206" type="curve" smooth="yes"/>
      <point x="438" y="299"/>
      <point x="412" y="341"/>
      <point x="336" y="341" type="curve" smooth="yes"/>
      <point x="241" y="341" type="line"/>
      <point x="170" y="0" type="line"/>
      <point x="97" y="0" type="line"/>
      <point x="230" y="640" type="line"/>
      <point x="84" y="640" type="line"/>
    </contour>
  </outline>
</glyph>
<glyph name="Ljecyr" format="2">
  <advance width="789"/>
  <unicode hex="0409"/>
  <outline>
    <component base="Elcyr"/>
    <contour>
      <point x="456" y="408" type="line"/>
      <point x="585" y="408" type="line" smooth="yes"/>
      <point x="706" y="408"/>
      <point x="752" y="341"/>
      <point x="724" y="206" type="curve" smooth="yes"/>
      <point x="695" y="67"/>
      <point x="622" y="0"/>
      <point x="500" y="0" type="curve" smooth="yes"/>
      <point x="371" y="0" type="line"/>
      <point x="385" y="67" type="line"/>
      <point x="510" y="67" type="line" smooth="yes"/>
      <point x="587" y="67"/>
      <point x="630" y="109"/>
      <point x="650" y="206" type="curve" smooth="yes"/>
      <point x="669" y="299"/>
      <point x="643" y="341"/>
      <point x="567" y="341" type="curve" smooth="yes"/>
      <point x="442" y="341" type="line"/>
    </contour>
  </outline>
</glyph>
<glyph name="Njecyr" format="2">
  <advance width="769"/>
  <unicode hex="040A"/>
  <outline>
    <component base="H"/>
    <contour>
      <point x="351" y="0" type="line"/>
      <point x="480" y="0" type="line" smooth="yes"/>
      <point x="602" y="0"/>
      <point x="675" y="67"/>
      <point x="704" y="206" type="curve" smooth="yes"/>
      <point x="732" y="341"/>
      <point x="686" y="408"/>
      <point x="565" y="408" type="curve" smooth="yes"/>
      <point x="436" y="408" type="line"/>
      <point x="422" y="341" type="line"/>
      <point x="547" y="341" type="line" smooth="yes"/>
      <point x="623" y="341"/>
      <point x="649" y="299"/>
      <point x="630" y="206" type="curve" smooth="yes"/>
      <point x="610" y="109"/>
      <point x="567" y="67"/>
      <point x="490" y="67" type="curve" smooth="yes"/>
      <point x="365" y="67" type="line"/>
    </contour>
  </outline>
</glyph>
<glyph name="Tshecyr" format="2">
  <advance width="569"/>
  <unicode hex="040B"/>
  <outline>
    <contour>
      <point x="98" y="707" type="line"/>
      <point x="463" y="707" type="line"/>
      <point x="449" y="640" type="line"/>
      <point x="303" y="640" type="line"/>
      <point x="255" y="408" type="line"/>
      <point x="294" y="422"/>
      <point x="333" y="428"/>
      <point x="369" y="428" type="curve" smooth="yes"/>
      <point x="490" y="428"/>
      <point x="532" y="341"/>
      <point x="504" y="206" type="curve" smooth="yes"/>
      <point x="461" y="0" type="line"/>
      <point x="387" y="0" type="line"/>
      <point x="430" y="206" type="line" smooth="yes"/>
      <point x="449" y="299"/>
      <point x="427" y="361"/>
      <point x="351" y="361" type="curve" smooth="yes"/>
      <point x="316" y="361"/>
      <point x="279" y="355"/>
      <point x="241" y="341" type="curve"/>
      <point x="170" y="0" type="line"/>
      <point x="97" y="0" type="line"/>
      <point x="230" y="640" type="line"/>
      <point x="84" y="640" type="line"/>
    </contour>
  </outline>
</glyph>
<glyph name="Dzhecyr" format="2">
  <advance width="471"/>
  <unicode hex="040F"/>
  <outline>
    <contour>
      <point x="108" y="-170" type="line"/>
      <point x="183" y="-170" type="line"/>
      <point x="218" y="0" type="line"/>
      <point x="355" y="0" type="line"/>
      <point x="502" y="707" type="line"/>
      <point x="427" y="707" type="line"/>
      <point x="294" y="67" type="line"/>
      <point x="95" y="67" type="line"/>
      <point x="228" y="707" type="line"/>
      <point x="153" y="707" type="line"/>
      <point x="6" y="0" type="line"/>
      <point x="143" y="0" type="line"/>
    </contour>
  </outline>
</glyph>
<glyph name="Becyr" format="2">
  <advance width="479"/>
  <unicode hex="0411"/>
  <outline>
    <contour>
      <point x="6" y="0" type="line"/>
      <point x="190" y="0" type="line" smooth="yes"/>
      <point x="312" y="0"/>
      <point x="385" y="67"/>
      <point x="414" y="206" type="curve" smooth="yes"/>
      <point x="442" y="341"/>
      <point x="396" y="408"/>
      <point x="275" y="408" type="curve" smooth="yes"/>
      <point x="166" y="408" type="line"/>
      <point x="214" y="640" type="line"/>
      <point x="454" y="640" type="line"/>
      <point x="468" y="707" type="line"/>
      <point x="153" y="707" type="line"/>
    </contour>
    <contour>
      <point x="95" y="67" type="line"/>
      <point x="152" y="341" type="line"/>
      <point x="257" y="341" type="line" smooth="yes"/>
      <point x="333" y="341"/>
      <point x="359" y="299"/>
      <point x="340" y="206" type="curve" smooth="yes"/>
      <point x="320" y="109"/>
      <point x="277" y="67"/>
      <point x="200" y="67" type="curve" smooth="yes"/>
    </contour>
  </outline>
</glyph>
<glyph name="Gecyr" format="2">
  <advance width="406"/>
  <unicode hex="0413"/>
  <outline>
    <contour>
      <point x="153" y="707" type="line"/>
      <point x="468" y="707" type="line"/>
      <point x="454" y="640" type="line"/>
      <point x="214" y="640" type="line"/>
      <point x="81" y="0" type="line"/>
      <point x="6" y="0" type="line"/>
    </contour>
  </outline>
</glyph>
<glyph name="Decyr" format="2">
  <advance width="574"/>
  <unicode hex="0414"/>
  <outline>
    <contour>
      <point x="-80" y="-170" type="line"/>
      <point x="-5" y="-170" type="line"/>
      <point x="30" y="0" type="line"/>
      <point x="433" y="0" type="line"/>
      <point x="398" y="-170" type="line"/>
      <point x="473" y="-170" type="line"/>
      <point x="522" y="67" type="line"/>
      <point x="463" y="67" type="line"/>
      <point x="596" y="707" type="line"/>
      <point x="275" y="707" type="line"/>
      <point x="203" y="455" type="line" smooth="yes"/>
      <point x="165" y="324"/>
      <point x="116" y="188"/>
      <point x="25" y="67" type="curve"/>
      <point x="-31" y="67" type="line"/>
    </contour>
    <contour>
      <point x="105" y="67" type="line"/>
      <point x="185" y="174"/>
      <point x="238" y="303"/>
      <point x="270" y="420" type="curve" smooth="yes"/>
      <point x="331" y="640" type="line"/>
      <point x="507" y="640" type="line"/>
      <point x="388" y="67" type="line"/>
    </contour>
  </outline>
</glyph>
<glyph name="Zhecyr" format="2">
  <advance width="755"/>
  <unicode hex="0416"/>
  <outline>
    <contour>
      <point x="408" y="327" type="line"/>
      <point x="533" y="327" type="line"/>
      <point x="548" y="393" type="line"/>
      <point x="422" y="393" type="line"/>
    </contour>
    <contour>
      <point x="285" y="0" type="line"/>
      <point x="360" y="0" type="line"/>
      <point x="507" y="707" type="line"/>
      <point x="432" y="707" type="line"/>
    </contour>
    <contour>
      <point x="608" y="0" type="line"/>
      <point x="690" y="0" type="line"/>
      <point x="558" y="393" type="line"/>
      <point x="493" y="335" type="line"/>
    </contour>
    <contour>
      <point x="494" y="341" type="line"/>
      <point x="552" y="341" type="line"/>
      <point x="812" y="707" type="line"/>
      <point x="733" y="707" type="line"/>
      <point x="500" y="370" type="line"/>
    </contour>
    <contour>
      <point x="248" y="327" type="line"/>
      <point x="373" y="327" type="line"/>
      <point x="387" y="393" type="line"/>
      <point x="261" y="393" type="line"/>
    </contour>
    <contour>
      <point x="285" y="0" type="line"/>
      <point x="360" y="0" type="line"/>
      <point x="507" y="707" type="line"/>
      <point x="432" y="707" type="line"/>
    </contour>
    <contour>
      <point x="-45" y="0" type="line"/>
      <point x="37" y="0" type="line"/>
      <point x="292" y="335" type="line"/>
      <point x="251" y="393" type="line"/>
    </contour>
    <contour>
      <point x="235" y="341" type="line"/>
      <point x="293" y="341" type="line"/>
      <point x="299" y="370" type="line"/>
      <point x="206" y="707" type="line"/>
      <point x="127" y="707" type="line"/>
    </contour>
  </outline>
</glyph>
<glyph name="Zecyr" format="2">
  <advance width="457"/>
  <unicode hex="0417"/>
  <outline>
    <contour>
      <point x="48" y="200" type="line"/>
      <point x="46" y="191" type="line" smooth="yes"/>
      <point x="18" y="57"/>
      <point x="81" y="-8"/>
      <point x="174" y="-8" type="curve" smooth="yes"/>
      <point x="299" y="-8"/>
      <point x="362" y="64"/>
      <point x="390" y="195" type="curve" smooth="yes"/>
      <point x="392" y="208" type="line" smooth="yes"/>
      <point x="411" y="296"/>
      <point x="386" y="349"/>
      <point x="325" y="367" type="curve"/>
      <point x="392" y="390"/>
      <point x="434" y="441"/>
      <point x="451" y="522" type="curve" smooth="yes"/>
      <point x="454" y="541" type="line" smooth="yes"/>
      <point x="478" y="653"/>
      <point x="432" y="716"/>
      <point x="328" y="716" type="curve" smooth="yes"/>
      <point x="224" y="716"/>
      <point x="139" y="638"/>
      <point x="114" y="519" type="curve" smooth="yes"/>
      <point x="112" y="510" type="line"/>
      <point x="187" y="510" type="line"/>
      <point x="189" y="519" type="line" smooth="yes"/>
      <point x="206" y="601"/>
      <point x="252" y="649"/>
      <point x="315" y="649" type="curve" smooth="yes"/>
      <point x="369" y="649"/>
      <point x="393" y="607"/>
      <point x="379" y="540" type="curve" smooth="yes"/>
      <point x="375" y="518" type="line" smooth="yes"/>
      <point x="358" y="439"/>
      <point x="314" y="399"/>
      <point x="240" y="399" type="curve" smooth="yes"/>
      <point x="204" y="399" type="line"/>
      <point x="190" y="333" type="line"/>
      <point x="227" y="333" type="line" smooth="yes"/>
      <point x="304" y="333"/>
      <point x="334" y="289"/>
      <point x="316" y="200" type="curve" smooth="yes"/>
      <point x="312" y="181" type="line" smooth="yes"/>
      <point x="295" y="102"/>
      <point x="258" y="59"/>
      <point x="198" y="59" type="curve" smooth="yes"/>
      <point x="142" y="59"/>
      <point x="100" y="93"/>
      <point x="121" y="191" type="curve" smooth="yes"/>
      <point x="123" y="200" type="line"/>
    </contour>
  </outline>
</glyph>
<glyph name="Icyr" format="2">
  <advance width="506"/>
  <unicode hex="0418"/>
  <guideline x="238" y="0" angle="90" name="h1"/>
  <anchor x="238" y="760" name="top"/>
  <outline>
    <contour>
      <point x="6" y="0" type="line"/>
      <point x="91" y="0" type="line"/>
      <point x="380" y="473" type="line" smooth="yes"/>
      <point x="406" y="514"/>
      <point x="425" y="551"/>
      <point x="447" y="598" type="curve"/>
      <point x="450" y="598" type="line"/>
      <point x="434" y="556"/>
      <point x="416" y="487"/>
      <point x="408" y="447" type="curve" smooth="yes"/>
      <point x="315" y="0" type="line"/>
      <point x="390" y="0" type="line"/>
      <point x="537" y="707" type="line"/>
      <point x="452" y="707" type="line"/>
      <point x="185" y="272" type="line" smooth="yes"/>
      <point x="150" y="216"/>
      <point x="121" y="158"/>
      <point x="94" y="99" type="curve"/>
      <point x="91" y="99" type="line"/>
      <point x="108" y="144"/>
      <point x="123" y="200"/>
      <point x="131" y="240" type="curve" smooth="yes"/>
      <point x="228" y="707" type="line"/>
      <point x="153" y="707" type="line"/>
    </contour>
  </outline>
</glyph>
<glyph name="Kacyr" format="2">
  <advance width="472"/>
  <unicode hex="041A"/>
  <guideline x="236" y="0" angle="90" name="h1"/>
  <anchor x="236" y="760" name="top"/>
  <outline>
    <contour>
      <point x="129" y="327" type="line"/>
      <point x="254" y="327" type="line"/>
      <point x="269" y="393" type="line"/>
      <point x="143" y="393" type="line"/>
    </contour>
    <contour>
      <point x="6" y="0" type="line"/>
      <point x="81" y="0" type="line"/>
      <point x="228" y="707" type="line"/>
      <point x="153" y="707" type="line"/>
    </contour>
    <contour>
      <point x="329" y="0" type="line"/>
      <point x="411" y="0" type="line"/>
      <point x="279" y="393" type="line"/>
      <point x="214" y="335" type="line"/>
    </contour>
    <contour>
      <point x="215" y="341" type="line"/>
      <point x="273" y="341" type="line"/>
      <point x="533" y="707" type="line"/>
      <point x="454" y="707" type="line"/>
      <point x="221" y="370" type="line"/>
    </contour>
  </outline>
</glyph>
<glyph name="Elcyr" format="2">
  <advance width="520"/>
  <unicode hex="041B"/>
  <guideline x="192" y="420" angle="86.0137"/>
  <guideline x="137" y="707" angle="265.462"/>
  <outline>
    <contour>
      <point x="-35" y="0" type="line"/>
      <point x="75" y="0"/>
      <point x="124" y="59"/>
      <point x="153" y="162" type="curve" smooth="yes"/>
      <point x="285" y="640" type="line"/>
      <point x="461" y="640" type="line"/>
      <point x="328" y="0" type="line"/>
      <point x="403" y="0" type="line"/>
      <point x="550" y="707" type="line"/>
      <point x="229" y="707" type="line"/>
      <point x="71" y="157" type="line" smooth="yes"/>
      <point x="55" y="99"/>
      <point x="24" y="67"/>
      <point x="-21" y="67" type="curve"/>
    </contour>
  </outline>
</glyph>
<glyph name="Pecyr" format="2">
  <advance width="493"/>
  <unicode hex="041F"/>
  <outline>
    <contour>
      <point x="6" y="0" type="line"/>
      <point x="81" y="0" type="line"/>
      <point x="214" y="640" type="line"/>
      <point x="435" y="640" type="line"/>
      <point x="302" y="0" type="line"/>
      <point x="377" y="0" type="line"/>
      <point x="524" y="707" type="line"/>
      <point x="153" y="707" type="line"/>
    </contour>
  </outline>
</glyph>
<glyph name="Ucyr" format="2">
  <advance width="401"/>
  <unicode hex="0423"/>
  <guideline x="200" y="0" angle="90" name="h1"/>
  <anchor x="200" y="760" name="top"/>
  <outline>
    <contour>
      <point x="101" y="707" type="line"/>
      <point x="183" y="707" type="line"/>
      <point x="202" y="286" type="line"/>
      <point x="402" y="707" type="line"/>
      <point x="484" y="707" type="line"/>
      <point x="189" y="114" type="line" smooth="yes"/>
      <point x="154" y="44"/>
      <point x="90" y="0"/>
      <point x="30" y="0" type="curve" smooth="yes"/>
      <point x="23" y="0" type="line"/>
      <point x="38" y="72" type="line"/>
      <point x="46" y="72" type="line" smooth="yes"/>
      <point x="71" y="72"/>
      <point x="101" y="93"/>
      <point x="121" y="129" type="curve" smooth="yes"/>
      <point x="138" y="161" type="line"/>
    </contour>
  </outline>
</glyph>
<glyph name="Efcyr" format="2">
  <advance width="549"/>
  <unicode hex="0424"/>
  <guideline x="275" y="0" angle="90" name="h1"/>
  <anchor x="275" y="760" name="top"/>
  <outline>
    <contour>
      <point x="182" y="0" type="line"/>
      <point x="257" y="0" type="line"/>
      <point x="268" y="52" type="line"/>
      <point x="384" y="55"/>
      <point x="469" y="133"/>
      <point x="496" y="266" type="curve" smooth="yes"/>
      <point x="533" y="441" type="line" smooth="yes"/>
      <point x="561" y="576"/>
      <point x="511" y="653"/>
      <point x="393" y="656" type="curve"/>
      <point x="404" y="707" type="line"/>
      <point x="329" y="707" type="line"/>
      <point x="318" y="656" type="line"/>
      <point x="201" y="652"/>
      <point x="118" y="576"/>
      <point x="90" y="441" type="curve" smooth="yes"/>
      <point x="53" y="266" type="line" smooth="yes"/>
      <point x="26" y="134"/>
      <point x="78" y="56"/>
      <point x="193" y="52" type="curve"/>
    </contour>
    <contour>
      <point x="282" y="119" type="curve"/>
      <point x="379" y="588" type="line"/>
      <point x="451" y="585"/>
      <point x="477" y="533"/>
      <point x="456" y="434" type="curve" smooth="yes"/>
      <point x="421" y="265" type="line" smooth="yes"/>
      <point x="402" y="174"/>
      <point x="352" y="122"/>
    </contour>
    <contour>
      <point x="207" y="119" type="line"/>
      <point x="135" y="123"/>
      <point x="109" y="172"/>
      <point x="128" y="265" type="curve" smooth="yes"/>
      <point x="163" y="434" type="line" smooth="yes"/>
      <point x="184" y="533"/>
      <point x="230" y="584"/>
      <point x="304" y="588" type="curve"/>
    </contour>
  </outline>
</glyph>
<glyph name="Checyr" format="2">
  <advance width="492"/>
  <unicode hex="0427"/>
  <outline>
    <contour>
      <point x="300" y="0" type="line"/>
      <point x="376" y="0" type="line"/>
      <point x="523" y="707" type="line"/>
      <point x="447" y="707" type="line"/>
      <point x="364" y="308" type="line"/>
      <point x="328" y="290"/>
      <point x="307" y="289"/>
      <point x="251" y="289" type="curve" smooth="yes"/>
      <point x="183" y="289"/>
      <point x="152" y="336"/>
      <point x="168" y="414" type="curve" smooth="yes"/>
      <point x="229" y="707" type="line"/>
      <point x="153" y="707" type="line"/>
      <point x="91" y="410" type="line" smooth="yes"/>
      <point x="68" y="300"/>
      <point x="129" y="222"/>
      <point x="237" y="222" type="curve" smooth="yes"/>
      <point x="282" y="222"/>
      <point x="318" y="228"/>
      <point x="350" y="240" type="curve"/>
    </contour>
  </outline>
</glyph>
<glyph name="Shacyr" format="2">
  <advance width="816"/>
  <unicode hex="0428"/>
  <guideline x="61" y="0" angle="90"/>
  <guideline x="137" y="0" angle="90"/>
  <guideline x="370" y="0" angle="90"/>
  <guideline x="446" y="0" angle="90"/>
  <guideline x="678" y="0" angle="90"/>
  <guideline x="754" y="0" angle="90"/>
  <guideline x="0" y="707" angle="0"/>
  <anchor x="677" y="695" name="top"/>
  <outline>
    <contour>
      <point x="6" y="0" type="line"/>
      <point x="699" y="0" type="line"/>
      <point x="846" y="707" type="line"/>
      <point x="770" y="707" type="line"/>
      <point x="637" y="67" type="line"/>
      <point x="405" y="67" type="line"/>
      <point x="538" y="707" type="line"/>
      <point x="462" y="707" type="line"/>
      <point x="329" y="67" type="line"/>
      <point x="96" y="67" type="line"/>
      <point x="229" y="707" type="line"/>
      <point x="153" y="707" type="line"/>
    </contour>
  </outline>
</glyph>
<glyph name="Shchacyr" format="2">
  <advance width="821"/>
  <unicode hex="0429"/>
  <outline>
    <contour>
      <point x="153" y="707" type="line"/>
      <point x="229" y="707" type="line"/>
      <point x="96" y="67" type="line"/>
      <point x="329" y="67" type="line"/>
      <point x="462" y="707" type="line"/>
      <point x="538" y="707" type="line"/>
      <point x="405" y="67" type="line"/>
      <point x="637" y="67" type="line"/>
      <point x="770" y="707" type="line"/>
      <point x="846" y="707" type="line"/>
      <point x="713" y="67" type="line"/>
      <point x="769" y="67" type="line"/>
      <point x="720" y="-170" type="line"/>
      <point x="645" y="-170" type="line"/>
      <point x="680" y="0" type="line"/>
      <point x="6" y="0" type="line"/>
    </contour>
  </outline>
</glyph>
<glyph name="Ereversedcyr" format="2">
  <advance width="489"/>
  <unicode hex="042D"/>
  <guideline x="242" y="0" angle="90" name="h1"/>
  <anchor x="242" y="760" name="top"/>
  <outline>
    <contour>
      <point x="181" y="393" type="line"/>
      <point x="388" y="393" type="line"/>
      <point x="409" y="494" type="line" smooth="yes"/>
      <point x="420" y="547"/>
      <point x="418" y="586"/>
      <point x="403" y="611" type="curve" smooth="yes"/>
      <point x="388" y="636"/>
      <point x="361" y="648"/>
      <point x="322" y="648" type="curve" smooth="yes"/>
      <point x="287" y="648"/>
      <point x="257" y="637"/>
      <point x="232" y="615" type="curve" smooth="yes"/>
      <point x="206" y="592"/>
      <point x="189" y="557"/>
      <point x="179" y="508" type="curve" smooth="yes"/>
      <point x="177" y="501" type="line"/>
      <point x="102" y="501" type="line"/>
      <point x="104" y="510" type="line" smooth="yes"/>
      <point x="118" y="579"/>
      <point x="147" y="630"/>
      <point x="189" y="665" type="curve" smooth="yes"/>
      <point x="231" y="699"/>
      <point x="281" y="716"/>
      <point x="337" y="716" type="curve" smooth="yes"/>
      <point x="395" y="716"/>
      <point x="438" y="698"/>
      <point x="466" y="663" type="curve" smooth="yes"/>
      <point x="493" y="627"/>
      <point x="500" y="573"/>
      <point x="485" y="501" type="curve" smooth="yes"/>
      <point x="424" y="206" type="line" smooth="yes"/>
      <point x="409" y="135"/>
      <point x="380" y="81"/>
      <point x="337" y="46" type="curve" smooth="yes"/>
      <point x="294" y="10"/>
      <point x="243" y="-8"/>
      <point x="185" y="-8" type="curve" smooth="yes"/>
      <point x="130" y="-8"/>
      <point x="89" y="9"/>
      <point x="61" y="43" type="curve" smooth="yes"/>
      <point x="33" y="77"/>
      <point x="27" y="128"/>
      <point x="41" y="196" type="curve" smooth="yes"/>
      <point x="43" y="206" type="line"/>
      <point x="116" y="206" type="line"/>
      <point x="114" y="197" type="line" smooth="yes"/>
      <point x="104" y="150"/>
      <point x="107" y="116"/>
      <point x="122" y="93" type="curve" smooth="yes"/>
      <point x="139" y="70"/>
      <point x="164" y="59"/>
      <point x="199" y="59" type="curve" smooth="yes"/>
      <point x="278" y="60"/>
      <point x="328" y="108"/>
      <point x="349" y="205" type="curve" smooth="yes"/>
      <point x="374" y="327" type="line"/>
      <point x="167" y="327" type="line"/>
    </contour>
  </outline>
</glyph>
<glyph name="Yacyr" format="2">
  <advance width="477"/>
  <unicode hex="042F"/>
  <guideline x="255" y="0" angle="90" name="h1"/>
  <anchor x="256" y="760" name="top"/>
  <outline>
    <contour>
      <point x="-24" y="0" type="line"/>
      <point x="55" y="0" type="line"/>
      <point x="236" y="309" type="line"/>
      <point x="350" y="309" type="line"/>
      <point x="286" y="0" type="line"/>
      <point x="361" y="0" type="line"/>
      <point x="508" y="707" type="line"/>
      <point x="321" y="707" type="line" smooth="yes"/>
      <point x="259" y="707"/>
      <point x="211" y="691"/>
      <point x="175" y="658" type="curve" smooth="yes"/>
      <point x="140" y="625"/>
      <point x="115" y="574"/>
      <point x="101" y="507" type="curve" smooth="yes"/>
      <point x="80" y="406"/>
      <point x="103" y="344"/>
      <point x="167" y="321" type="curve"/>
    </contour>
    <contour>
      <point x="181" y="408" type="curve" smooth="yes"/>
      <point x="168" y="430"/>
      <point x="167" y="463"/>
      <point x="176" y="507" type="curve" smooth="yes"/>
      <point x="186" y="552"/>
      <point x="201" y="585"/>
      <point x="221" y="607" type="curve" smooth="yes"/>
      <point x="242" y="629"/>
      <point x="271" y="640"/>
      <point x="308" y="640" type="curve" smooth="yes"/>
      <point x="419" y="640" type="line"/>
      <point x="364" y="375" type="line"/>
      <point x="253" y="375" type="line" smooth="yes"/>
      <point x="217" y="375"/>
      <point x="193" y="386"/>
    </contour>
  </outline>
</glyph>
<glyph name="becyr" format="2">
  <advance width="418"/>
  <unicode hex="0431"/>
  <outline>
    <contour>
      <point x="154" y="-8" type="curve" smooth="yes"/>
      <point x="257" y="-8"/>
      <point x="324" y="54"/>
      <point x="349" y="172" type="curve" smooth="yes"/>
      <point x="376" y="305" type="line" smooth="yes"/>
      <point x="401" y="424"/>
      <point x="360" y="486"/>
      <point x="269" y="486" type="curve" smooth="yes"/>
      <point x="218" y="486"/>
      <point x="182" y="462"/>
      <point x="154" y="430" type="curve"/>
      <point x="152" y="430" type="line" smooth="yes"/>
      <point x="191" y="617"/>
      <point x="266" y="566"/>
      <point x="388" y="633" type="curve"/>
      <point x="403" y="707" type="line"/>
      <point x="245" y="628"/>
      <point x="142" y="678"/>
      <point x="85" y="430" type="curve"/>
      <point x="85" y="430" type="line"/>
      <point x="32" y="172" type="line" smooth="yes"/>
      <point x="7" y="54"/>
      <point x="49" y="-8"/>
    </contour>
    <contour>
      <point x="103" y="180" type="curve" smooth="yes"/>
      <point x="128" y="297" type="line" smooth="yes"/>
      <point x="146" y="384"/>
      <point x="182" y="423"/>
      <point x="243" y="423" type="curve" smooth="yes"/>
      <point x="303" y="423"/>
      <point x="323" y="383"/>
      <point x="305" y="297" type="curve" smooth="yes"/>
      <point x="280" y="180" type="line" smooth="yes"/>
      <point x="263" y="96"/>
      <point x="225" y="54"/>
      <point x="166" y="54" type="curve" smooth="yes"/>
      <point x="105" y="54"/>
      <point x="85" y="93"/>
    </contour>
  </outline>
</glyph>
<glyph name="decyr" format="2">
  <advance width="473"/>
  <unicode hex="0434"/>
  <guideline x="140" y="529" angle="265.217"/>
  <guideline x="189" y="258" angle="85.7792"/>
  <outline>
    <contour>
      <point x="-70" y="-170" type="line"/>
      <point x="-1" y="-170" type="line"/>
      <point x="34" y="0" type="line"/>
      <point x="329" y="0" type="line"/>
      <point x="294" y="-170" type="line"/>
      <point x="363" y="-170" type="line"/>
      <point x="411" y="63" type="line"/>
      <point x="352" y="63" type="line"/>
      <point x="449" y="529" type="line"/>
      <point x="195" y="529" type="line"/>
      <point x="125" y="290" type="line" smooth="yes"/>
      <point x="85" y="152"/>
      <point x="53" y="63"/>
      <point x="18" y="63" type="curve"/>
      <point x="-22" y="63" type="line"/>
    </contour>
    <contour>
      <point x="111" y="63" type="line"/>
      <point x="146" y="120"/>
      <point x="172" y="203"/>
      <point x="188" y="258" type="curve" smooth="yes"/>
      <point x="246" y="466" type="line"/>
      <point x="367" y="466" type="line"/>
      <point x="283" y="63" type="line"/>
    </contour>
  </outline>
</glyph>
<glyph name="zhecyr" format="2">
  <advance width="644"/>
  <unicode hex="0436"/>
  <outline>
    <component base="kacyr" xOffset="227"/>
    <contour>
      <point x="-41" y="0" type="line"/>
      <point x="38" y="0" type="line"/>
      <point x="242" y="249" type="line"/>
      <point x="241" y="250" type="line"/>
      <point x="305" y="250" type="line"/>
      <point x="318" y="313" type="line"/>
      <point x="263" y="313" type="line"/>
      <point x="169" y="529" type="line"/>
      <point x="92" y="529" type="line"/>
      <point x="192" y="288" type="line"/>
    </contour>
  </outline>
</glyph>
<glyph name="kacyr" format="2">
  <advance width="417"/>
  <unicode hex="043A"/>
  <guideline x="211" y="258" angle="58.0517"/>
  <guideline x="172" y="249" angle="301.402"/>
  <guideline x="0" y="343" angle="0"/>
  <guideline x="0" y="258" angle="0"/>
  <guideline x="303" y="529" angle="237.358"/>
  <guideline x="403" y="0" angle="120.991"/>
  <guideline x="0" y="277" angle="0"/>
  <guideline x="303" y="529" angle="237.297"/>
  <guideline x="211" y="258" angle="58.0517"/>
  <guideline x="214" y="0" angle="90" name="h1"/>
  <anchor x="214" y="590" name="top"/>
  <outline>
    <contour>
      <point x="5" y="0" type="line"/>
      <point x="75" y="0" type="line"/>
      <point x="127" y="250" type="line"/>
      <point x="170" y="250" type="line"/>
      <point x="169" y="249" type="line"/>
      <point x="269" y="0" type="line"/>
      <point x="348" y="0" type="line"/>
      <point x="235" y="288" type="line"/>
      <point x="435" y="529" type="line"/>
      <point x="358" y="529" type="line"/>
      <point x="174" y="313" type="line"/>
      <point x="140" y="313" type="line"/>
      <point x="185" y="529" type="line"/>
      <point x="115" y="529" type="line"/>
    </contour>
  </outline>
</glyph>
<glyph name="elcyr" format="2">
  <advance width="405"/>
  <unicode hex="043B"/>
  <guideline x="91" y="529" angle="265.217"/>
  <guideline x="140" y="258" angle="85.7792"/>
  <outline>
    <contour>
      <point x="-44" y="0" type="line"/>
      <point x="31" y="0"/>
      <point x="74" y="31"/>
      <point x="94" y="99" type="curve" smooth="yes"/>
      <point x="197" y="466" type="line"/>
      <point x="318" y="466" type="line"/>
      <point x="221" y="0" type="line"/>
      <point x="290" y="0" type="line"/>
      <point x="400" y="529" type="line"/>
      <point x="146" y="529" type="line"/>
      <point x="28" y="123" type="line" smooth="yes"/>
      <point x="17" y="87"/>
      <point x="4" y="63"/>
      <point x="-31" y="63" type="curve"/>
    </contour>
  </outline>
</glyph>
<glyph name="emcyr" format="2">
  <advance width="582"/>
  <unicode hex="043C"/>
  <outline>
    <contour>
      <point x="5" y="0" type="line"/>
      <point x="74" y="0" type="line"/>
      <point x="157" y="399" type="line"/>
      <point x="236" y="60" type="line"/>
      <point x="260" y="60" type="line"/>
      <point x="481" y="399" type="line"/>
      <point x="398" y="0" type="line"/>
      <point x="467" y="0" type="line"/>
      <point x="577" y="529" type="line"/>
      <point x="498" y="529" type="line"/>
      <point x="272" y="180" type="line"/>
      <point x="194" y="529" type="line"/>
      <point x="115" y="529" type="line"/>
    </contour>
  </outline>
</glyph>
